<?xml version="1.0" standalone="no"?>
<!DOCTYPE svg PUBLIC "-//W3C//DTD SVG 1.1//EN" "http://www.w3.org/Graphics/SVG/1.1/DTD/svg11.dtd" >
<svg>
<metadata>
Created by FontForge 20090622 at Sun Apr  3 21:09:08 2016
 By deploy user
Copyright (c) 2012, Brownfox (gayaneh.b@gmail.com), with Reserved Font Name "Henny Penny"
</metadata>
<defs>
<font id="HennyPenny-Regular" horiz-adv-x="784" >
  <font-face 
    font-family="Henny Penny"
    font-weight="400"
    font-stretch="normal"
    units-per-em="1000"
    panose-1="2 0 5 5 0 0 0 2 0 4"
    ascent="800"
    descent="-200"
    x-height="496"
    cap-height="846"
    bbox="-146 -637 1246 1135"
    underline-thickness="50"
    underline-position="-50"
    unicode-range="U+0020-U+FB00"
  />
<missing-glyph horiz-adv-x="270" 
 />
    <glyph glyph-name=".notdef" horiz-adv-x="270" 
 />
    <glyph glyph-name=".null" horiz-adv-x="0" 
 />
    <glyph glyph-name="nonmarkingreturn" horiz-adv-x="333" 
 />
    <glyph glyph-name="space" unicode=" " horiz-adv-x="270" 
 />
    <glyph glyph-name="exclam" unicode="!" horiz-adv-x="249" 
d="M119 -36q-26 0 -45 18t-19 48q0 33 19 49t43 16q25 0 44.5 -17.5t19.5 -46.5q0 -31 -17.5 -49t-44.5 -18zM119 199q-3 1 -5 6t-3 14t-1 22v29.5v35.5q-3 147 -23 301q-6 43 -15.5 102t-14.5 94.5t-5 59.5q0 84 66 84q45 0 61.5 -33.5t16.5 -97.5q0 -96 -15.5 -256
t-29.5 -250q-10 -61 -16.5 -86.5t-15.5 -24.5z" />
    <glyph glyph-name="quotedbl" unicode="&#x22;" horiz-adv-x="293" 
d="M84 820q35 0 35 -49q0 -300 -19 -300q-10 0 -30 130t-20 170q0 49 34 49zM208 836q33 0 33 -53q0 -15 -9 -145q-13 -154 -31 -154q-14 0 -22 107.5t-8 184.5q0 60 37 60z" />
    <glyph glyph-name="numbersign" unicode="#" horiz-adv-x="1031" 
d="M576 807q10 0 10 -14t-20.5 -67l-46 -115.5t-31.5 -80.5q-6 -16 -6 -24q0 -21 71 -21q35 0 53 29q23 37 69 144l3.5 7l3.5 7t3.5 6.5t4 6.5t4 4.5t5 3.5t5.5 1q9 0 9 -13q0 -23 -37 -103t-37 -89q0 -10 19 -14q21 -3 139 -5t159 -6q24 -3 24 -15q0 -14 -26 -14
q-38 0 -153 14q-66 6 -119 6q-41 0 -51 -4q-15 -4 -27 -26q-4 -6 -36.5 -76t-39.5 -87q-3 -8 -3 -12q0 -8 10 -8q38 0 146 19.5t126 19.5q20 0 20 -12q0 -14 -31 -20q-4 -1 -144 -19q-83 -10 -127 -21q-25 -7 -40 -41q-7 -14 -83 -195.5t-85 -205.5q-29 -73 -51 -73
q-15 0 -15 17q0 31 28 87q17 43 48 114l57.5 131.5l30.5 69.5q26 61 26 74q0 8 -12 8q-38 0 -74 -13q-13 -7 -21 -25q-6 -15 -51.5 -119.5t-53.5 -116.5q-2 -4 -7.5 -14l-8.5 -15.5t-8.5 -12.5t-11 -10t-11.5 -3q-17 0 -17 22q0 34 55.5 152t55.5 124q0 9 -13 9
q-22 0 -89 -9t-87 -9q-31 0 -31 19q0 15 27 21q4 1 97 10t108 15q19 7 31 25q19 34 49 101t30 95q0 25 -42 29q-56 5 -149.5 8.5t-123.5 5.5q-33 2 -33 15q0 12 29 12q4 0 134.5 -5.5t177.5 -5.5q44 0 57 21q10 17 52 122t49 126q15 38 27 38zM488 461q-11 -2 -16.5 -4
t-15 -10.5t-17.5 -23.5q-5 -9 -43 -106l-33 -87q28 0 41 1q48 4 57 9q6 3 12 8.5t9.5 10.5t9 15.5l8 15.5t9 20.5l8.5 20.5l23.5 57t19.5 50t6 19q-40 4 -78 4z" />
    <glyph glyph-name="dollar" unicode="$" horiz-adv-x="800" 
d="M512 903q10 0 10 -18q0 -17 -15 -101q64 -11 73 -11q18 0 36 12.5t29.5 27t22.5 27t16 12.5q7 0 7 -8q0 -6 -7 -20.5t-19 -43.5t-21 -64q-7 -31 -14 -81t-12.5 -75.5t-13.5 -25.5q-5 0 -6 15.5t-4 50t-11 66.5q-7 30 -28 56t-52 38q-5 -23 -12 -63.5l-9 -51.5l-28 -150
q8 -10 40 -46.5l44.5 -51.5t36.5 -49t34.5 -57t19.5 -56.5t9 -65.5q0 -128 -72.5 -190.5t-181.5 -62.5q-29 0 -53 6l-8 -32q-24 -101 -40 -101q-9 0 -9 14q0 5 28 128q-32 13 -72 44.5t-56 31.5q-19 0 -47 -33.5t-33 -33.5q-4 0 -4 5q0 6 11 28t27.5 60t26.5 75
q12 41 18.5 85t9.5 62.5t10 18.5q8 0 8 -22q0 -95 10 -138q25 -109 100 -148q14 60 82 378l-57 61t-45 56.5t-38.5 70.5t-11.5 70q0 67 33 111.5t77.5 60.5t96.5 16q20 0 30 -2q8 52 16 86q6 29 18 29zM529 96q0 60 -28 110t-82 110l-80 -361q28 -7 51 -7q64 0 101.5 40.5
t37.5 107.5zM363 673q0 -60 66 -149l46 243q-5 2 -18 2q-43 0 -68.5 -25t-25.5 -71z" />
    <glyph glyph-name="percent" unicode="%" horiz-adv-x="789" 
d="M224 922q78 0 124 -46t46 -125q0 -49 -16.5 -85.5t-43.5 -55.5t-56 -28t-59 -9q-66 0 -115.5 44.5t-49.5 130.5q0 85 48 129.5t122 44.5zM218 898q-70 0 -70 -105q0 -87 26 -142t70 -55q68 0 68 129q0 30 -4.5 57.5t-14 55t-29 44t-46.5 16.5zM579 413q80 0 132 -51
t52 -128q0 -93 -58.5 -145t-145.5 -52q-78 0 -126.5 44t-48.5 130q0 97 58 149.5t137 52.5zM576 388q-45 0 -74.5 -45t-29.5 -133q0 -68 27.5 -106.5t70.5 -38.5q49 0 73.5 45.5t24.5 126.5q0 151 -92 151zM683 929q8 0 8 -10q0 -23 -133 -217l-409 -564l-35 -49t-34 -48
q-19 -27 -29 -38.5t-19 -11.5q-11 0 -11 12q0 22 55 98l128 181l220 307l187 257l14 19.5t13 18.5l10.5 15t10.5 13l8.5 8.5t8.5 6.5t7 2z" />
    <glyph glyph-name="ampersand" unicode="&#x26;" horiz-adv-x="774" 
d="M326 872q59 0 89.5 -31t30.5 -77q0 -39 -19.5 -82t-39 -68.5t-64.5 -76.5t-61 -71q52 -111 144 -233q32 -44 109 -116q40 46 61.5 103t21.5 106q0 88 -50 88q-22 0 -81 -14.5t-75 -14.5q-17 0 -17 10q0 7 14 11l52.5 15t78.5 31q35 17 63 41t41.5 38.5t19.5 14.5
q10 0 16.5 -24.5t6.5 -59.5q0 -104 -32.5 -202t-93.5 -166q77 -65 122 -65q19 0 37 22.5t30.5 45t18.5 22.5q5 0 5 -8q0 -27 -49.5 -118.5t-75.5 -91.5q-21 0 -68 31t-107 94q-74 -40 -162 -40q-117 0 -188 61.5t-71 175.5q0 131 130 265q-27 86 -27 174q0 99 53 154.5
t137 55.5zM355 142q-95 124 -151 243q-43 -78 -43 -150q0 -91 46.5 -150t126.5 -59q50 0 98 23q-67 78 -77 93zM198 706q0 -70 29 -155q76 72 115.5 126.5t39.5 107.5q0 32 -17.5 51t-50.5 19q-48 0 -82 -36.5t-34 -112.5z" />
    <glyph glyph-name="quotesingle" unicode="'" horiz-adv-x="175" 
d="M87 780q37 0 37 -60q0 -57 -5.5 -157t-13.5 -100q-10 0 -31.5 108t-21.5 153q0 56 35 56z" />
    <glyph glyph-name="parenleft" unicode="(" horiz-adv-x="431" 
d="M246 995q5 0 5 -6q0 -4 -12 -26t-31 -62.5t-32 -81.5q-60 -182 -60 -431q0 -254 122 -500q44 -89 93 -157t74.5 -96.5t25.5 -37.5q0 -8 -10 -8q-23 0 -83 47.5t-120 126.5q-207 275 -207 580q0 113 21.5 220.5t53 182.5t65.5 133.5t59.5 87t35.5 28.5z" />
    <glyph glyph-name="parenright" unicode=")" horiz-adv-x="444" 
d="M73 748q25 0 66 -15.5t92.5 -52.5t96.5 -88t75.5 -133t30.5 -178q0 -99 -33.5 -186.5t-83 -143.5t-106.5 -97.5t-103.5 -59.5t-74.5 -18q-23 0 -23 10t24.5 21t72 39t89.5 72q126 135 126 344q0 58 -16 133t-51 135q-31 53 -68 94t-63.5 59t-45 32.5t-18.5 22.5
q0 10 13 10z" />
    <glyph glyph-name="asterisk" unicode="*" horiz-adv-x="490" 
d="M235 917q36 0 43 -48q3 -21 6.5 -66l6 -76t5.5 -31q2 0 18.5 34t43 68.5t51.5 34.5q28 0 28 -29q0 -25 -33.5 -55t-67.5 -52t-34 -26q0 -7 32 -29t64.5 -52t32.5 -57q0 -17 -9 -28t-26 -11q-28 0 -51 31q-15 20 -30 50l-23.5 48t-11.5 18q-4 0 -27.5 -28.5t-53 -57.5
t-47.5 -29q-26 0 -26 25q0 21 32 47t64.5 44t32.5 22q0 3 -9 3q-4 0 -23 -0.5t-33 -0.5q-58 0 -87 3q-56 5 -56 40t39 35q24 0 68.5 -15.5t76 -29.5t31.5 -13q0 2 -31.5 79.5t-31.5 107.5q0 23 10.5 33.5t25.5 10.5z" />
    <glyph glyph-name="plus" unicode="+" horiz-adv-x="441" 
d="M245 586q15 0 15 -28q0 -3 -1.5 -57.5t-1.5 -88.5q0 -43 2 -57q1 -12 12 -12q17 0 51 5.5t47 5.5q22 0 22 -14t-23 -19q-15 -3 -48.5 -7t-41.5 -6q-14 -4 -14 -20t10 -99t10 -98q0 -26 -15 -26t-19 25q-1 5 -10 83t-14 106q-2 14 -7 18.5t-15 4.5q-13 0 -65.5 -2
t-66.5 -2q-23 0 -23 20q0 17 26 20q15 1 59.5 1.5t58.5 2.5q18 2 24.5 9.5t8.5 25.5q4 41 4 88q0 20 -1 51.5t-1 39.5q0 30 17 30z" />
    <glyph glyph-name="comma" unicode="," horiz-adv-x="252" 
d="M121 161q41 0 61 -27t20 -66q0 -51 -26 -108.5t-55 -92.5t-44 -35q-8 0 -8 8q0 5 4.5 12.5t15 21t17.5 25.5q20 36 20 58q0 21 -19 40.5t-38 42t-19 50.5q0 32 19.5 51.5t51.5 19.5z" />
    <glyph glyph-name="hyphen" unicode="-" horiz-adv-x="436" 
d="M219 194q-35 0 -85 5t-70 13q-14 5 -14 17q0 14 15 14q12 0 60 -6t89 -6q43 0 92.5 4t57.5 4q22 0 22 -14q0 -15 -20 -21q-34 -10 -147 -10z" />
    <glyph glyph-name="period" unicode="." horiz-adv-x="239" 
d="M121 127q34 0 51 -22t17 -51q0 -43 -19.5 -65t-49.5 -22q-31 0 -50.5 21.5t-19.5 56.5q0 37 20 59.5t51 22.5z" />
    <glyph glyph-name="slash" unicode="/" horiz-adv-x="691" 
d="M673 929q8 0 8 -10q0 -23 -133 -217l-409 -564l-35 -49t-34 -48q-19 -27 -29 -38.5t-19 -11.5q-11 0 -11 12q0 20 55 98l128 181l407 564l14.5 19.5t13 18.5t11 15l10.5 13t8.5 9t8 6t6.5 2z" />
    <glyph glyph-name="zero" unicode="0" horiz-adv-x="723" 
d="M209 753q69 30 151 30q109 0 191 -53t122 -135.5t40 -180.5q0 -152 -93 -251.5t-248 -99.5q-68 0 -130.5 22.5t-115 66.5t-84 117.5t-31.5 167.5q0 102 52.5 188.5t145.5 127.5zM343 753q-106 0 -163 -84t-57 -209q0 -164 71.5 -263.5t196.5 -99.5q53 0 93.5 23t63.5 64
t34.5 92t11.5 112q0 179 -63 272t-188 93z" />
    <glyph glyph-name="one" unicode="1" horiz-adv-x="506" 
d="M9 536q-9 0 -9 8q0 7 17.5 18t55 39t73.5 69q34 38 56 85t30.5 73t13.5 26q9 0 22 -70q3 -16 24.5 -152l45 -276t36.5 -185q12 -45 27.5 -67.5t46.5 -36.5q10 -5 25 -9.5t23.5 -8t8.5 -6.5q0 -6 -15 -6q-5 0 -29.5 1.5t-43.5 1.5q-69 -1 -141 -25.5t-121 -48.5t-65 -24
q-10 0 -10 8t16.5 18.5t49 27.5t51.5 29q52 33 52 105q0 65 -15 218t-35 218q-13 42 -43 42q-25 0 -81.5 -36t-65.5 -36z" />
    <glyph glyph-name="two" unicode="2" horiz-adv-x="534" 
d="M246 813q101 0 156.5 -56.5t55.5 -140.5q0 -58 -31 -122t-70.5 -110.5t-90 -92t-76 -64t-40.5 -28.5q-32 -22 -32 -26q0 -14 121.5 -65.5t171.5 -51.5q31 0 56 24.5t40 49t21 24.5t6 -7q0 -6 -3.5 -15t-11 -22l-14 -24t-17.5 -28t-17 -28q-12 -18 -28.5 -50t-26.5 -47
t-20 -15q-11 0 -38 18l-73.5 51.5t-83.5 56.5q-42 25 -89.5 49l-69 35t-21.5 17q0 3 9 8.5l30 18t41 27.5q227 175 227 377q0 72 -36 114.5t-102 42.5q-59 0 -97.5 -42t-52.5 -109q-5 -24 -8.5 -53t-6 -40t-7.5 -11q-12 0 -12 48q0 124 63 205.5t177 81.5z" />
    <glyph glyph-name="three" unicode="3" horiz-adv-x="511" 
d="M63 756q13 0 63 -11.5t96 -16.5q34 -4 80.5 -6t75 -3.5t34.5 -5.5q6 -5 6 -12q0 -23 -87 -133.5t-87 -114.5q0 -1 21.5 -6t61 -21.5t74.5 -41.5q110 -79 110 -209q0 -41 -14 -81.5t-41 -77t-74.5 -59t-107.5 -22.5q-66 0 -117.5 23.5t-80 58t-46.5 79.5t-24 81.5t-6 70.5
q0 43 9 43q4 0 6 -9t6.5 -31.5t10.5 -43.5q25 -87 81 -133t133 -46q63 0 104.5 41.5t41.5 119.5q0 46 -20.5 87t-50 66.5t-58.5 44t-49.5 29t-20.5 13.5t9 14.5l27.5 34.5l33.5 43q78 111 78 121q0 6 -39 10t-81 4q-76 0 -110 -37q-17 -18 -28.5 -46t-17 -46t-10.5 -18
q-7 0 -7 24q0 7 1 39t1 54q0 14 -2 51t-2 48q0 31 17 31z" />
    <glyph glyph-name="four" unicode="4" horiz-adv-x="713" 
d="M435 853q8 0 8 -12q0 -5 -3.5 -16l-9 -27.5t-8.5 -26.5q-8 -30 -8 -63q0 -54 31 -193q23 -108 61 -250q38 -20 89 -20q15 0 30.5 14.5t27 29.5t16.5 15q4 0 4 -5q0 -6 -4.5 -16.5t-16 -32.5t-15.5 -29q-9 -18 -19 -41t-14.5 -31t-9.5 -8q-8 0 -20 4.5t-29 12l-24 10.5
q1 -27 14 -72q15 -68 47 -121q24 -38 85 -62q41 -16 41 -24q0 -6 -9 -6q-11 0 -81 26t-120 35q-31 6 -76 6.5t-70.5 1.5t-25.5 7q0 3 4 5.5t12 4.5t15.5 3.5t19 3.5l17.5 3q36 8 36 41q0 42 -31 185l-83.5 38.5t-82.5 37.5q-46 19 -111 43t-91 36t-26 21q0 8 17 25.5
t57.5 55.5t71.5 70l99.5 104.5t49.5 55.5l50 62l31.5 40t22 29t13 17t10.5 10.5t8 2.5zM313 659q-18 0 -126 -126l-27 -31q-26 -32 -43 -55.5t-17 -31.5q0 -10 37.5 -30t83.5 -38q140 -56 164 -63q-2 14 -13 84t-19 116q-3 14 -7.5 42l-8 48t-8 41t-8.5 32.5t-8 11.5z" />
    <glyph glyph-name="five" unicode="5" horiz-adv-x="758" 
d="M416 828q12 0 101 -48.5t116 -48.5q23 0 40 16t38 51q18 29 25.5 38t13.5 9q8 0 8 -10q0 -21 -24.5 -85t-54 -120t-40.5 -55q-19 1 -124.5 78t-117.5 78q-9 1 -40 -50.5t-58 -103.5t-27 -55t17 -4.5t53 -5.5t68 -13q91 -23 147 -87.5t56 -154.5q0 -160 -94.5 -259
t-235.5 -99q-128 0 -203 74.5t-75 195.5q0 56 13 102.5t29.5 69t29.5 22.5q6 0 6 -6q0 -4 -5.5 -15.5t-13.5 -30t-13 -34.5q-12 -39 -12 -102q0 -100 65.5 -157t159.5 -57q97 0 158.5 71t61.5 204q0 113 -92 170q-32 20 -75 34.5t-69.5 20t-26.5 8.5q0 12 86 174l34.5 66.5
l27.5 54t19 35t16 23.5t12 6z" />
    <glyph glyph-name="six" unicode="6" horiz-adv-x="598" 
d="M343 786q44 0 82 -11t62 -27t44 -37t29.5 -36.5t15.5 -30.5q8 -19 8 -37q0 -12 -10 -12q-6 0 -12 7t-19 30q-25 43 -70.5 77.5t-116.5 34.5q-52 0 -91.5 -25t-59.5 -58.5t-33 -74.5t-16 -66t-3 -41q82 79 177 79q126 0 192 -76t66 -190q0 -127 -76.5 -205.5t-177.5 -78.5
q-43 0 -86 12t-85.5 40.5t-75 70.5t-53 107.5t-20.5 146.5q0 182 91.5 291.5t237.5 109.5zM310 528q-68 0 -116 -59t-48 -181q0 -120 53.5 -187t138.5 -67q73 0 115.5 65t42.5 171q0 258 -186 258z" />
    <glyph glyph-name="seven" unicode="7" horiz-adv-x="508" 
d="M13 731q7 0 78.5 -8t142.5 -8q78 0 141 10.5t95 21t34 10.5q4 0 4 -4q0 -6 -25.5 -46t-72 -128.5t-86.5 -193.5q-40 -103 -56.5 -201t-17.5 -149t-2 -52q-3 -3 -13 -4t-28.5 -2t-35.5 -5q-14 -3 -29 -8l-23.5 -8t-12.5 -3q-5 0 -5 7q0 38 57 176q37 94 91.5 200l88.5 168
t34 71q0 17 -91 42.5t-151 25.5q-14 0 -24.5 -4t-18.5 -14t-13 -18t-9.5 -25t-6.5 -26.5t-6 -31t-5 -29.5l-2.5 -14.5t-2.5 -13t-2 -9.5t-3 -7t-4 -2q-6 0 -6 26q0 85 -12 160q-3 19 -7 38t-6 29.5t-2 15.5q0 13 13 13z" />
    <glyph glyph-name="eight" unicode="8" horiz-adv-x="476" 
d="M242 784q81 0 123.5 -41.5t42.5 -101.5q0 -73 -54 -131q-24 -27 -54 -45q48 -30 85 -70q86 -90 86 -195q0 -104 -64.5 -172t-169.5 -68q-44 0 -83.5 11t-73.5 35t-54 66.5t-20 99.5q0 96 75 171q33 31 75 54q-33 23 -57 52q-56 68 -56 144q0 90 58.5 140.5t140.5 50.5z
M283 489q22 0 58 46t36 106q0 50 -27 82t-75 32q-44 0 -71 -28.5t-27 -83.5q0 -64 41 -109t65 -45zM198 359q-39 0 -84.5 -56t-45.5 -140q0 -81 46 -131t126 -50q71 0 110 42.5t39 116.5q0 85 -61.5 151.5t-129.5 66.5z" />
    <glyph glyph-name="nine" unicode="9" horiz-adv-x="601" 
d="M274 749q139 0 228 -91t89 -252q0 -102 -29 -184t-78 -132.5t-110 -77t-129 -26.5q-63 0 -113 19.5t-71.5 40.5t-21.5 35q0 12 11 12q8 0 31 -14.5t61.5 -29.5t82.5 -15q50 0 88.5 18.5t60.5 45.5t36 60.5t18.5 60t4.5 48.5q0 16 -4 16q-1 0 -21 -9.5t-56 -18.5t-76 -9
q-130 0 -198 70.5t-68 187.5q0 113 73.5 179t190.5 66zM263 725q-71 0 -109.5 -53.5t-38.5 -157.5q0 -114 54.5 -174.5t138.5 -60.5q73 0 105 44t32 131q0 67 -17.5 126t-60.5 102t-104 43z" />
    <glyph glyph-name="colon" unicode=":" horiz-adv-x="246" 
d="M123 476q29 0 48.5 -18t19.5 -51q0 -39 -19.5 -60.5t-51.5 -21.5q-30 0 -50 18.5t-20 57.5q0 34 19.5 54.5t53.5 20.5zM131 116q35 0 50 -21t15 -50q0 -35 -19.5 -56t-49.5 -21t-47 19.5t-17 51.5q0 34 18 55.5t50 21.5z" />
    <glyph glyph-name="semicolon" unicode=";" horiz-adv-x="266" 
d="M143 449q37 0 54.5 -21t17.5 -49q0 -32 -18 -58t-54 -26t-55.5 20.5t-19.5 56.5q0 30 18 53.5t57 23.5zM127 90q38 0 59 -22t21 -56q0 -45 -32.5 -97t-68 -83t-50.5 -31q-6 0 -6 6q0 5 4 10q2 3 20.5 22t30.5 39t12 38q0 13 -9.5 25t-21 20t-21 23.5t-9.5 35.5
q0 29 20 49.5t51 20.5z" />
    <glyph glyph-name="less" unicode="&#x3c;" horiz-adv-x="523" 
d="M444 539q10 0 10 -9q0 -28 -163 -133l-58.5 -37l-44.5 -27l-28 -17.5t-17.5 -12.5t-4.5 -7q0 -15 161 -96l24 -12.5l31.5 -17l32 -17.5t33.5 -19t26.5 -17.5t20 -16t6.5 -11.5q0 -12 -14 -12q-21 0 -68 22t-132.5 69.5l-104.5 57.5q-104 53 -104 60q0 8 35 29
q149 88 176 106q46 29 89.5 61t62.5 44.5t31 12.5z" />
    <glyph glyph-name="equal" unicode="=" horiz-adv-x="656" 
d="M575 388q31 0 31 -16t-33 -20h-4q-90 -4 -190 -13q-20 -2 -93.5 -10t-133 -13.5t-79.5 -5.5q-23 0 -23 13q0 16 66 26q97 13 247.5 26t211.5 13zM505 225q34 -4 34 -16q0 -15 -39 -15q-2 0 -40 0.5t-85 1t-72 0.5q-53 0 -128.5 -1t-83.5 -1q-41 0 -41 22q0 23 48 23
q75 0 220.5 -5t186.5 -9z" />
    <glyph glyph-name="greater" unicode="&#x3e;" horiz-adv-x="533" 
d="M57 553q9 0 32.5 -12t48.5 -27t27 -16l91 -55.5t99 -58.5q71 -42 93 -56.5t22 -24.5q0 -19 -85 -82q-6 -5 -9 -7l-78 -53.5l-90 -61.5q-66 -43 -78 -43q-10 0 -10 10t21 27q9 8 43.5 32.5l74.5 52.5l47 33q100 70 100 87q0 6 -50 38q-154 96 -198 126l-23 15.5l-29 20
l-26.5 19t-22 18t-7.5 12.5q0 6 7 6z" />
    <glyph glyph-name="question" unicode="?" horiz-adv-x="565" 
d="M195 21q30 0 45.5 -18.5t15.5 -47.5q0 -31 -16.5 -44t-35.5 -13q-27 0 -45 20.5t-18 47.5q0 24 14 39.5t40 15.5zM285 830q109 0 179 -55t70 -161q0 -74 -33 -125.5t-100 -96.5q-30 -20 -75.5 -47.5l-71.5 -44t-54 -39.5t-40.5 -47t-12.5 -53t13 -44t32 -15q18 0 27 12.5
t10 27.5q2 17 7 17q8 0 8 -20q0 -25 -14.5 -42t-43.5 -17q-32 0 -54 21t-22 64q0 42 22 80.5t54.5 68l71 65.5t71 70.5t54.5 85.5t22 109q0 69 -36 117.5t-111 48.5q-60 0 -94.5 -32.5t-34.5 -79.5q0 -30 13.5 -57.5t30 -45t30 -43t13.5 -52.5q0 -33 -21.5 -57t-63.5 -24
q-111 0 -111 150q0 32 8.5 66t28.5 69.5t49.5 63t75.5 45t103 17.5z" />
    <glyph glyph-name="at" unicode="@" horiz-adv-x="899" 
d="M385 -263q57 0 90 17t33 45q0 13 -10 24t-22.5 18t-22.5 21.5t-10 32.5q0 24 18 42.5t50 18.5q34 0 56.5 -25t22.5 -66q0 -25 -9 -49.5t-30 -50.5t-65 -42t-104 -16q-139 1 -235.5 130t-96.5 346q0 229 126.5 374t324.5 145q179 0 268 -107t89 -286q0 -158 -50 -247
t-122 -89q-58 0 -91 41.5t-42 100.5q-29 -167 -169 -167q-48 0 -90 21t-73.5 74.5t-33.5 132.5q1 76 23.5 133.5t57.5 88.5t71.5 45.5t72.5 14.5q77 0 131 -54q0 13 -0.5 31.5t-0.5 27.5q0 10 4.5 15t10 6t18 1t19.5 1l27 2.5t20 1.5q10 0 10 -21q0 -19 -8 -134.5t-8 -148.5
q0 -158 67 -158q47 0 84.5 74t37.5 203q0 184 -89.5 275.5t-236.5 91.5q-178 0 -296 -134.5t-118 -352.5q0 -99 22 -179.5t55 -129t75 -81.5t79 -45.5t70 -12.5zM421 432q-56 0 -91 -51t-35 -140q0 -93 33.5 -154.5t93.5 -61.5q61 0 91 62t30 155q0 79 -31 134.5t-91 55.5z
" />
    <glyph glyph-name="A" unicode="A" 
d="M416 820q4 0 10 -12.5t12.5 -31.5l7.5 -22q204 -613 230 -681q22 -59 44 -78t66 -29q15 -3 15 -11q0 -9 -18 -9q-5 0 -27 0.5t-38 0.5q-36 0 -78 -3q-49 -4 -108 -19t-69 -15q-12 0 -12 10q0 12 17 17q36 7 63 20q25 13 25 41q0 13 -3 23q-45 177 -69 239q-19 47 -58 66
q-9 5 -167 57l-29 -94l-28 -90.5l-14 -46.5q-7 -24 -7 -41q0 -18 8 -30.5t16.5 -17.5t25.5 -12q21 -11 21 -20q0 -11 -15 -11q-10 0 -28 6t-44.5 16.5t-43.5 15.5q-51 14 -98 17q-23 3 -23 13q0 11 14 11q1 0 10.5 -0.5t17.5 -0.5q44 0 64 11.5t32 39.5q35 73 94 255
q78 244 78 282q0 23 -23 23q-14 0 -51 -4.5t-49 -4.5q-18 0 -18 13q0 11 17 13q71 5 124 29q28 13 52 29.5t36.5 26t17.5 9.5zM334 621l-67 -212q134 -47 162 -47q15 0 15 17q0 15 -61 228q-2 4 -7.5 22.5t-10 30.5t-7.5 12q-4 0 -12 -18t-12 -33z" />
    <glyph glyph-name="B" unicode="B" horiz-adv-x="685" 
d="M408 854q33 0 63 -7.5t57.5 -24.5t43.5 -49.5t16 -77.5q0 -41 -16 -77t-37.5 -58.5t-52.5 -42t-50.5 -28t-41.5 -15.5q28 0 60.5 -6.5t73 -24.5t72.5 -46t54 -76t22 -109q0 -66 -22 -118.5t-57.5 -82t-73 -46t-75.5 -20.5q-43 -5 -88 -5q-22 0 -56 1.5t-49 1.5
q-57 0 -109.5 -22.5t-86 -44.5t-43.5 -22q-11 0 -11 12q0 11 15 23.5t45 30.5t46 30q45 36 55 107q7 57 7 176q0 17 0.5 70.5t0.5 86.5q0 264 -29 330q-28 64 -110 78q-21 4 -21 13q0 8 13 8q7 0 41 -4t67 -4q61 0 144 21.5t133 21.5zM241 800q1 -21 6 -96.5t8 -114.5
q2 -38 8 -124q53 3 102 24q102 48 102 158q0 165 -143 165q-44 0 -83 -12zM265 429q15 -272 26 -356q10 -111 99 -111q72 0 115.5 59.5t43.5 177.5q0 116 -55 180.5t-142 64.5q-55 0 -87 -15z" />
    <glyph glyph-name="C" unicode="C" horiz-adv-x="742" 
d="M649 845q10 0 10 -24q0 -1 -1 -23.5t-1 -43.5q0 -25 1 -47.5t3.5 -42t4.5 -32.5t6.5 -29.5l6 -22l5.5 -20.5l5 -14q12 -39 12 -47t-6 -8q-18 3 -57 61q-47 63 -101 93.5t-139 30.5q-107 0 -175.5 -83.5t-68.5 -242.5q0 -88 19 -158.5t49 -114.5t70 -73t78 -41t76 -12
q64 0 114 23.5t78 62t43 76t21 77.5q2 12 4 37t4.5 36t7.5 11q14 0 14 -50q0 -22 -4 -48t-14.5 -66t-34 -75t-57.5 -67t-91 -51t-128 -19q-74 0 -142.5 23t-127 68t-93.5 123t-35 179q0 96 25.5 170.5t64.5 119t92 73t102 39t100 10.5q44 0 98 -7.5t68 -7.5q53 0 66 51
q5 19 8 49t7 43.5t13 13.5z" />
    <glyph glyph-name="D" unicode="D" horiz-adv-x="726" 
d="M431 668q74 0 129.5 -25t87.5 -68t47.5 -94.5t15.5 -109.5q0 -101 -41.5 -179t-131.5 -117q-46 -20 -148 -44.5t-174 -59.5q-60 -30 -107 -65t-68.5 -54t-30.5 -19q-10 0 -10 10q0 7 13 18l36.5 32.5t41.5 46.5q45 61 54 143q6 87 6 174q0 244 -28 308q-12 27 -36 42
t-42 20.5t-18 12.5q0 8 13 8q7 0 43 -4t71 -4q50 0 144.5 14t132.5 14zM360 635q-103 0 -117 -41q-8 -26 -8 -93q0 -165 18 -300q10 -79 39 -114q28 -33 86 -33q43 0 77.5 19.5t56.5 51t36 72.5t20 80.5t6 79.5q0 76 -21 133t-54.5 87t-68.5 44t-70 14z" />
    <glyph glyph-name="E" unicode="E" horiz-adv-x="557" 
d="M490 802q13 0 13 -14q0 -3 -4 -48t-4 -98q0 -16 -9 -16q-8 0 -11 16q-2 7 -9 65q-5 33 -19.5 42t-38.5 9q-37 0 -91 -5t-69 -10q-23 -5 -23 -34q0 -33 12 -303q28 -4 52 -4q52 0 65 30q3 9 7 30q3 15 10 15t7 -12q0 -13 -4 -59t-4 -67q0 -20 1 -50.5t1 -33.5
q0 -19 -12 -19q-11 0 -13 20q-5 64 -6 68q-8 22 -29 29q-12 4 -73 9q22 -355 26 -376q4 -37 37 -41q20 -3 47 -3q77 0 116.5 18t58.5 67q5 14 10.5 33t9 29t6.5 10q7 0 7 -30q0 -34 -6.5 -80t-13.5 -66q-11 -28 -46 -28q-18 0 -109.5 10t-152.5 13q-87 5 -187 5
q-22 0 -22 13t19 13q1 0 18 -1t32 -1q17 0 27 1q22 1 33 11t12.5 18t1.5 21q-1 56 -6.5 128t-14 152.5t-9.5 88.5q-14 159 -38 284q-13 65 -43 87q-5 4 -16.5 10.5t-18.5 11.5t-7 10q0 8 13 8q1 0 49.5 -5.5t101.5 -5.5q44 0 118.5 8.5t133 17.5t64.5 9z" />
    <glyph glyph-name="F" unicode="F" horiz-adv-x="533" 
d="M527 842q26 0 26 -32q0 -28 -25 -141q-6 -27 -21.5 -73t-25.5 -46q-6 0 -6 13q0 8 4.5 56.5t4.5 75.5q0 49 -19 63.5t-61 14.5q-57 0 -108 -13q-21 -6 -28 -18t-7 -35q0 -31 7 -276q43 5 52 9q30 13 40 58q8 35 12.5 46t11.5 11q9 0 9 -18q0 -7 -6.5 -48.5t-6.5 -73.5
q0 -30 2.5 -76t2.5 -50q0 -33 -12 -33q-14 0 -14 44q-2 44 -10 65.5t-33 29.5q-15 4 -47 4q8 -267 12 -326q3 -43 16 -58.5t41 -23.5q3 -1 9.5 -2.5t11 -3t8 -4.5t3.5 -7q0 -12 -27 -12q-6 0 -51 5t-76 5q-22 0 -68.5 -4t-78.5 -4q-42 0 -42 16q0 11 18 14l33 3q34 3 50 7
q26 7 41 25t15 59q0 111 -22.5 298.5t-40.5 263.5q-6 23 -19 37t-26.5 18.5t-34.5 7.5q-31 5 -31 19t22 14q114 0 246 30q68 15 124.5 32t82.5 25.5t42 8.5z" />
    <glyph glyph-name="G" unicode="G" horiz-adv-x="750" 
d="M385 652q58 0 122 -16t88 -16q46 0 88 43q12 13 25 31.5t21 27.5t15 9q11 0 11 -12q0 -8 -16 -32.5l-39 -57.5t-33 -53q-26 -54 -53 -131q-13 -38 -29 -38q-12 0 -12 20q0 3 2.5 23t2.5 34q0 70 -48.5 107t-139.5 37q-41 0 -80.5 -16.5t-77 -51.5t-60.5 -101.5
t-23 -154.5q0 -70 18 -130t47 -94q57 -68 156 -68q105 0 150 64q26 34 26 97q0 45 -13.5 70.5t-51.5 25.5q-19 0 -50.5 -4t-47.5 -4q-22 0 -22 14q0 16 26 16q69 0 172 18q37 7 69.5 16l49.5 14t28 5q13 0 13 -8q0 -5 -4 -8.5t-15 -8.5t-18 -9q-30 -18 -30 -77
q0 -62 12 -140q6 -36 6 -46q0 -12 -8 -12q-6 0 -31 14.5t-42 14.5q-19 0 -44.5 -13.5t-50.5 -29.5t-74.5 -29.5t-110.5 -13.5q-130 0 -217 83.5t-87 218.5q0 120 52 201t133 123q90 48 195 48z" />
    <glyph glyph-name="H" unicode="H" horiz-adv-x="743" 
d="M43 876q9 0 31 -7.5l57 -19t67 -18.5q33 -7 76 -11.5t82 -7.5l39 -2q15 -2 15 -9q0 -9 -14 -9q-5 0 -31 1.5t-44 1.5q-36 0 -53 -14t-18 -49q-2 -27 -2 -152q0 -149 1 -164q1 -24 9 -32t24 -8q36 0 112 8t104 13q30 5 39 27t9 62q0 63 -15 153q-8 53 -50 53q-12 0 -34 -1
t-27 -1q-20 0 -20 14q0 15 24 16q95 5 154 18q16 4 50.5 14t59.5 16t38 6q17 0 17 -11q0 -12 -18 -12q-32 0 -45 -11q-19 -15 -24 -50q-6 -42 -9 -211q-6 -141 -6 -361q0 -65 1 -86q2 -44 34 -56q5 -2 49 -11q11 -2 11 -9q0 -9 -19 -9q-5 0 -54.5 4t-72.5 4q-30 0 -77 -5.5
t-61 -5.5q-32 0 -32 16q0 12 21 12q63 3 82 12q37 18 37 70q0 25 -7.5 129t-13.5 140q-4 27 -13.5 35t-28.5 8q-29 0 -115 -10t-104 -17q-12 -4 -18.5 -12t-7 -13.5l-1.5 -16.5q0 -28 1.5 -155t1.5 -160q0 -29 5.5 -46.5t12 -23t19.5 -13.5q2 -1 6.5 -3t6.5 -3.5t5 -3.5
t4 -4t1 -4q0 -7 -11 -7q-7 0 -46.5 9t-83.5 9q-46 0 -98 -11t-57 -11q-18 0 -18 13q0 10 15 17q1 0 26 5t44 10q20 5 30 17t11.5 20t2.5 27q0 4 1.5 58.5t3.5 134t3 134.5q0 2 0.5 64.5t0.5 112.5q0 231 -6 271q-5 29 -15.5 45.5t-32.5 29.5l-16.5 9l-15.5 8t-11.5 6.5
t-8 6.5t-2.5 7q0 10 13 10z" />
    <glyph glyph-name="I" unicode="I" horiz-adv-x="439" 
d="M448 846q49 0 49 -18t-45 -18q-56 0 -85 -8q-34 -9 -55.5 -37t-32.5 -83q-20 -95 -39.5 -318t-19.5 -364q0 -33 9 -52.5t16.5 -23.5t19.5 -7q18 -5 61 -5q24 0 24 -13q0 -16 -30 -16q-6 0 -22.5 0.5t-27.5 0.5q-49 0 -106 -8q-46 -7 -116.5 -32.5t-84.5 -25.5
q-13 0 -13 11q0 9 12 13q1 0 29 10l56 20.5t39 17.5q27 16 38 39t14 61q5 87 5 352q0 212 -3 311q-1 66 -13 92.5t-34 40.5q-29 19 -89 19q-21 0 -21 14q0 16 30 16q13 0 81 -4.5t110 -4.5q41 0 125.5 10t118.5 10z" />
    <glyph glyph-name="J" unicode="J" horiz-adv-x="629" 
d="M666 917q13 0 13 -9q0 -10 -26 -20q-4 -1 -18 -6t-29 -11t-30 -14q-56 -32 -64 -108q-4 -35 -4 -132q0 -213 -26 -416q-8 -64 -23.5 -125t-43 -122.5t-63.5 -107t-87.5 -74t-111.5 -28.5q-70 0 -109 43t-39 104q0 68 38.5 101.5t86.5 33.5q47 0 74.5 -22.5t27.5 -63.5
q0 -37 -18.5 -58t-49.5 -21q-13 0 -34 5t-31 5q-38 0 -38 -38q0 -32 25.5 -51t64.5 -19q57 0 102 38t72 97.5t45 140.5t24.5 159t6.5 160q0 154 -13.5 264.5t-34.5 143.5q-26 40 -104 40q-25 0 -25 14q0 12 21 15q127 4 205 21q49 10 97 25.5l77 25.5t42 10z" />
    <glyph glyph-name="K" unicode="K" horiz-adv-x="866" 
d="M438 809q9 0 42 -16t76 -25t128 -9q39 0 39 -15q0 -16 -25 -16q-6 0 -22.5 1t-26.5 1q-79 0 -130 -53q-25 -25 -73.5 -82.5t-48.5 -67.5q0 -13 17 -57t50.5 -104t75.5 -116t99.5 -95t114.5 -39q43 0 66.5 25t23.5 65t-22 72q-9 13 -19.5 23.5t-15.5 16t-5 11.5
q0 12 12 12q29 0 61 -43.5t32 -105.5q0 -20 -4.5 -40.5t-16.5 -43t-30.5 -39.5t-50.5 -28t-73 -11q-169 0 -310 203q-61 88 -105 203l-54 -67q5 -257 9 -294q8 -82 76 -111q36 -16 36 -22t-11 -6q-17 0 -78 20.5t-102 20.5q-14 0 -34 -1.5t-29 -1.5q-27 0 -27 11q0 5 7.5 8
l21 8.5t23.5 15.5q15 15 15 71q0 59 -15 292t-20 293q-3 33 -9.5 50t-21.5 26q-16 11 -54 11q-21 0 -21 12t17 14q23 3 71 3.5t81 5.5q41 6 72 16t46 17t23 7q10 0 10 -9q0 -8 -16 -15q-29 -14 -36 -19q-35 -22 -38 -87q-1 -6 -1 -50q0 -33 2.5 -108.5t2.5 -116.5v-18
l106.5 118.5t99.5 117.5q32 42 32 68q0 20 -13 35q-6 7 -17.5 17.5t-17.5 17.5t-6 12q0 11 11 11z" />
    <glyph glyph-name="L" unicode="L" horiz-adv-x="660" 
d="M39 754q20 -1 85.5 -15t122.5 -18q41 -3 64 -3q19 0 51 2.5t55 2.5q37 0 37 -16q0 -13 -25 -15q-6 -1 -21.5 -2t-22.5 -2q-15 -2 -25 -6t-19.5 -16t-13.5 -32q-12 -71 -26 -245t-14 -239q0 -54 34 -65q26 -8 89 -8q81 0 113 27t32 86q0 39 -12.5 95.5t-12.5 63.5
q0 13 8 13q10 0 17 -18q8 -22 21 -66t24 -77l21 -58t18 -51t5 -25q0 -16 -47 -16q-213 0 -344 -7q-44 -3 -99.5 -11t-85.5 -8q-26 0 -26 13q0 9 19 13q53 8 73 16q37 15 43 87q3 47 3 131q0 211 -7 313q-5 77 -37 99q-18 13 -74 23q-42 7 -42 20q0 14 19 14z" />
    <glyph glyph-name="M" unicode="M" horiz-adv-x="1090" 
d="M278 495q-9 55 -50 78q-7 4 -45 17q-18 6 -18 18q0 14 19 14q9 0 39 -7t66 -10q23 -2 45.5 -2.5t32 -1t16.5 -3.5q25 -11 131 -157t116 -146q12 0 101 180q17 35 47.5 104t49.5 107t26 40q2 1 11 1q3 0 24.5 -0.5t40.5 -0.5q23 0 49 4t32 4q17 0 17 -10q0 -8 -15 -13
q-4 -1 -38 -8.5t-59 -16.5q-35 -12 -35 -69q0 -82 43 -276t78 -240q16 -22 35 -32.5t56 -20.5q27 -8 27 -19q0 -16 -33 -16q-12 0 -42.5 1.5t-49.5 1.5q-66 0 -144.5 -20.5t-97.5 -20.5q-16 0 -16 11q0 9 13.5 14.5t39.5 12t43 14.5q32 14 32 52q0 27 -21 131.5t-43 196.5
t-25 92q-4 0 -42.5 -77.5l-78.5 -161t-45 -91.5q-31 -58 -40 -58q-12 0 -36 45l-179 318q-29 52 -37 52q-4 0 -4 -8q0 -17 4 -45q8 -84 8 -168q0 -58 -9.5 -114.5t-32 -114t-68 -93t-108.5 -35.5q-50 0 -79 29.5t-29 70.5q0 31 17 53t51 22q18 0 34 -9.5t23.5 -18.5
t18.5 -24q21 -28 45 -28q30 0 51.5 27.5t31.5 73t14.5 89.5t4.5 91q0 86 -13 171z" />
    <glyph glyph-name="N" unicode="N" horiz-adv-x="800" 
d="M232 717q8 -3 20.5 -13.5t30 -29.5l34.5 -37.5l43 -47.5l46 -51l52.5 -58.5l51.5 -58.5l42 -47t35.5 -35t21.5 -12q10 0 15 54t5 105q0 105 -14 136q-11 23 -30 32t-64 14q-25 3 -25 15q0 11 17 11q3 0 39 -2t62 -2q41 0 102.5 12.5t68.5 12.5q15 0 15 -12t-19 -16
q-47 -10 -61 -15q-37 -12 -47 -69q-10 -55 -18 -412q-3 -152 -15 -152q-14 0 -106.5 114.5t-134.5 174.5l-86.5 119l-58 77.5t-46 56.5t-19.5 14q-7 0 -7 -183q0 -75 0.5 -197t0.5 -133q0 -161 20 -200q28 -53 91 -72q22 -7 22 -15q0 -9 -15 -9q-11 0 -29 4.5t-43 12
t-42 11.5q-37 9 -73 9q-18 0 -47 -2t-30 -2q-27 0 -27 11q0 10 23 10q39 0 65 17q39 26 46 94q7 63 7 188q0 10 -0.5 33.5t-0.5 37.5q0 391 -23 438q-7 14 -23 20.5t-30 7.5t-46 2q-28 0 -28 17q0 15 19 15h42q30 0 75 3l38.5 4t39.5 3q12 0 18 -3z" />
    <glyph glyph-name="O" unicode="O" horiz-adv-x="747" 
d="M357 762q172 0 278 -103t106 -266q0 -71 -22.5 -136t-65.5 -118t-114 -84.5t-161 -31.5q-179 0 -276 103.5t-97 272.5q0 159 98.5 261t253.5 102zM337 737q-95 0 -151.5 -83t-56.5 -223q0 -66 13.5 -129t41.5 -121.5t81 -94.5t123 -36q56 0 98 23t65.5 63t35 87t11.5 100
q0 56 -6.5 109t-25 110t-46.5 99t-75 69t-108 27z" />
    <glyph glyph-name="P" unicode="P" horiz-adv-x="623" 
d="M437 748q34 0 64 -7.5t59 -25.5t46 -54.5t17 -87.5q0 -70 -24 -121t-62.5 -76t-76 -35.5t-75.5 -10.5q-55 0 -94 11q2 -132 2 -170q3 -137 28 -193q26 -59 114 -76q3 -1 9 -2t9.5 -1.5t8 -1.5t7.5 -2t5.5 -2.5t4 -3.5t1.5 -4q0 -13 -25 -13q-15 0 -93 15t-129 15
q-58 0 -125 -12l-68 -13q-16 0 -16 10q0 6 10.5 10.5t31 11t35.5 14.5q48 26 63 96q9 43 18 182.5t9 231.5q0 135 -18 176q-9 19 -23 31.5t-34.5 18.5t-35.5 8.5t-39 3.5q-24 0 -32.5 3.5t-8.5 12.5q0 14 25 14q3 0 34 -1.5t56 -1.5q55 0 111 7q47 6 108 24.5t103 18.5z
M297 599q-6 -65 -6 -232q31 -9 82 -9q68 0 101 59.5t33 145.5q0 71 -26 116t-85 45q-86 0 -99 -125z" />
    <glyph glyph-name="Q" unicode="Q" horiz-adv-x="804" 
d="M399 773q72 0 140 -24t125 -69t91.5 -120t34.5 -169q0 -179 -85 -292q38 -74 75 -195q41 -131 88 -190.5t119 -59.5q84 0 123 104q8 21 13 44t7.5 31.5t7.5 8.5q7 0 7 -21t-4 -47.5t-18 -66t-37 -70t-66.5 -53t-100.5 -22.5q-44 0 -80 13t-61.5 31.5t-46.5 52t-33.5 61.5
t-25 74t-18 75.5l-14.5 79.5t-14 74q-101 -70 -240 -70q-75 0 -143 27t-121.5 77t-85 129.5t-31.5 177.5q0 180 110.5 294.5t283.5 114.5zM512 258q79 0 139 -73q16 69 16 146q0 105 -34 195.5t-107.5 151t-174.5 60.5q-98 0 -164.5 -87.5t-66.5 -228.5q0 -150 67 -268.5
t186 -146.5q-4 26 -4 58q0 49 11.5 89.5t45 72t86.5 31.5zM437 0q116 0 173 88q-17 61 -45 94t-73 33q-37 0 -59 -28.5t-28 -61.5t-6 -72q0 -41 2 -51q12 -2 36 -2z" />
    <glyph glyph-name="R" unicode="R" horiz-adv-x="869" 
d="M407 687q56 0 96 -16.5t60.5 -44t29.5 -56.5t9 -61q0 -61 -30 -116t-82 -76l-20 -8q46 -136 125 -204t167 -68q49 0 78.5 25.5t29.5 71.5q0 21 -3 35.5t-6 22t-3 10.5q0 6 5 6q10 0 23 -27t13 -56q0 -78 -45.5 -126t-133.5 -48q-72 0 -133 27.5t-98 64t-67.5 88t-43 84
t-23.5 67.5q-29 -3 -51 -3q-31 0 -38 2q7 -193 25 -234q12 -27 36 -43t42 -23t18 -12q0 -6 -14 -6q-17 0 -77 14.5t-101 14.5q-18 0 -54 -2t-51 -2q-59 0 -59 19q0 14 19 14q9 0 22.5 -0.5t20.5 -0.5q51 0 70.5 18.5t19.5 78.5q0 68 -12.5 212t-33.5 206q-8 23 -19.5 37.5
t-29.5 21.5t-31 9.5t-39 4.5q-18 2 -18 13q0 14 20 15q9 1 46 1q68 0 135 8q41 4 105.5 23t100.5 19zM264 376l1 -70q108 1 162 56.5t54 145.5q0 75 -27.5 113.5t-79.5 38.5q-41 0 -66 -27.5t-33 -74.5q-11 -68 -11 -182z" />
    <glyph glyph-name="S" unicode="S" horiz-adv-x="517" 
d="M316 775q41 0 82 -16t47 -16q4 0 7 1.5t5.5 5.5l4.5 7.5t3.5 9t3 9.5t3 10.5t2.5 9.5q7 27 17 27q8 0 8 -14q0 -8 -2.5 -22.5t-7.5 -39.5t-8 -51q-4 -30 -5.5 -63t-3.5 -44.5t-7 -11.5q-6 0 -13 33q-4 20 -8 34.5t-14 37t-23 36.5t-35.5 24.5t-51.5 10.5
q-46 0 -71.5 -27.5t-25.5 -80.5q0 -39 31 -87t75.5 -97.5l88.5 -102.5t75 -118t31 -128q0 -111 -67 -170.5t-167 -59.5q-41 0 -78 13.5t-64 27t-45 13.5q-21 0 -46 -26.5t-28 -26.5q-6 0 -6 9q0 1 4.5 35t4.5 63q0 52 -20.5 134t-20.5 88q0 12 9 12q12 0 27 -38
q36 -94 69 -149q73 -125 190 -125q56 0 85.5 38t29.5 88q0 65 -28.5 127.5t-69.5 112.5l-81.5 98t-69 103.5t-28.5 110.5q0 52 19.5 90t50 57.5t61.5 28.5t61 9z" />
    <glyph glyph-name="T" unicode="T" horiz-adv-x="659" 
d="M53 872q15 0 56.5 -8.5t62.5 -10.5q126 -17 249 -17q80 0 149 11t84 11q20 0 27.5 -9t7.5 -28q0 -34 -5 -86.5t-14.5 -96t-18.5 -42.5q-7 0 -13 80q-3 60 -23.5 89.5t-69.5 38.5q-28 6 -104 6v-630q0 -64 11.5 -103.5t23.5 -51.5t30 -20q16 -7 81 -12q42 -2 42 -13
q0 -19 -51 -19q-16 0 -48 1t-49 1q-136 0 -278 -82q-30 -18 -41 -18q-6 0 -6 6t11.5 16t35 28t41.5 34q46 43 61.5 87t18.5 118l33 659q-61 1 -125 1q-50 0 -79 -6t-42.5 -22t-16.5 -32t-3 -47q0 -64 23 -147q9 -38 9 -39q0 -9 -7 -9q-24 0 -71 174q-3 9 -4 13
q-21 83 -21 133q0 21 7 31.5t26 10.5z" />
    <glyph glyph-name="U" unicode="U" horiz-adv-x="691" 
d="M414 788q13 0 13 -10q0 -13 -30 -27q-56 -26 -83 -60q-51 -62 -51 -240q0 -351 158 -351q74 0 114 71t40 161q0 177 -30 219q-15 21 -41.5 33.5t-76.5 20.5q-42 6 -42 22t32 16q16 0 67 -6t86 -6q31 0 84 7.5t68 7.5q29 0 29 -11q0 -9 -25 -11q-58 -4 -77 -17
q-11 -7 -18 -19q-12 -20 -16.5 -57t-5 -101t-1.5 -87q-2 -32 -6 -62.5t-18 -76.5t-36 -79.5t-62.5 -58t-94.5 -24.5q-88 0 -148.5 50.5t-88.5 136.5q-27 81 -29 263q-2 68 -10 103.5t-31 48.5q-25 15 -65 15q-19 0 -19 14q0 11 16 14q16 2 54 7.5t69.5 10.5t62.5 13
q54 13 103 31t74.5 28.5t34.5 10.5z" />
    <glyph glyph-name="V" unicode="V" horiz-adv-x="799" 
d="M425 784q10 0 10 -6q0 -7 -22 -16q-48 -17 -77 -34q-18 -10 -18 -30q0 -27 32 -101t65 -135q39 -77 82.5 -150t54.5 -73q14 0 58 117q40 115 40 163q0 21 -15 27t-47 6q-8 0 -23.5 -0.5t-22.5 -0.5q-22 0 -22 13q0 11 22 14q2 0 14 1l23.5 2t30 4t35.5 7t38 11t39 16
q40 19 73 43.5t49.5 38.5t24.5 14q10 0 10 -10q0 -8 -17.5 -25l-53.5 -53t-67 -77q-15 -21 -33.5 -55.5t-30 -58.5t-35 -78l-30.5 -70q-35 -77 -64.5 -151l-39.5 -98t-16 -24q-13 0 -77 149q-4 8 -31.5 75.5l-50.5 121.5t-55.5 123t-57.5 108q-41 68 -95 87q-31 11 -77 14
q-44 3 -44 19q0 18 39 18q13 0 42 -1.5t49 -1.5q58 0 125.5 14.5t113.5 28.5t52 14z" />
    <glyph glyph-name="W" unicode="W" horiz-adv-x="1120" 
d="M286 635q8 0 8 -8q0 -4 -27 -42t-27 -64q0 -55 45 -164q11 -31 42.5 -97t40.5 -66t60 89q9 17 14 25l31.5 56l26 48t18.5 32.5t15.5 23t8.5 6.5q7 0 23 -21.5t69 -102.5l31 -47l18.5 -29l29.5 -45.5l30 -44t29 -38t17 -13.5q14 0 72 122q18 37 48 106.5t65.5 168
t35.5 133.5q0 25 -32 41q-16 8 -33 15.5l-27 12t-19 9t-13 8.5t-4 9q0 11 13 11q7 0 25.5 -6.5t57 -17t87.5 -17.5q60 -8 115 -8q12 0 26 0.5t16 0.5q24 0 24 -13q0 -17 -38 -17q-53 0 -76 -6.5t-44 -30.5q-20 -23 -53.5 -93t-78.5 -173.5t-68 -151.5q-7 -14 -51 -112
t-72 -153t-38 -55q-13 0 -75 135l-64.5 146.5l-55 125.5t-23.5 38q-11 0 -115 -208l-73 -139q-12 -22 -21 -22q-8 0 -16 18q-16 39 -59 157q-12 34 -29 89.5t-27.5 85.5t-26.5 63t-36 47.5t-46 14.5q-17 0 -42 -4t-31 -4q-17 0 -17 12q0 9 16 16q6 2 31 7t56.5 15t64.5 26
q45 23 79.5 48t49 38.5t19.5 13.5z" />
    <glyph glyph-name="X" unicode="X" horiz-adv-x="868" 
d="M444 770q13 0 13 -9q0 -6 -9 -12t-19.5 -10.5t-19.5 -16t-9 -28.5q0 -52 50 -141q16 -34 49.5 -85.5t46.5 -51.5q20 0 74 87q43 68 43 104q0 18 -29 39q-7 5 -21 13.5t-20 13t-6 9.5q0 7 7 7q6 0 19.5 -7.5t39 -20.5t53.5 -22q39 -13 91 -21q28 -6 28 -13q0 -8 -13 -8
q-5 0 -23.5 3t-29.5 3q-25 0 -42 -13q-28 -21 -85 -109.5t-57 -107.5q0 -23 50 -111.5t89 -149.5q24 -37 46.5 -57.5t62.5 -36.5q8 -4 18.5 -7.5l16.5 -5.5t12 -5t8.5 -5.5t2.5 -5.5q0 -10 -25 -10q-12 0 -88.5 11t-143.5 11q-29 0 -74 -2t-54 -2q-27 0 -27 13q0 12 25 14
h23t38.5 1t34.5 4q30 5 30 17q0 19 -65 124q-6 9 -14.5 23l-14.5 23.5l-14 22l-13.5 20.5l-12 17.5t-11 15.5l-9 11.5t-8 8t-5.5 2.5q-7 0 -39.5 -41t-64.5 -92q-47 -72 -47 -109q0 -26 19 -47q6 -6 17 -13.5t17.5 -13.5t6.5 -11q0 -10 -12 -10q-11 0 -61 20.5t-86 29.5
q-46 11 -143 13q-29 0 -29 12q0 13 32 13q71 0 118 15q41 14 68.5 38t59.5 67q4 6 21.5 30l29 40.5l26 38.5t22 38t7.5 24q0 29 -62 129t-124 155q-69 61 -206 61q-23 0 -23 12t21 12q11 0 36 -0.5t40 -0.5q70 0 145 8q47 5 92.5 14.5t73 16.5t36.5 7z" />
    <glyph glyph-name="Y" unicode="Y" horiz-adv-x="797" 
d="M358 849q0 -6 -9.5 -11.5t-31.5 -14t-36 -15.5q-22 -10 -22 -31q0 -7 3.5 -16t11 -20.5l14 -21t19 -24.5l18.5 -22.5l19 -23t16 -18.5q32 -40 74.5 -81t58.5 -42q18 -2 110 116q76 96 76 123q0 18 -48 35q-21 7 -21 17q0 9 12 9q7 0 44.5 -12.5t77.5 -18.5q59 -8 120 -8
q23 0 23 -10q0 -12 -26 -12q-2 0 -16 0.5t-25 0.5q-65 0 -91 -17q-9 -5 -18.5 -14t-22.5 -25l-19.5 -24t-24 -31.5t-21.5 -28.5q-59 -78 -86 -122q-21 -33 -28.5 -58.5t-7.5 -64.5q0 -187 16 -331q8 -73 40 -99q7 -6 21.5 -13.5t23.5 -14t9 -13.5q0 -9 -13 -9
q-12 0 -72 16.5t-106 21.5t-97 5q-18 0 -39 -0.5t-24 -0.5q-29 0 -29 13q0 10 13 14t41.5 8t46.5 9q23 8 33.5 24.5t16.5 45.5q21 92 21 242q0 60 -8 94q-13 54 -120 193t-151 174q-35 27 -91 37q-23 3 -23 14q0 12 25 12q77 0 145 10q46 7 84 17.5t57 17.5t27 7q10 0 10 -8
z" />
    <glyph glyph-name="Z" unicode="Z" horiz-adv-x="628" 
d="M98 -112q-2 6 -2 9q0 27 50 179q30 91 89.5 315.5t59.5 243.5q0 5 -23.5 8.5t-52.5 3.5q-74 0 -109 -42q-15 -19 -23.5 -49.5t-12.5 -63.5l-3 -33q-3 -20 -12 -20t-9 22q0 19 5 82t5 87q0 27 -2 56t-2 34q0 10 4 10q2 0 10.5 -5.5t24.5 -13t39 -15.5t62 -13.5t85 -5.5
q61 0 125 13l63 12q8 0 8 -8t-30 -96q-11 -31 -64.5 -172.5t-86.5 -237.5q-77 -230 -77 -240q0 -7 15 -7q32 0 102.5 12.5t117.5 29.5q34 12 57 31t33 44.5t13.5 48t3.5 52.5q0 18 -3.5 54.5t-3.5 46.5q0 16 6 16q4 0 7.5 -6t7.5 -20t7.5 -28.5t9.5 -41.5t12 -49
q10 -37 23.5 -82.5t19.5 -68t6 -31.5q0 -8 -8 -8q-4 0 -50.5 6.5t-81.5 6.5q-90 0 -328 -55q-66 -16 -72 -16q-10 0 -15 5z" />
    <glyph glyph-name="bracketleft" unicode="[" horiz-adv-x="344" 
d="M129 814q26 0 175 -28q30 -6 30 -16q0 -7 -16 -7t-47 4.5t-42 4.5q-25 0 -35 -9q-41 -35 -54 -375q-9 -194 -9 -319q0 -157 17 -191q19 -36 91 -36q7 0 23 0.5t21 0.5q38 0 38 -19q0 -22 -114 -22q-51 0 -77 3q-33 4 -50.5 7.5t-37.5 14t-24 27.5q-7 22 -7 90q0 31 4 131
l10 156q9 115 28 284t29 221q8 45 18 61.5t29 16.5z" />
    <glyph glyph-name="backslash" unicode="\" horiz-adv-x="347" 
d="M21 948q7 0 13.5 -8.5t13 -25.5t10.5 -28.5t10 -32.5t6 -23q2 -8 48.5 -176.5l67.5 -240.5q147 -493 147 -532q0 -15 -11 -15q-15 0 -36 65q-57 173 -136 467l-116 419q-27 93 -27 116q0 15 10 15z" />
    <glyph glyph-name="bracketright" unicode="]" horiz-adv-x="335" 
d="M239 692q18 0 22 -27q13 -104 36 -358q27 -315 27 -357q0 -20 -4.5 -29t-18.5 -17q-11 -6 -54 -23.5t-78 -34.5l-32 -17l-36 -18.5l-31.5 -15.5t-28 -12.5t-17.5 -4.5q-14 0 -14 11q0 8 8 14q5 4 37.5 19.5t62 36t42.5 44.5q21 39 21 164q0 24 -4 160q-9 295 -20 388
q-2 19 -21 19q-12 0 -41 -5t-37 -5q-17 0 -17 11q0 5 5 9t16 7.5t21.5 6t29 6.5t30.5 7q80 21 96 21z" />
    <glyph glyph-name="asciicircum" unicode="^" horiz-adv-x="658" 
d="M308 787q7 0 19 -16.5t41 -51t67 -66.5q37 -30 81 -53t68 -33t24 -14q0 -14 -35 -14q-31 0 -85 17.5t-97 40.5q-21 11 -46 25.5t-37.5 21t-18.5 6.5q-3 0 -98.5 -48.5t-128.5 -48.5q-12 0 -12 8q0 7 13.5 14.5l45 25t61.5 41.5q42 33 73 70t44.5 56t20.5 19z" />
    <glyph glyph-name="underscore" unicode="_" horiz-adv-x="678" 
d="M584 -238q44 0 44 -22q0 -23 -40 -23q-13 -1 -109 -3t-172 -7q-11 -1 -105 -8.5t-124 -7.5q-28 0 -28 13q0 12 28 19q50 11 224 24q225 15 282 15z" />
    <glyph glyph-name="grave" unicode="`" horiz-adv-x="279" 
d="M84 945q35 0 85 -80q59 -89 59 -113q0 -13 -10 -13q-11 0 -41.5 25t-60.5 57q-66 66 -66 92q0 16 10 24t24 8z" />
    <glyph glyph-name="a" unicode="a" horiz-adv-x="528" 
d="M151 352q-38 0 -62.5 28.5t-24.5 81.5q0 67 37.5 114t111.5 47q38 0 68 -13t48 -30.5t32.5 -45.5t21 -48.5t13.5 -49.5q7 -31 33 -191t29 -175q4 -20 7 -31.5t9 -27t14.5 -23t20.5 -7.5q27 0 27 41q0 6 -0.5 18.5t-0.5 16.5q0 18 10 18q16 0 16 -48q0 -46 -15 -80
q-20 -47 -77 -47q-69 0 -102 68q-20 38 -32 118q-22 -37 -67 -71t-107 -34q-73 0 -109.5 38.5t-36.5 99.5q0 70 53 121.5t163 51.5q39 0 79 -9q-4 56 -7 84q-17 134 -21 151q-8 38 -30.5 60t-57.5 22q-36 0 -57 -23t-21 -52q0 -19 14 -33t31.5 -21.5t31.5 -24.5t14 -41
t-16 -38.5t-40 -14.5zM314 253q-29 13 -84 13q-54 0 -87.5 -30t-33.5 -85q0 -47 27.5 -67t64.5 -20q43 0 79.5 22t48.5 37l-6 60q-2 13 -4 29l-3.5 27t-1.5 14z" />
    <glyph glyph-name="b" unicode="b" horiz-adv-x="582" 
d="M152 1093q1 -14 4.5 -125.5t5.5 -155.5q10 -238 24 -412q78 95 187 95q87 0 140 -57t53 -150q0 -217 -203 -244q-23 -3 -85 -5.5t-109 -11.5q-27 -5 -87 -25t-76 -20q-14 0 -14 11q0 10 17 15q54 16 72 42t18 81q0 59 -11 354.5t-18 358.5q-5 51 -22.5 67t-52.5 16
q-16 0 -35.5 -1.5t-25.5 -1.5q-14 0 -14 9q0 10 18 13q94 15 135 53q24 22 37.5 53.5t19.5 50.5t12 19q7 0 10 -29zM317 443q-70 0 -127 -77q11 -143 24 -203q22 -96 100 -96q51 0 83 29.5t42 67.5t10 87q0 78 -31 135t-101 57z" />
    <glyph glyph-name="c" unicode="c" horiz-adv-x="438" 
d="M330 430q-32 0 -52.5 20.5t-20.5 60.5q0 77 -51 77q-43 0 -76.5 -53t-33.5 -145q0 -118 46.5 -185t129.5 -67q52 0 82.5 33.5t30.5 82.5q0 29 -9.5 51.5t-19.5 35.5t-10 18q0 7 8 7q19 0 43.5 -33.5t24.5 -81.5q0 -86 -53 -134t-138 -48q-97 0 -156.5 70.5t-59.5 191.5
q0 57 19 111.5t49 89.5q73 90 184 90q57 0 95 -30t38 -78q0 -43 -21 -63.5t-49 -20.5z" />
    <glyph glyph-name="d" unicode="d" horiz-adv-x="524" 
d="M447 991q6 0 6 -26q0 -139 -7 -374q-8 -378 -8 -423q0 -43 12 -60.5t35 -25.5q13 -5 30 -7t25 -4t8 -8q0 -11 -33 -11q-7 0 -45.5 2.5t-67.5 2.5q-21 0 -76.5 -6t-101.5 -6q-95 0 -153.5 47.5t-58.5 146.5q0 89 61.5 142t151.5 53q70 0 125 -22q0 83 -3 185l-5 170l-3 68
q-3 34 -13 38q-2 1 -5 1q-10 0 -35.5 -10t-35.5 -10q-12 0 -12 9t18 18q4 2 18.5 7t36 15t48.5 26q25 15 46 31t29.5 23.5t12.5 7.5zM354 183q0 106 -3 199q-36 18 -86 18q-64 0 -99 -42t-35 -115q0 -78 34 -123t98 -45q52 0 75 32q16 22 16 76z" />
    <glyph glyph-name="e" unicode="e" horiz-adv-x="434" 
d="M400 259q18 -30 18 -69q0 -71 -45 -111t-123 -40q-110 0 -172 70t-62 184q0 58 15.5 107t40.5 82.5t57.5 57t66 34t65.5 10.5q62 0 110 -34t48 -108q0 -41 -15 -73t-37.5 -50.5t-51 -31t-53 -16.5t-47.5 -4q-51 0 -82 11q4 -83 42.5 -139t108.5 -56q49 0 74.5 31t25.5 77
q0 31 -8 52q-7 18 -7 24q0 10 9 10q12 0 22 -18zM131 310q31 -9 69 -9q57 0 93.5 41t36.5 107q0 56 -22 80.5t-55 24.5q-47 0 -84.5 -57.5t-37.5 -186.5z" />
    <glyph glyph-name="f" unicode="f" horiz-adv-x="300" 
d="M331 1125q60 0 100.5 -38.5t40.5 -116.5q0 -74 -35 -119t-90 -45q-35 0 -55.5 20.5t-20.5 50.5q0 54 61 77q70 28 70 84q0 26 -18.5 48t-61.5 22t-72 -32.5t-42 -86.5t-17.5 -100t-4.5 -95q0 -26 1 -39t5.5 -31.5t15.5 -26.5t29 -8q22 0 60.5 9t47.5 9q14 0 14 -10
q0 -13 -28 -18q-3 -1 -35.5 -5t-61.5 -11q-22 -5 -32 -18q-7 -12 -7 -45q0 -31 8 -293.5t12 -292.5q5 -63 43 -74q7 -2 62 -10q27 -3 27 -16q0 -19 -42 -19q-6 0 -30.5 0.5t-40.5 0.5q-53 0 -100.5 -14t-78 -27.5t-43.5 -13.5q-11 0 -11 9q0 10 22 19q45 18 61.5 42t17.5 78
q1 15 1 131q0 270 -5 477q-1 25 -9 32.5t-31 7.5q-15 0 -48 -3t-40 -3q-19 0 -19 11t23 14q71 9 77 10q24 4 37.5 20t18.5 34.5t9 46.5q1 7 1 10q10 73 24.5 129.5t39 109t62.5 81t88 28.5z" />
    <glyph glyph-name="g" unicode="g" horiz-adv-x="568" 
d="M486 593q48 0 78 -28t30 -69q0 -39 -18.5 -61t-50.5 -22q-27 0 -44.5 16t-17.5 44q0 11 4 28.5t4 24.5q0 29 -32 29q-38 0 -61 -41q-11 -20 -11 -33q0 -5 7 -11l20 -17t23 -22q41 -45 41 -104q0 -55 -18.5 -94.5t-51 -59.5t-67.5 -28.5t-76 -8.5h-19q-71 -12 -71 -58
q0 -17 13 -29t37.5 -18.5t48 -10.5t57.5 -8t52 -8q79 -16 126.5 -53t47.5 -111q0 -60 -39 -108.5t-102 -76.5q-80 -37 -182 -37q-99 0 -162 44t-63 127q0 141 196 217q-40 4 -68.5 21.5t-28.5 50.5q0 48 79 67q-59 16 -95 58t-36 109q0 85 56 134.5t140 49.5q19 0 49 -4
t36 -4q24 0 35 18q25 40 54.5 63.5t79.5 23.5zM266 467q-42 0 -72 -40.5t-30 -125.5q0 -69 27 -105.5t63 -36.5q37 0 69.5 38t32.5 130q0 68 -24 104t-66 36zM113 -180q0 -74 42.5 -122.5t117.5 -48.5q83 0 125.5 47.5t42.5 116.5q0 135 -134 171q-40 10 -82 14
q-44 -27 -78 -72t-34 -106z" />
    <glyph glyph-name="h" unicode="h" horiz-adv-x="567" 
d="M224 1070q11 0 11 -12q0 -7 -3 -25t-8.5 -55.5t-9.5 -83.5q-23 -232 -31 -543q18 53 57.5 91t95.5 38q44 0 81.5 -24.5t53.5 -83.5q12 -50 12 -128q0 -16 -1 -58t-1 -66q0 -28 8 -42t18.5 -17.5t30.5 -4.5q29 -2 29 -15q0 -14 -25 -14q-11 0 -42.5 4.5t-52.5 4.5
q-28 0 -78 -12.5t-59 -12.5q-11 0 -11 8q0 6 14 11q20 6 31 13q19 12 24 47q6 49 6 140q0 77 -5 108q-13 89 -72 89q-49 0 -78 -66q-19 -41 -33 -123.5t-14 -151.5q0 -16 3.5 -26t12 -16t17 -9t24.5 -7q15 -3 15 -12q0 -11 -17 -11q-16 0 -72.5 10.5t-85.5 10.5
q-20 0 -48 -2.5t-36 -2.5q-21 0 -21 13q0 12 15 12q3 0 10.5 -0.5t11.5 -0.5q35 0 52 19t26 71q12 66 32.5 344.5t20.5 359.5q0 27 -5 45.5t-13.5 26.5t-16.5 10.5t-19 2.5q-12 0 -40 -5.5t-39 -5.5q-14 0 -14 12q0 10 16 16q3 1 24 7.5l32 10t31.5 13t40.5 20.5
q27 16 47.5 36t30 31t17.5 11z" />
    <glyph glyph-name="i" unicode="i" horiz-adv-x="302" 
d="M155 783q29 0 46 -15.5t17 -42.5q0 -34 -19 -49.5t-44 -15.5q-23 0 -41 14.5t-18 45.5q0 32 18.5 47.5t40.5 15.5zM224 623q5 0 5 -11q0 -22 -6 -60q-11 -88 -22 -218t-11 -166q0 -41 21 -58q19 -12 53 -16q23 -3 23 -9q0 -10 -21 -10q-18 0 -59.5 7.5t-67.5 7.5
t-57.5 -3.5t-42.5 -3.5q-22 0 -22 11q0 9 23 14q17 3 26 6.5t18 14t11 27.5q5 60 5 210q0 76 -1 87q-1 25 -4.5 39t-14.5 21t-20.5 9t-32.5 4q-12 2 -12 11t15 11q64 4 114 25q25 10 43 23t26 20t11 7z" />
    <glyph glyph-name="j" unicode="j" horiz-adv-x="367" 
d="M208 641q25 0 42 -16.5t17 -44.5q0 -24 -16.5 -42.5t-44.5 -18.5q-24 0 -41 15.5t-17 42.5q0 32 17.5 48t42.5 16zM280 459q12 0 20 -19t17 -74q29 -165 29 -338q0 -116 -15 -207.5t-41 -151t-62.5 -99t-76 -56t-84.5 -16.5q-88 0 -133.5 53t-45.5 130q0 79 40 124.5
t94 45.5q41 0 61 -21.5t20 -52.5q0 -63 -69 -78q-49 -10 -70.5 -27.5t-21.5 -52.5q0 -40 34 -68.5t87 -28.5q197 0 197 365q0 141 -21 253.5t-48 170.5q-27 62 -81 88q-10 5 -73 26q-14 5 -14 11q0 8 11 8q1 0 38 -3.5t67 -3.5q47 0 91.5 11t49.5 11z" />
    <glyph glyph-name="k" unicode="k" horiz-adv-x="568" 
d="M172 -109q-38 0 -101 -6.5t-75 -6.5q-17 0 -17 12t17 12q32 0 60 10q21 8 34 23.5t18 39t6 39.5t1 44q0 124 -6 394q-5 307 -12 353q-9 62 -71 62q-12 0 -36.5 -2.5t-34.5 -2.5q-24 0 -24 13q0 10 15 14q103 23 151 53q19 12 35.5 29l25.5 26.5t15 9.5q11 0 11 -20
q0 -9 -1.5 -49t-1.5 -58q0 -75 8.5 -310t12.5 -269q96 101 115 126q16 22 16 38q0 19 -21 30l-40 19q-10 7 -10 14q0 12 12 12q6 0 17.5 -6t33.5 -15t50 -15q43 -9 97 -9q22 0 22 -12q0 -13 -24 -13q-61 0 -99 -29q-46 -35 -76 -80q3 -23 14.5 -61t31.5 -87t54 -83.5
t73 -34.5q26 0 41.5 18.5t15.5 49.5q0 49 -40 87q-3 3 -8 7t-7.5 6.5t-2.5 4.5q0 4 5 4q12 0 36 -20q50 -40 50 -114q0 -18 -5 -36.5t-16 -38.5t-34 -32.5t-55 -12.5q-155 0 -223 268l-20 -22q3 -69 11 -160.5t13 -113.5q7 -35 21.5 -51.5t49.5 -16.5q5 0 17.5 0.5t18.5 0.5
q35 0 35 -18q0 -22 -45 -22q-12 0 -58 4t-96 4z" />
    <glyph glyph-name="l" unicode="l" horiz-adv-x="354" 
d="M216 913q0 -142 2 -194q6 -260 30 -583q2 -28 6.5 -44.5t18 -27t25 -15t39.5 -11.5q13 -4 13 -12q0 -11 -16 -11q-1 0 -49.5 3.5t-80.5 3.5q-24 0 -69.5 -4.5t-56.5 -4.5q-20 0 -20 14q0 13 19 13q35 0 55 7q25 9 25 48q0 61 -35 415q-13 132 -21 178q-6 36 -31 36
q-16 0 -56.5 -17t-49.5 -17q-14 0 -14 12q0 8 10 16q4 3 16 8.5t35 18.5t52 33q76 52 132 136q11 16 15 16q6 0 6 -17z" />
    <glyph glyph-name="m" unicode="m" horiz-adv-x="708" 
d="M38 148q0 5 3.5 8t10 5t13 3l16 2.5l15.5 2.5q33 8 33 49q0 105 -25 184q-12 37 -49 37q-5 0 -12.5 -0.5t-10.5 -0.5q-17 0 -17 11q0 5 3.5 8t12 5t18.5 3.5t25.5 6t31.5 11.5q24 10 41.5 22t24 18.5t9.5 6.5q12 0 24 -136q12 27 43 56t74 29q41 0 65 -23t32 -55
q44 79 122 79q103 0 103 -131q0 -28 -5 -83t-5 -73q0 -33 10 -54q5 -12 14 -20.5t16.5 -12t13 -8t5.5 -10.5q0 -10 -15 -10q-10 0 -28.5 10.5t-42 25.5t-36.5 21q-14 7 -29.5 12.5t-25 8t-18 5.5t-12.5 6t-4 8q0 8 17 13q23 7 32 36q13 37 13 97q0 101 -55 101
q-38 0 -58 -44q-17 -40 -17 -111q0 -55 36 -71q11 -4 11 -11q0 -10 -15 -10q-9 0 -48 8.5t-63 8.5q-8 0 -21 -1t-22 -1q-26 0 -26 9q0 4 4 5.5t12 3t13 3.5q34 14 34 112q0 102 -54 102q-20 0 -35 -16t-22 -38q-12 -39 -12 -108q0 -78 25 -97q11 -8 27 -12l26 -6.5t10 -8.5
q0 -9 -24 -9q-9 0 -48.5 5.5t-58.5 5.5q-17 0 -47 -2.5t-48 -2.5q-30 0 -30 12z" />
    <glyph glyph-name="n" unicode="n" horiz-adv-x="585" 
d="M168 629q9 0 31 -144l18 -123q4 28 16 59t33 64.5t55.5 55.5t76.5 22q71 0 106.5 -50.5t35.5 -135.5q0 -51 -13 -146t-13 -131q0 -32 12 -53q8 -12 33 -30t25 -29t-11 -11q-9 0 -25 10.5t-45 27.5t-64 28q-48 15 -100 18q-17 2 -17 10q0 9 11 9q27 0 44 1q21 2 33 13
t18 38q11 55 11 145v32.5t-2 37t-5.5 41t-10.5 36.5t-17 32.5t-25.5 21t-35.5 8.5q-39 0 -67 -38t-37 -99q-9 -45 -9 -126q0 -121 27 -159q13 -18 38 -28q18 -6 18 -11q0 -8 -20 -8q-12 0 -47.5 5.5t-55.5 5.5t-55 -3t-41 -3q-19 0 -19 12q0 9 15 12q33 2 49 4q27 4 27 36
q0 96 -59 355q-6 29 -13.5 42t-21.5 13q-11 0 -31 -8.5t-27 -8.5q-9 0 -9 8t16 14q34 13 64 36q21 16 40 39.5t29.5 38t13.5 14.5z" />
    <glyph glyph-name="o" unicode="o" horiz-adv-x="504" 
d="M21 300q0 109 65.5 174t173.5 65q98 0 160.5 -63t62.5 -168q0 -116 -68.5 -176.5t-156.5 -60.5q-97 0 -167 62.5t-70 166.5zM253 520q-53 0 -80 -49t-27 -124q0 -97 34 -170.5t98 -73.5q55 0 80 44.5t25 107.5q0 130 -36 197.5t-94 67.5z" />
    <glyph glyph-name="p" unicode="p" horiz-adv-x="510" 
d="M210 510q0 -3 -0.5 -22.5t-0.5 -35.5q0 -14 0.5 -31t0.5 -38q16 22 36 38q47 39 101 39q69 0 108 -47.5t39 -124.5q0 -111 -55 -178.5t-136 -67.5q-42 0 -85 26q-1 -26 -1 -132q0 -224 25 -269q13 -24 45 -38q38 -17 38 -28q0 -12 -15 -12t-88.5 13t-102.5 13
q-15 0 -36 -1.5t-31 -1.5q-37 0 -37 9q0 5 7.5 6.5t23 5.5t27.5 12q15 10 23.5 31t10.5 36.5t4 44.5q4 48 8.5 247.5t4.5 287.5q0 62 -7 83.5t-26 21.5q-10 0 -31.5 -9t-26.5 -9q-8 0 -8 8t18 17q5 3 24 11t36.5 18.5t33.5 25.5q20 18 35 36l21 25t10 7q7 0 7 -17zM300 412
q-30 0 -50.5 -20t-30 -53t-13 -62t-3.5 -59q0 -146 85 -146q44 0 72.5 46.5t28.5 145.5q0 148 -89 148z" />
    <glyph glyph-name="q" unicode="q" horiz-adv-x="506" 
d="M190 495q80 0 131 -44q0 4 1 19t2.5 23.5t5.5 12.5q5 5 21 5q5 0 20 -1t25 -1q22 0 51 3t33 3q11 0 11 -5q0 -2 -2 -4t-7.5 -4l-10 -3.5t-13 -4t-14.5 -4.5q-21 -6 -28 -22.5t-9 -51.5q-1 -8 -1 -550q0 -153 1 -172q2 -44 27 -62q22 -16 60 -29q13 -5 13 -12
q0 -11 -12 -11q-23 0 -86 22.5t-81 26.5q-63 14 -124 14q-29 0 -29 11q0 12 22 12q7 0 33.5 -0.5t33.5 -0.5q25 0 32.5 15t8.5 47q8 212 8 415q0 45 -1 53q-22 -21 -59 -33t-75 -12q-25 0 -50.5 7.5t-52 25t-43.5 53t-17 84.5q0 79 50 127t125 48zM235 455
q-48 0 -77.5 -32.5t-29.5 -94.5q0 -76 33 -108t80 -32q31 0 52.5 17.5t23.5 48.5q3 75 3 105q0 32 -1 38q-3 22 -26.5 40t-57.5 18z" />
    <glyph glyph-name="r" unicode="r" horiz-adv-x="414" 
d="M186 623q0 -3 -0.5 -16.5t-0.5 -21.5q0 -17 3 -39t7 -37t6 -15t7 20t15.5 48t27 56t46.5 48t68 20q57 0 83.5 -33.5t26.5 -74.5q0 -48 -24 -75.5t-57 -27.5q-29 0 -46 13.5t-17 38.5q0 45 47 59q36 10 36 37q0 16 -12.5 27.5t-37.5 11.5q-39 0 -68 -27t-44 -71.5
t-21.5 -89t-6.5 -90.5q0 -65 12.5 -156.5t20.5 -126.5q9 -39 47 -39q6 0 17.5 0.5t13.5 0.5q13 0 13 -10q0 -9 -7 -10q-6 -3 -29 -3.5t-56.5 -1.5t-57.5 -4q-34 -4 -84 -16.5t-61 -12.5q-16 0 -16 12q0 10 23 17q2 1 18.5 5.5t28.5 9.5q28 12 28 53q0 29 -12.5 175.5
t-18.5 196.5q-3 27 -13.5 35t-29.5 8h-20q-21 0 -21 12q0 9 15 11q55 7 83 28q29 22 46 57q6 12 13 12q9 0 9 -14z" />
    <glyph glyph-name="s" unicode="s" horiz-adv-x="483" 
d="M292 626q31 0 58 -6.5t32 -6.5q11 0 22 30q6 17 15 17q12 0 12 -14q0 -6 -2 -15.5t-6.5 -29t-8.5 -44.5q-4 -27 -6.5 -54t-4.5 -36q-3 -19 -13 -19t-10 20v38q0 101 -86 101q-34 0 -58 -22t-24 -59t28 -75.5t68 -74.5l79.5 -75t67.5 -90.5t28 -107.5q0 -97 -56 -152.5
t-138 -55.5q-96 0 -156 66q-23 26 -36.5 36t-28.5 10q-13 0 -39.5 -20t-33.5 -20q-10 0 -10 9q0 6 7 13l12 11l21.5 20.5t28 31t33.5 42.5q18 24 33.5 54t23.5 43.5t16 13.5q12 0 12 -14q0 -3 -17 -47.5t-17 -88.5q0 -42 30.5 -83t90.5 -41q52 0 83.5 37.5t31.5 97.5
q0 42 -25 87.5t-61 85.5l-72.5 78.5t-61.5 80.5t-25 80q0 72 48.5 110t114.5 38z" />
    <glyph glyph-name="t" unicode="t" horiz-adv-x="434" 
d="M22 529q7 3 65 15q64 15 92 52t54 115q18 55 42 55q20 0 20 -30q0 -16 -14.5 -77.5t-14.5 -84.5q0 -20 16 -20q7 0 32 3t38 3q21 0 21 -13t-20 -13q-51 0 -81 -15q-23 -11 -36 -38q-19 -38 -36 -117.5t-17 -148.5q0 -100 32 -149.5t85 -49.5q36 0 54 18.5t18 43.5
q0 17 -23 39.5t-23 43.5q0 20 13 33t34 13t36 -16t15 -47q0 -65 -40 -112.5t-120 -47.5q-99 0 -150 75q-41 63 -41 156q0 78 23.5 177.5t23.5 103.5q0 13 -18 13q-5 0 -32.5 -1.5t-42.5 -1.5q-18 0 -18 10q0 9 13 13z" />
    <glyph glyph-name="u" unicode="u" horiz-adv-x="744" 
d="M201 543q7 0 11 -27l7.5 -49t8 -49.5t6.5 -36.5q9 -50 15.5 -80t15.5 -65t19 -54.5t24 -37.5t31.5 -25.5t40.5 -7.5q35 0 60 24t36.5 63.5t16 76t4.5 76.5q0 28 -1 42.5t-6.5 34.5t-19 29t-35.5 9q-10 0 -29 -2.5t-28 -2.5q-16 0 -16 12q0 11 19 14q63 3 108 21
q15 6 32.5 17.5l29 19.5t16.5 8q7 0 10 -32q1 -7 9 -118.5t18 -178.5q6 -42 19.5 -56.5t37.5 -14.5q17 0 40.5 3.5t27.5 3.5q15 0 15 -11t-15 -15q-8 -2 -21 -3.5t-35 -4.5t-38 -5t-42 -7.5t-33 -5.5q-20 0 -25 24q-5 22 -12.5 71t-9.5 60q-34 -243 -182 -243
q-106 0 -147 108q-13 34 -21.5 76.5t-13.5 89t-7 56.5q-10 61 -46 61q-11 0 -34.5 -7t-32.5 -7q-14 0 -14 13q0 2 0.5 4t1.5 3.5t3 2.5t3 2t4 2l4.5 1.5t5.5 1.5t6 2q43 13 80 38q22 15 39.5 34t25.5 30.5t13 11.5z" />
    <glyph glyph-name="v" unicode="v" horiz-adv-x="600" 
d="M278 577q0 -5 -16 -18q-23 -17 -23 -38q0 -44 51 -179t81 -203q6 -16 14 -16q6 0 10 11q9 22 35.5 123.5t26.5 134.5q0 24 -22 29q-4 1 -20 2.5t-25.5 4.5t-9.5 10q0 10 21 10q1 0 27.5 -2t52.5 -2q14 0 49.5 5.5t44.5 5.5q19 0 19 -8q0 -2 -1.5 -4t-4.5 -3.5l-6 -3
t-8 -2.5t-8.5 -2t-9.5 -2t-10 -2q-14 -3 -23 -10t-13 -13t-9 -18q-10 -25 -65 -202q-68 -211 -82 -211q-11 0 -55.5 89.5t-107.5 228.5t-65 144q-19 40 -52 40q-11 0 -31.5 -8t-26.5 -8q-11 0 -11 10q0 7 7 10q8 4 60.5 22t80.5 31q24 11 51 26t40.5 21.5t22.5 6.5
q11 0 11 -10z" />
    <glyph glyph-name="w" unicode="w" horiz-adv-x="745" 
d="M270 484q0 -4 -6 -9t-16 -11t-14 -9q-14 -13 -14 -36q0 -21 17 -86t35.5 -120.5t22.5 -55.5t24.5 50.5l47.5 120.5t39 97q7 15 14 15t15 -15l40 -77.5t56.5 -106t24.5 -36.5q6 0 30.5 103t24.5 126q0 17 -15 17q-4 0 -16 -1.5t-19 -1.5q-11 0 -11 8q0 6 7 9q4 1 31.5 3
t52.5 7q24 4 53.5 12.5t37.5 8.5q11 0 11 -8q0 -7 -8 -10q-5 -2 -20.5 -6.5t-23.5 -7.5q-20 -7 -29.5 -18.5t-16.5 -35.5q-3 -8 -28.5 -107.5t-49.5 -169.5t-39 -70q-20 0 -87 115q-27 45 -62 116q-12 -42 -72 -192q-46 -124 -63 -124q-12 0 -43.5 80.5t-65 180.5t-38.5 111
q-10 26 -36 26q-9 0 -23 -3t-20 -3q-13 0 -13 11t23 18q79 18 121 37q27 12 53.5 27l39.5 22.5t19 7.5q9 0 9 -9z" />
    <glyph glyph-name="x" unicode="x" horiz-adv-x="549" 
d="M7 557q4 0 15.5 -0.5t19.5 -0.5q62 0 116 11q42 8 79 21t57.5 21t29.5 8q10 0 10 -7q0 -8 -19 -12q-17 -6 -26 -10t-18.5 -16t-9.5 -31q0 -33 18 -83q8 -24 24.5 -62.5t20.5 -38.5q3 0 30.5 36t33.5 45q11 19 11 27q0 15 -19 23q-8 2 -20.5 4.5t-14.5 2.5q-13 3 -13 13
t11 10q7 0 41.5 -5.5t58.5 -6.5q8 -1 41 -1q17 0 37.5 1.5t26.5 1.5q16 0 16 -10q0 -13 -25 -14q-42 -4 -54 -7q-38 -11 -70 -51q-45 -55 -63 -84q-8 -14 -8 -28q0 -7 4 -25q7 -26 28.5 -80.5t27.5 -65.5q8 -16 21.5 -26t24.5 -13t31 -7q29 -4 38 -7t9 -9q0 -13 -42 -13
q-5 0 -20 0.5t-25 0.5q-35 0 -65 -5q-27 -4 -71 -21.5t-54 -17.5q-17 0 -17 14t18 19q3 1 15 4t18.5 5t15.5 5.5t13.5 7.5t4.5 9q0 14 -16 47t-24 45q-5 9 -14 9q-7 0 -14 -7q-22 -22 -48 -61q-11 -15 -11 -20q0 -3 24 -7q14 -2 14 -8q0 -8 -13 -8q-7 0 -23 1t-27 1
q-18 0 -58 -6t-46 -6q-11 0 -11 9q0 10 13 11q50 3 80 24q36 24 70 66.5t34 60.5q0 10 -4 18q-13 31 -49 103.5t-52 99.5q-23 40 -60 61q-26 14 -72 14q-17 0 -17 11q0 10 12 10z" />
    <glyph glyph-name="y" unicode="y" horiz-adv-x="659" 
d="M289 536q10 0 10 -9q0 -5 -7 -12q-2 -1 -19 -12t-33 -23q-23 -17 -29 -41t-6 -67q1 -69 15.5 -133.5t32.5 -100.5q38 -77 104 -77q35 0 60.5 25t37 65t16.5 75t5 68q0 90 -31 109q-7 5 -59 19q-19 4 -19 17q0 15 17 15q6 0 38 -2.5t56 -2.5q33 0 78 7t64 14q9 4 18 4
q14 0 14 -11q0 -9 -9 -15q-2 -2 -10.5 -7t-12 -7.5t-8.5 -7.5t-7 -11q-3 -8 -5.5 -18.5t-4 -27.5t-2.5 -32.5l-3 -46t-4 -56.5q-18 -235 -82 -433q-40 -123 -106.5 -191.5t-150.5 -68.5q-60 0 -97.5 35.5t-37.5 92.5q0 61 34 100.5t85 39.5q40 0 62.5 -23.5t22.5 -56.5
q0 -27 -16.5 -45t-44.5 -18q-22 0 -36.5 11t-19.5 25t-12 25t-16 11q-15 0 -25 -20.5t-10 -46.5q0 -47 31.5 -76t80.5 -29q154 0 211 277q22 141 22 249q0 9 -0.5 21t-0.5 15l-1 13q-2 -7 -8 -21q-12 -29 -22 -46q-19 -34 -56 -57.5t-84 -23.5q-28 0 -52.5 7.5t-43.5 24.5
t-34 34t-27 45.5t-20.5 50.5t-16.5 57l-12.5 55.5t-11 56.5t-9.5 51q-5 25 -23 25q-7 0 -19 -2t-15 -2q-10 0 -10 9q0 8 10 11q71 19 124 45q33 16 65 36t48.5 29.5t26.5 9.5z" />
    <glyph glyph-name="z" unicode="z" horiz-adv-x="461" 
d="M55 562q11 0 67 -12.5t102 -15.5q55 -4 92 -4q12 0 32 0.5t31 0.5q22 0 22 -16q0 -3 -6 -21q-6 -12 -98 -207.5t-98 -209.5q-2 -6 -2 -9q0 -9 21 -9q33 0 84 6.5t73 14.5q49 17 62 87q1 4 2.5 11.5t2.5 13t3 11.5t4 9t5 3q7 0 7 -36q0 -40 -3 -106q-3 -41 -25 -41
q-16 0 -59 1.5t-68 1.5q-53 0 -84 -2q-59 -3 -114.5 -12.5t-66.5 -9.5q-19 0 -19 12q0 10 8 21q194 311 262 460q-58 9 -116 9q-27 0 -42 -3q-31 -6 -49.5 -37t-32.5 -90q-1 -5 -4 -18.5t-4.5 -19l-4 -14t-5.5 -12t-6 -3.5q-8 0 -8 17q0 37 7 102l5 99q1 16 6.5 22t16.5 6z
" />
    <glyph glyph-name="braceleft" unicode="{" horiz-adv-x="461" 
d="M330 955q34 0 61.5 -11.5t40 -24t12.5 -21.5q0 -7 -7 -7q-5 0 -35 18.5t-63 18.5q-72 0 -72 -96q0 -41 23.5 -140t23.5 -147q0 -38 -12 -71q-12 -32 -36.5 -56.5t-50.5 -36.5t-50 -19.5t-39.5 -11t-15.5 -5.5q0 -3 15.5 -10t41.5 -21.5t46 -31.5q82 -73 82 -254
q0 -13 -0.5 -39t-0.5 -38q0 -43 3 -75t10.5 -61t22.5 -44t37 -15q33 0 47.5 27t16.5 53.5t6 26.5q12 0 12 -42q0 -131 -113 -131q-155 0 -155 191q0 42 6 134t6 115q0 108 -70 161q-24 17 -53.5 30t-44.5 19t-15 14q0 3 2 5t5.5 4t7 3.5t9.5 3.5t10 2.5t10.5 2t9.5 2.5
q133 32 133 163q0 30 -10 102.5t-10 112.5q0 81 37.5 140.5t115.5 59.5z" />
    <glyph glyph-name="bar" unicode="|" horiz-adv-x="368" 
d="M169 872q17 0 17 -46q0 -187 11 -432q1 -33 7.5 -210.5t8.5 -218.5q0 -14 2.5 -53.5t2.5 -56.5q0 -48 -14 -48q-17 0 -19 73l-22 511q-1 22 -4 132.5l-5.5 199.5t-2.5 98q0 51 18 51z" />
    <glyph glyph-name="braceright" unicode="}" horiz-adv-x="476" 
d="M21 667q-11 0 -11 14q0 37 43.5 81.5t111.5 44.5q170 0 170 -191q0 -18 -1.5 -63t-1.5 -60q0 -47 13.5 -71.5t51.5 -24.5q11 0 30 2t24 2q15 0 15 -8q0 -7 -18 -17t-36.5 -31.5t-18.5 -56.5q0 -34 31.5 -138.5t31.5 -169.5q0 -102 -70 -168.5t-171 -66.5q-23 0 -23 14
q0 11 27 15q24 2 58 12.5t53 27.5q21 18 27.5 43.5t6.5 64.5q0 56 -28.5 167.5t-28.5 149.5q0 23 8 43.5t19 33.5t22 22.5t19 15t8 7.5q0 1 -24 4t-58.5 18.5t-54.5 46.5q-23 34 -33.5 92.5t-12.5 105t-19.5 82t-55.5 35.5q-22 0 -40 -12t-27.5 -27t-19 -27t-17.5 -12z" />
    <glyph glyph-name="asciitilde" unicode="~" horiz-adv-x="734" 
d="M234 320q50 0 135 -34.5t145 -34.5q30 0 59 17t46.5 37.5l33 37.5t21.5 17q10 0 10 -14q0 -13 -11.5 -40t-33 -60t-62.5 -56.5t-91 -23.5q-60 0 -160 46.5t-141 46.5q-31 0 -59.5 -20.5t-46.5 -41t-24 -20.5q-5 0 -5 6q0 17 41 66q60 71 143 71z" />
    <glyph glyph-name="nbspace" unicode="&#xa0;" horiz-adv-x="270" 
 />
    <glyph glyph-name="exclamdown" unicode="&#xa1;" horiz-adv-x="247" 
d="M116 693q14 0 21 -24t17 -93q12 -80 27 -256.5t15 -284.5q0 -150 -75 -150q-65 0 -65 111q0 50 21 249t22 322q0 74 3 100t14 26zM115 950q28 0 46.5 -17t18.5 -46q0 -32 -18.5 -51t-48.5 -19q-24 0 -43.5 16t-19.5 51q0 32 19.5 49t45.5 17z" />
    <glyph glyph-name="cent" unicode="&#xa2;" horiz-adv-x="800" 
d="M319 658q8 0 14 -22q0 -2 9 -38.5t15 -66.5q39 13 75 13q95 0 143 -53.5t48 -119.5q0 -46 -20 -70t-52 -24q-28 0 -44 17.5t-16 41.5q0 29 21 62t21 48q0 33 -26.5 55t-72.5 22q-38 0 -70 -21l113 -468q83 8 129 106q9 21 16 21q9 0 9 -15q0 -32 -36.5 -89t-101.5 -81
q8 -28 22 -71l22.5 -70t8.5 -35q0 -14 -11 -14t-20 17t-21 54q-15 47 -31 110q-26 -4 -42 -4q-120 0 -189 75t-69 189q0 99 47.5 180t123.5 115q-23 94 -23 122q0 14 8 14zM274 278q0 -106 44.5 -174t127.5 -71l-100 454q-72 -66 -72 -209z" />
    <glyph glyph-name="sterling" unicode="&#xa3;" horiz-adv-x="800" 
d="M503 417q12 0 12 -9q0 -8 -16 -14q-24 -8 -90 -25l-11 -3q21 -46 31.5 -73t21 -69.5t10.5 -81.5q0 -72 -27 -128l55.5 -26.5t47.5 -17t57 -9.5q31 0 53 17.5t22 50.5q0 24 -10.5 42t-21.5 27.5t-11 13.5q0 7 7 7q18 0 40 -27.5t22 -65.5q0 -50 -30.5 -86.5t-91.5 -36.5
q-79 0 -161 72q-33 -45 -79 -69.5t-90 -24.5q-37 0 -62 20.5t-25 57.5t31.5 67t96.5 30q34 0 75 -12v5q0 34 -10.5 72.5t-22.5 65.5t-34.5 73.5t-32.5 69.5q-85 -25 -107 -25q-15 0 -15 13t15 16l95 24q-35 89 -35 164q0 68 20.5 122t54.5 87t74.5 50t83.5 17
q76 0 123.5 -46t47.5 -123q0 -61 -30 -95.5t-69 -34.5q-31 0 -53 20t-22 56q0 39 38 82t38 68q0 21 -18.5 39t-54.5 18q-59 0 -93 -36.5t-34 -103.5q0 -105 69 -251q111 26 116 26zM244 -96q42 0 72.5 27t39.5 79q-44 22 -89 22q-36 0 -59 -20t-23 -49q0 -27 16 -43t43 -16z
" />
    <glyph glyph-name="currency" unicode="&#xa4;" horiz-adv-x="733" 
d="M505 727q10 0 10 -11q0 -14 -21 -55.5t-21 -47.5q0 -7 16 -21.5l35.5 -32t35.5 -52t16 -77.5q0 -39 -12.5 -75t-27 -55.5t-27 -34t-12.5 -16.5q0 -4 30 -30t52 -43l18 -14.5l19 -15l17 -13.5t15.5 -13.5l11.5 -11.5t9 -10.5t3 -7.5q0 -9 -9 -9q-20 0 -88 50
q-3 2 -23.5 18l-45 35t-45.5 38q-23 -14 -38 -21.5t-54 -16.5t-88 -9q-9 0 -21.5 0.5t-16.5 0.5q-10 0 -18 -4q-5 -4 -40.5 -74t-58.5 -70q-17 0 -17 21q0 28 24 81.5t25 59.5q0 4 -12.5 18t-27.5 32.5t-27.5 53t-12.5 74.5q0 42 13 78.5t25.5 59.5t12.5 30q0 10 -34.5 46
t-34.5 50q0 11 11 11q12 0 51.5 -33.5t49.5 -33.5q6 0 28 11.5t60.5 23t83.5 11.5q11 0 30 -1t24 -1q13 0 28 16.5t26.5 37t26 37t26.5 16.5zM323 583q-92 0 -144.5 -60.5t-52.5 -152.5q0 -80 50.5 -121t128.5 -41q43 0 82 12t73 37t54 68.5t20 99.5q0 74 -54 116t-157 42z
" />
    <glyph glyph-name="yen" unicode="&#xa5;" horiz-adv-x="800" 
d="M395 906q12 0 12 -11q0 -7 -9.5 -16t-24.5 -21.5t-23 -21.5q-12 -13 -12 -33q0 -35 54.5 -141t76.5 -135q8 -10 12 -10q15 0 55.5 94.5t40.5 128.5q0 23 -32 23q-7 0 -19.5 -1t-16.5 -1q-20 0 -20 13t22 16q1 0 21.5 2.5t49 8t51.5 12.5q26 8 54.5 22l46.5 22.5t25 8.5
q8 0 8 -7q0 -9 -18 -18q-67 -32 -99 -67q-31 -32 -67 -108t-52 -133q-24 -83 -24 -137q0 -21 7 -23q11 -3 73 -3h101q60 0 60 -14q0 -13 -54 -13q-18 0 -70.5 2t-72.5 2q-40 0 -44 -5q-8 -8 -8 -55q0 -9 2.5 -12t9.5 -3q8 0 47 3t58 3q35 0 35 -16t-36 -18q-104 -4 -112 -15
q-10 -12 -10 -84q0 -116 14 -145q18 -34 83 -45q31 -6 31 -16q0 -11 -20 -11q-106 -2 -174 -11q-51 -8 -119 -32t-79 -24q-14 0 -14 12t20 19l11 4l17 5t19.5 7.5t22 11t20 13.5t18.5 17q23 29 30 69q9 52 9 117q0 38 -3 59q-1 12 -5.5 15.5t-15.5 3.5q-15 0 -56.5 -3.5
t-52.5 -3.5q-26 0 -26 18q0 17 23 20q8 1 40.5 3t60 5t32.5 7q7 6 7 34q0 29 -5.5 38t-27.5 9q-17 0 -59 -1.5t-58 -1.5q-29 0 -29 14q0 13 33 13q11 0 45.5 -0.5t49.5 -0.5q16 0 23.5 0.5t14 5t6.5 13.5q0 11 -12 44q-34 87 -89.5 196t-108.5 155q-26 23 -61 37.5t-55 21.5
t-20 16q0 11 12 11q6 0 54.5 -2t97.5 -2q53 0 97.5 11.5t69.5 23t31 11.5z" />
    <glyph glyph-name="brokenbar" unicode="&#xa6;" horiz-adv-x="342" 
d="M169 897q15 0 16 -32q1 -11 1 -120q0 -28 1.5 -121t1.5 -110q0 -46 -19 -46q-17 0 -17 47q0 26 0.5 119t0.5 131v93q0 39 15 39zM170 356q14 0 16 -29q6 -105 6 -198q0 -55 -1 -181t-1 -143q0 -70 -23 -70q-17 0 -17 50q0 3 4 153t4 190q0 54 -1 126.5t-1 73.5
q0 28 14 28z" />
    <glyph glyph-name="section" unicode="&#xa7;" horiz-adv-x="547" 
d="M311 833q84 0 133.5 -49.5t49.5 -113.5q0 -33 -17 -58t-53 -25q-29 0 -45 18t-16 42q0 23 12 54t12 46q0 25 -22.5 45.5t-59.5 20.5q-49 0 -82 -29.5t-33 -85.5q0 -40 17 -75.5t44 -62t60 -52l65.5 -50.5t59.5 -51t44 -60.5t17 -73.5q0 -104 -101 -177q77 -82 77 -189
q0 -103 -57 -157.5t-143 -54.5q-38 0 -65 11.5t-39 29t-16.5 31t-4.5 23.5q0 25 15 45t49 20q24 0 41.5 -17t26 -38t27 -38t44.5 -17q35 0 58.5 31t23.5 77q0 65 -39.5 115t-96 83.5l-112.5 66.5t-95.5 82t-39.5 112q0 108 102 166q-55 60 -55 145q0 95 62.5 152.5
t151.5 57.5zM235 412q-39 23 -61 44q-41 -39 -41 -95q0 -45 35.5 -82.5t106 -85.5t103.5 -78q59 47 59 109q0 26 -13.5 49.5t-38.5 44t-47.5 34.5t-55.5 32.5t-47 27.5z" />
    <glyph glyph-name="dieresis" unicode="&#xa8;" horiz-adv-x="393" 
d="M158 755q22 0 35.5 -15t13.5 -37q0 -31 -18 -47.5t-41 -16.5q-20 0 -35 14.5t-15 39.5q0 26 18 44t42 18zM284 744q18 0 31 -12t13 -34q0 -24 -14 -40t-34 -16q-19 0 -32.5 12t-13.5 38q0 23 15 37.5t35 14.5z" />
    <glyph glyph-name="copyright" unicode="&#xa9;" horiz-adv-x="1024" 
d="M506 759q163 0 279 -69q87 -51 137 -138t50 -201q0 -240 -138 -370.5t-354 -130.5q-193 0 -311 117.5t-118 305.5q0 105 29.5 190.5t76.5 139t108.5 90t121.5 51.5t119 15zM503 733q-82 0 -155 -28t-130.5 -82.5t-91 -143.5t-33.5 -202q0 -171 112.5 -272t275.5 -101
q61 0 118.5 12.5t117 45.5t103.5 82t71.5 129t27.5 181q0 179 -118 279t-298 100zM580 534q0 -50 9 -91.5t9 -42.5q0 -10 -5 -10t-8 7t-9.5 25.5t-14.5 34.5q-34 65 -97 65q-43 0 -73.5 -38.5t-30.5 -113.5q0 -99 43 -145.5t106 -46.5q45 0 72.5 34.5t32.5 82.5q3 36 11 36
q13 0 13 -32q0 -74 -43.5 -126t-120.5 -52q-87 0 -148 56.5t-61 151.5q0 111 61.5 165.5t146.5 54.5q13 0 31.5 -1.5t24.5 -1.5q12 0 19 4q9 6 14 24t8 33.5t7 15.5q5 0 5 -14q0 -2 -1 -30.5t-1 -44.5z" />
    <glyph glyph-name="ordfeminine" unicode="&#xaa;" horiz-adv-x="558" 
d="M199 816q42 0 72.5 -16t47 -38.5t26.5 -58.5t13.5 -64t4.5 -67q4 -116 14 -146q16 -46 55 -46q46 0 46 70q0 7 -8 55q0 14 10 14q12 0 21 -19t9 -55q0 -18 -4 -36.5t-14 -39.5t-31 -34t-51 -13q-90 0 -111 100q-7 -42 -41 -78t-91 -36q-44 0 -75 30.5t-31 86.5
q0 98 86 140q47 22 106 22q21 0 25 15q3 15 3 41q0 27 -3.5 51t-13 49.5t-29.5 41t-49 15.5q-57 0 -57 -50q0 -20 16.5 -52.5t16.5 -50.5q0 -23 -15 -39t-38 -16q-59 0 -59 70q0 66 41.5 110t107.5 44zM141 455q0 -38 18.5 -56.5t49.5 -18.5q44 0 62 39t18 89q0 35 -7 49
t-30 14q-50 0 -80.5 -30.5t-30.5 -85.5z" />
    <glyph glyph-name="guillemotleft" unicode="&#xab;" horiz-adv-x="609" 
d="M377 536q6 0 6 -11q0 -16 -14 -59.5t-42 -93.5q-24 -44 -52 -84.5l-41 -60t-13 -26.5q0 -6 15 -28l41 -62.5t46 -77.5q119 -221 119 -260q0 -12 -10 -12q-11 0 -37 33.5t-71 96.5t-81 106q-46 53 -96 101l-73.5 69.5t-23.5 30.5t25.5 28l71.5 51t78 62q48 45 82 95.5
t48 76t22 25.5zM529 634q8 0 8 -25q0 -55 -19.5 -138t-38.5 -145.5t-19 -69.5t15 -35l33.5 -64.5t33.5 -105.5t15 -148q0 -56 -10 -56q-5 0 -16 29.5t-35 87t-52 106.5q-22 39 -52 71.5t-47.5 49t-17.5 24.5q0 6 21.5 28.5t54.5 69.5t55 106q20 55 35.5 112.5l22 80
t13.5 22.5z" />
    <glyph glyph-name="logicalnot" unicode="&#xac;" horiz-adv-x="616" 
d="M83 441q75 3 445 3q21 0 29.5 -12t8.5 -37q0 -75 -10 -127q-5 -30 -23 -30q-19 0 -19 32q0 7 1 31.5t1 37.5q0 47 -13 58t-64 11q-16 0 -82 -2q-205 -9 -267 -9q-40 0 -40 22q0 20 33 22z" />
    <glyph glyph-name="uni00AD" unicode="&#xad;" horiz-adv-x="436" 
d="M219 194q-35 0 -85 5t-70 13q-14 5 -14 17q0 14 15 14q12 0 60 -6t89 -6q43 0 92.5 4t57.5 4q22 0 22 -14q0 -15 -20 -21q-34 -10 -147 -10z" />
    <glyph glyph-name="registered" unicode="&#xae;" horiz-adv-x="1049" 
d="M527 702q72 0 139.5 -16t128 -51.5t105.5 -86t71.5 -125t26.5 -163.5q0 -234 -132 -357t-343 -123q-68 0 -133.5 15.5t-127.5 50t-108.5 85.5t-75 128.5t-28.5 171.5q0 196 108 317q71 80 172 117t197 37zM527 665q-58 0 -115.5 -13t-115 -45t-101 -78.5t-70.5 -119.5
t-27 -163q0 -109 35.5 -195t96.5 -139t137.5 -80t162.5 -27q214 0 328.5 123t114.5 320q0 111 -37.5 194.5t-102 130.5t-141.5 69.5t-165 22.5zM538 544q68 0 110 -32.5t42 -95.5q0 -66 -37.5 -108.5t-91.5 -60.5q12 -40 32 -77q50 -97 118 -97q31 0 46.5 20.5t15.5 44.5
q0 25 -11 48t-11 25q0 7 6 7q13 0 28.5 -27t15.5 -57q0 -51 -27.5 -83t-80.5 -32q-50 0 -91.5 23t-66.5 58.5t-40 67.5t-21 61l-40 -4q5 -129 32 -167q23 -32 74 -52q16 -7 16 -12q0 -7 -13 -7q-14 0 -64 12t-90 12q-27 0 -76 -5.5t-56 -5.5q-24 0 -24 12q0 9 19 12
q61 8 84 43q16 25 19 179q0 5 0.5 24t0.5 32q0 150 -15 173q-7 11 -27.5 17.5t-37 11t-16.5 10.5q0 7 11 7t37 -2t51 -2q27 0 87 13.5t92 13.5zM433 256v-7q25 2 41 6q113 24 113 156q0 48 -25.5 77.5t-66.5 29.5q-46 0 -59 -23q-7 -14 -7 -82q0 -29 4 -157z" />
    <glyph glyph-name="macron" unicode="&#xaf;" horiz-adv-x="383" 
d="M288 828q45 0 45 -19q0 -22 -53 -22q-76 0 -167 3q-55 3 -61 10q-2 2 -2 5q0 15 62 18q83 5 176 5z" />
    <glyph glyph-name="degree" unicode="&#xb0;" horiz-adv-x="346" 
d="M177 964q47 0 83 -31.5t36 -85.5q0 -60 -36 -95t-91 -35q-46 0 -82.5 30t-36.5 92q0 54 36.5 89.5t90.5 35.5zM170 909q-33 0 -55 -20.5t-22 -57.5t22 -58.5t57 -21.5q36 0 57.5 21.5t21.5 55.5q0 41 -25.5 61t-55.5 20z" />
    <glyph glyph-name="plusminus" unicode="&#xb1;" horiz-adv-x="580" 
d="M304 507q21 0 21 -29q0 -18 -2 -54.5t-2 -40.5q0 -12 11 -15q51 -6 157 -9q41 -2 41 -16t-32 -14q-12 0 -71 3.5t-82 3.5q-16 0 -22.5 -3.5t-7.5 -14.5q-1 -6 -1 -70q0 -39 -13 -39q-9 0 -12 26q0 8 -0.5 41t-1.5 43q-1 16 -18 16q-4 0 -74.5 -5t-94.5 -5q-27 0 -27 21
q0 20 31 20q131 0 147 4q31 8 31 70q0 7 -0.5 17.5t-0.5 12.5q0 37 23 37zM95 189q111 0 296 -9q72 -4 72 -19t-46 -15q-11 0 -70 1.5t-94 1.5q-39 0 -93 -3.5t-57 -3.5q-53 0 -53 23q0 24 45 24z" />
    <glyph glyph-name="twosuperior" unicode="&#xb2;" horiz-adv-x="365" 
d="M208 886q60 0 92.5 -35.5t32.5 -89.5q0 -59 -36 -106t-90 -76q-16 -9 -39 -19t-35 -16.5t-12 -10.5q0 -13 40 -41.5t75 -28.5q27 0 50 14t37 28t18 14t4 -4q0 -7 -9.5 -19.5t-31 -35.5t-28.5 -32q-7 -8 -22.5 -28.5l-26.5 -34t-15 -13.5q-3 0 -15.5 15l-33.5 39.5
t-40 41.5q-30 26 -57 43.5t-36.5 23t-9.5 8.5t15.5 6.5t47 16t61.5 34.5q47 34 70 78t23 86q0 38 -17 63.5t-53 25.5q-24 0 -43 -15.5t-29.5 -31.5t-14.5 -16q-5 0 -5 7q0 27 38.5 68t94.5 41z" />
    <glyph glyph-name="threesuperior" unicode="&#xb3;" horiz-adv-x="371" 
d="M247 871q10 0 10 -9q0 -14 -44 -78t-44 -65q0 -2 7.5 -2t25 -2.5t34.5 -7.5q48 -14 81.5 -52t33.5 -103q0 -84 -53.5 -129.5t-130.5 -45.5q-63 0 -105 41t-42 110q0 22 4.5 41.5t10 29.5t9.5 10q3 0 3 -5q0 -2 -1.5 -17t-1.5 -28q0 -56 28.5 -94t83.5 -38q47 0 73.5 32.5
t26.5 86.5q0 38 -18.5 66.5t-49.5 42.5q-12 5 -29 10l-27 8t-10 5q0 6 21 41q11 17 23 39.5t12 27.5q0 6 -43 6q-44 -2 -54 -15q-4 -5 -7.5 -17l-6 -21t-5.5 -9q-2 0 -3 3t-1.5 10l-1 14.5l-1.5 22t-2 27.5q-1 9 -2 20t-2 18.5t-1 11.5q0 12 13 12q6 0 39 -3t56 -3
q27 0 56 4t35 4z" />
    <glyph glyph-name="acute" unicode="&#xb4;" horiz-adv-x="235" 
d="M166 953q19 0 19 -22q0 -33 -62 -116q-47 -64 -65 -64q-7 0 -7 10q0 30 40.5 111t74.5 81z" />
    <glyph glyph-name="mu" unicode="&#xb5;" horiz-adv-x="635" 
d="M130 517q5 0 5 -8q0 -1 -3 -35.5t-3 -69.5q0 -67 9 -120q5 -33 15 -63t26 -58.5t41 -46t56 -17.5q55 0 79.5 43t24.5 108q0 13 -2 39q-3 37 -12.5 74t-16.5 60.5t-7 29.5q0 2 6.5 4.5t21.5 6.5t25 7l20.5 7.5t14.5 6t8.5 4t5.5 1.5t3.5 -2.5t3 -8.5t3 -13.5t2.5 -20.5
t2.5 -26t3 -32.5l3 -38t4 -45.5t4.5 -52q15 -157 82 -157q24 0 36 16.5t12 39.5q0 28 -12.5 51.5t-24.5 36.5t-12 17q0 7 7 7q21 0 47 -34.5t26 -80.5q0 -55 -24.5 -88t-75.5 -33q-31 0 -56.5 14t-39.5 34.5t-23.5 41t-14.5 34.5t-6 14t-4.5 -10t-11.5 -25t-19.5 -29.5
t-32.5 -24.5t-48 -10q-32 0 -59 12.5t-43 31t-24.5 32.5t-11.5 24q6 -135 15 -210q6 -55 14 -118.5l12.5 -97.5t4.5 -44q0 -7 -4 -10q-3 -1 -7 -1.5t-8.5 -1t-15 -1t-22.5 -1.5q-6 0 -24.5 -4t-23.5 -4q-7 0 -10 4q-5 7 -7.5 64.5t-7 194.5t-7.5 219q-8 179 -8 293
q0 52 3 54q2 1 4.5 1.5t12 1.5t23.5 4q42 9 46 9z" />
    <glyph glyph-name="mu" unicode="&#x3bc;" horiz-adv-x="635" 
d="M130 517q5 0 5 -8q0 -1 -3 -35.5t-3 -69.5q0 -67 9 -120q5 -33 15 -63t26 -58.5t41 -46t56 -17.5q55 0 79.5 43t24.5 108q0 13 -2 39q-3 37 -12.5 74t-16.5 60.5t-7 29.5q0 2 6.5 4.5t21.5 6.5t25 7l20.5 7.5t14.5 6t8.5 4t5.5 1.5t3.5 -2.5t3 -8.5t3 -13.5t2.5 -20.5
t2.5 -26t3 -32.5l3 -38t4 -45.5t4.5 -52q15 -157 82 -157q24 0 36 16.5t12 39.5q0 28 -12.5 51.5t-24.5 36.5t-12 17q0 7 7 7q21 0 47 -34.5t26 -80.5q0 -55 -24.5 -88t-75.5 -33q-31 0 -56.5 14t-39.5 34.5t-23.5 41t-14.5 34.5t-6 14t-4.5 -10t-11.5 -25t-19.5 -29.5
t-32.5 -24.5t-48 -10q-32 0 -59 12.5t-43 31t-24.5 32.5t-11.5 24q6 -135 15 -210q6 -55 14 -118.5l12.5 -97.5t4.5 -44q0 -7 -4 -10q-3 -1 -7 -1.5t-8.5 -1t-15 -1t-22.5 -1.5q-6 0 -24.5 -4t-23.5 -4q-7 0 -10 4q-5 7 -7.5 64.5t-7 194.5t-7.5 219q-8 179 -8 293
q0 52 3 54q2 1 4.5 1.5t12 1.5t23.5 4q42 9 46 9z" />
    <glyph glyph-name="paragraph" unicode="&#xb6;" horiz-adv-x="707" 
d="M664 841q11 0 11 -12q0 -8 -14 -18t-32 -20t-39 -31t-31 -48q-14 -34 -21.5 -123t-7.5 -165q0 -157 11.5 -320t33.5 -212q5 -12 14 -21.5t17 -15t20.5 -10t19.5 -5.5t20 -3.5t15 -2.5q26 -5 26 -14q0 -10 -20 -10q-14 0 -46.5 3.5t-54.5 3.5q-24 0 -62 -6.5t-50 -6.5
q-15 0 -17 22q-4 44 -4 161q0 141 5 341q8 312 8 338q0 48 -6 58t-34 10q-80 0 -100 -13q-7 -5 -12.5 -113t-5.5 -258q0 -79 15.5 -329t15.5 -298q0 -15 -13 -19q-6 -2 -43 -10.5t-66 -17.5q-20 -6 -53 -18t-53 -18.5t-31 -6.5q-19 0 -19 13q0 14 36 25q113 34 133 95
q10 26 10 135q0 100 -7 218t-15 155q-8 36 -49 51q-81 30 -125 75.5t-44 130.5q0 72 39.5 125t118.5 75q30 8 68 13t86 9t74 7q73 9 129 23.5t80.5 26.5l42.5 21.5t26 9.5z" />
    <glyph glyph-name="periodcentered" unicode="&#xb7;" horiz-adv-x="239" 
d="M121 456q34 0 51 -22t17 -51q0 -43 -19.5 -65t-49.5 -22q-31 0 -50.5 21.5t-19.5 56.5q0 37 20 59.5t51 22.5z" />
    <glyph glyph-name="cedilla" unicode="&#xb8;" horiz-adv-x="332" 
d="M169 96q8 0 8 -13q0 -6 -6 -38t-6 -40q0 -2 7 -3.5t21 -6t26 -11.5q62 -31 62 -103q0 -45 -31 -82t-90 -37q-53 0 -81 33.5t-28 65.5q0 14 6 14q4 0 13 -16t27.5 -32t43.5 -16q26 0 41.5 16t15.5 41q0 33 -19 50.5t-38.5 23t-19.5 8.5t5 19.5l12 39.5t10 36q1 5 2.5 11
t2.5 9.5t2 8t2 7t2 5.5t2 4.5t2.5 3t2.5 2t3 0.5z" />
    <glyph glyph-name="onesuperior" unicode="&#xb9;" horiz-adv-x="337" 
d="M248 877q6 0 6 -11q0 -3 -4 -27t-7.5 -64.5t-3.5 -84.5q0 -72 2 -109q3 -52 11.5 -81t34.5 -45l10.5 -5l10 -4.5t6.5 -4t3 -4.5q0 -7 -12 -7q-11 0 -30.5 4.5t-48.5 12.5t-51 13q-30 6 -73 11.5t-62.5 9.5t-19.5 11q0 6 9 6q4 0 24 -2.5t34 -2.5q27 0 41 10q42 28 42 198
q0 36 -16 36q-15 0 -53 -18t-43 -18q-6 0 -6 5q0 6 15.5 15l47 28.5t58.5 44.5q21 20 38 41.5l24.5 31.5t12.5 10z" />
    <glyph glyph-name="ordmasculine" unicode="&#xba;" horiz-adv-x="504" 
d="M242 762q104 0 167.5 -63.5t63.5 -157.5q0 -104 -54.5 -166t-161.5 -62q-38 0 -75.5 13t-72 38.5t-56 71t-21.5 104.5q0 106 60 164t150 58zM189 716q-46 0 -75 -34t-29 -89q0 -104 59 -177t150 -73q107 0 107 124q0 104 -57 176.5t-155 72.5z" />
    <glyph glyph-name="guillemotright" unicode="&#xbb;" horiz-adv-x="779" 
d="M60 555q3 0 5.5 -3.5t7.5 -14t8 -15.5q54 -98 168 -158q53 -29 114 -47t92 -25.5t31 -14.5t-12.5 -17.5t-37 -28.5l-54.5 -41t-71 -63t-79 -88q-37 -46 -68 -98t-44.5 -78.5t-18.5 -26.5q-7 0 -7 21q0 29 22.5 87.5t57.5 112.5q23 37 55.5 77l51.5 62.5t19 27.5
t-18.5 15.5t-56 36.5t-71.5 59q-49 46 -74.5 105t-25.5 95q0 20 6 20zM315 654q1 0 15 -22q41 -69 73.5 -107.5t85.5 -85.5q55 -49 117 -86.5t92.5 -54t30.5 -26.5q0 -11 -29.5 -33t-70 -49t-93 -78t-89.5 -110q-39 -62 -63 -131t-32 -105t-14 -36q-4 0 -7 8.5t-5.5 24.5
t-2.5 37q0 96 41 195q33 79 86 146.5t88.5 101t35.5 38.5q0 3 -31 26.5t-82.5 73.5t-91.5 110q-28 42 -42.5 86.5t-14.5 67.5q0 9 3 9z" />
    <glyph glyph-name="onequarter" unicode="&#xbc;" horiz-adv-x="877" 
d="M734 929q8 0 8 -10q0 -23 -133 -217l-409 -564l-35 -49t-34 -48q-19 -27 -29 -38.5t-19 -11.5q-11 0 -11 12q0 20 55 98l128 181l407 564l14.5 19.5t13 18.5t11 15l10.5 13t8.5 9t8 6t6.5 2zM650 583q7 0 10 -37q0 -3 8 -82t15.5 -139.5t13.5 -88.5q29 9 45 24
q18 15 27 38t12 37.5t6 14.5q5 0 5 -27v-33q0 -25 4.5 -59.5t4.5 -37.5t-2 -9q-8 -12 -66 -12h-23q13 -79 47 -110q30 -26 83 -26q17 0 17 -8q0 -10 -36 -10q-9 0 -47 2t-60 2q-32 0 -83 -11t-73 -11q-13 0 -13 9t14 12q41 9 53 23.5t12 54.5q0 33 -3 67q-7 0 -21 -2
q-13 -2 -45 -4q-42 -5 -113 -5q-17 0 -17 8q0 6 8.5 22.5t29 51t25.5 44.5q94 165 138 264q19 38 24 38zM617 217l-6 54q-16 138 -23 138q-3 0 -15 -21l-31 -57t-30 -54q-33 -62 -33 -71q0 -5 6 -5q21 0 70 6.5t62 9.5zM248 877q6 0 6 -11q0 -3 -4 -27t-7.5 -64.5
t-3.5 -84.5q0 -72 2 -109q3 -52 11.5 -81t34.5 -45l10.5 -5l10 -4.5t6.5 -4t3 -4.5q0 -7 -12 -7q-11 0 -30.5 4.5t-48.5 12.5t-51 13q-30 6 -73 11.5t-62.5 9.5t-19.5 11q0 6 9 6q4 0 24 -2.5t34 -2.5q27 0 41 10q42 28 42 198q0 36 -16 36q-15 0 -53 -18t-43 -18q-6 0 -6 5
q0 6 15.5 15l47 28.5t58.5 44.5q21 20 38 41.5l24.5 31.5t12.5 10z" />
    <glyph glyph-name="onehalf" unicode="&#xbd;" horiz-adv-x="762" 
d="M734 929q8 0 8 -10q0 -23 -133 -217l-409 -564l-35 -49t-34 -48q-19 -27 -29 -38.5t-19 -11.5q-11 0 -11 12q0 20 55 98l128 181l407 564l14.5 19.5t13 18.5t11 15l10.5 13t8.5 9t8 6t6.5 2zM596 509q60 0 92.5 -35.5t32.5 -89.5q0 -59 -36 -106t-90 -76q-16 -9 -39 -19
t-35 -16.5t-12 -10.5q0 -13 40 -41.5t75 -28.5q27 0 50 14t36.5 28t18.5 14q4 0 4 -4q0 -7 -9.5 -19.5t-31 -35.5t-28.5 -32q-7 -8 -22.5 -28.5l-26.5 -34t-15 -13.5q-3 0 -15.5 15l-33.5 39.5t-40 41.5q-30 26 -57 43.5t-36.5 23t-9.5 8.5t15.5 6.5t47 16t61.5 34.5
q47 34 70 78t23 86q0 39 -17 64t-53 25q-24 0 -43 -16t-29.5 -31.5t-14.5 -15.5q-5 0 -5 7q0 27 38.5 68t94.5 41zM248 877q6 0 6 -11q0 -3 -4 -27t-7.5 -64.5t-3.5 -84.5q0 -72 2 -109q3 -52 11.5 -81t34.5 -45l10.5 -5l10 -4.5t6.5 -4t3 -4.5q0 -7 -12 -7q-11 0 -30.5 4.5
t-48.5 12.5t-51 13q-30 6 -73 11.5t-62.5 9.5t-19.5 11q0 6 9 6q4 0 24 -2.5t34 -2.5q27 0 41 10q42 28 42 198q0 36 -16 36q-15 0 -53 -18t-43 -18q-6 0 -6 5q0 6 15.5 15l47 28.5t58.5 44.5q21 20 38 41.5l24.5 31.5t12.5 10z" />
    <glyph glyph-name="threequarters" unicode="&#xbe;" horiz-adv-x="923" 
d="M790 929q8 0 8 -10q0 -23 -133 -217l-409 -564l-35 -49t-34 -48q-19 -27 -29 -38.5t-19 -11.5q-11 0 -11 12q0 20 55 98l128 181l407 564l14.5 19.5t13 18.5t11 15l10.5 13t8.5 9t8 6t6.5 2zM696 583q7 0 10 -37q0 -3 8 -82t15.5 -139.5t13.5 -88.5q29 9 45 24
q18 15 27 38t12 37.5t6 14.5q5 0 5 -27v-33q0 -25 4.5 -59.5t4.5 -37.5t-2 -9q-8 -12 -66 -12h-23q13 -79 47 -110q30 -26 83 -26q17 0 17 -8q0 -10 -36 -10q-9 0 -47 2t-60 2q-32 0 -83 -11t-73 -11q-13 0 -13 9t14 12q41 9 53 23.5t12 54.5q0 33 -3 67q-7 0 -21 -2
q-13 -2 -45 -4q-42 -5 -113 -5q-17 0 -17 8q0 6 8.5 22.5t29 51t25.5 44.5q94 165 138 264q19 38 24 38zM663 217l-6 54q-16 138 -23 138q-3 0 -15 -21l-31 -57t-30 -54q-33 -62 -33 -71q0 -5 6 -5q21 0 70 6.5t62 9.5zM247 871q10 0 10 -9q0 -14 -44 -78t-44 -65
q0 -2 7.5 -2t25 -2.5t34.5 -7.5q48 -14 81.5 -52t33.5 -103q0 -84 -53.5 -129.5t-130.5 -45.5q-63 0 -105 41t-42 110q0 22 4.5 41.5t10 29.5t9.5 10q3 0 3 -5q0 -2 -1.5 -17t-1.5 -28q0 -56 28.5 -94t83.5 -38q47 0 73.5 32.5t26.5 86.5q0 38 -18.5 66.5t-49.5 42.5
q-12 5 -29 10l-27 8t-10 5q0 6 21 41q11 17 23 39.5t12 27.5q0 6 -43 6q-44 -2 -54 -15q-4 -5 -7.5 -17l-6 -21t-5.5 -9q-2 0 -3 3t-1.5 10l-1 14.5l-1.5 22t-2 27.5q-1 9 -2 20t-2 18.5t-1 11.5q0 12 13 12q6 0 39 -3t56 -3q27 0 56 4t35 4z" />
    <glyph glyph-name="questiondown" unicode="&#xbf;" horiz-adv-x="572" 
d="M311 775q30 0 53 -21.5t23 -59.5q0 -41 -25 -61.5t-56 -20.5q-36 0 -57.5 20t-21.5 57q0 41 24.5 63.5t59.5 22.5zM255 582q34 0 62 -33q22 -27 22 -61q0 -37 -16 -73t-38.5 -66l-45.5 -63t-39 -78.5t-16 -97.5q0 -101 46 -147t110 -46q61 0 92.5 33t31.5 80q0 64 -82 97
q-67 27 -67 86q0 40 26 65t68 25q66 0 105 -41.5t39 -106.5q0 -45 -13 -88.5t-40 -85t-79 -67.5t-122 -26q-142 0 -208.5 58.5t-66.5 151.5q0 60 29.5 110t71 84t83 64t71 63.5t29.5 68.5q0 27 -16 45.5t-31.5 27.5t-15.5 14q0 7 10 7z" />
    <glyph glyph-name="Agrave" unicode="&#xc0;" 
d="M416 820q4 0 10 -12.5t12.5 -31.5l7.5 -22q204 -613 230 -681q22 -59 44 -78t66 -29q15 -3 15 -11q0 -9 -18 -9q-5 0 -27 0.5t-38 0.5q-36 0 -78 -3q-49 -4 -108 -19t-69 -15q-12 0 -12 10q0 12 17 17q36 7 63 20q25 13 25 41q0 13 -3 23q-45 177 -69 239q-19 47 -58 66
q-9 5 -167 57l-29 -94l-28 -90.5l-14 -46.5q-7 -24 -7 -41q0 -18 8 -30.5t16.5 -17.5t25.5 -12q21 -11 21 -20q0 -11 -15 -11q-10 0 -28 6t-44.5 16.5t-43.5 15.5q-51 14 -98 17q-23 3 -23 13q0 11 14 11q1 0 10.5 -0.5t17.5 -0.5q44 0 64 11.5t32 39.5q35 73 94 255
q78 244 78 282q0 23 -23 23q-14 0 -51 -4.5t-49 -4.5q-18 0 -18 13q0 11 17 13q71 5 124 29q28 13 52 29.5t36.5 26t17.5 9.5zM334 621l-67 -212q134 -47 162 -47q15 0 15 17q0 15 -61 228q-2 4 -7.5 22.5t-10 30.5t-7.5 12q-4 0 -12 -18t-12 -33zM188 1036q35 0 85 -80
q59 -89 59 -113q0 -13 -10 -13q-11 0 -41.5 25t-60.5 57q-66 66 -66 92q0 16 10 24t24 8z" />
    <glyph glyph-name="Aacute" unicode="&#xc1;" 
d="M416 820q4 0 10 -12.5t12.5 -31.5l7.5 -22q204 -613 230 -681q22 -59 44 -78t66 -29q15 -3 15 -11q0 -9 -18 -9q-5 0 -27 0.5t-38 0.5q-36 0 -78 -3q-49 -4 -108 -19t-69 -15q-12 0 -12 10q0 12 17 17q36 7 63 20q25 13 25 41q0 13 -3 23q-45 177 -69 239q-19 47 -58 66
q-9 5 -167 57l-29 -94l-28 -90.5l-14 -46.5q-7 -24 -7 -41q0 -18 8 -30.5t16.5 -17.5t25.5 -12q21 -11 21 -20q0 -11 -15 -11q-10 0 -28 6t-44.5 16.5t-43.5 15.5q-51 14 -98 17q-23 3 -23 13q0 11 14 11q1 0 10.5 -0.5t17.5 -0.5q44 0 64 11.5t32 39.5q35 73 94 255
q78 244 78 282q0 23 -23 23q-14 0 -51 -4.5t-49 -4.5q-18 0 -18 13q0 11 17 13q71 5 124 29q28 13 52 29.5t36.5 26t17.5 9.5zM334 621l-67 -212q134 -47 162 -47q15 0 15 17q0 15 -61 228q-2 4 -7.5 22.5t-10 30.5t-7.5 12q-4 0 -12 -18t-12 -33zM432 1061q19 0 19 -22
q0 -33 -62 -116q-47 -64 -65 -64q-7 0 -7 10q0 30 40.5 111t74.5 81z" />
    <glyph glyph-name="Acircumflex" unicode="&#xc2;" 
d="M416 820q4 0 10 -12.5t12.5 -31.5l7.5 -22q204 -613 230 -681q22 -59 44 -78t66 -29q15 -3 15 -11q0 -9 -18 -9q-5 0 -27 0.5t-38 0.5q-36 0 -78 -3q-49 -4 -108 -19t-69 -15q-12 0 -12 10q0 12 17 17q36 7 63 20q25 13 25 41q0 13 -3 23q-45 177 -69 239q-19 47 -58 66
q-9 5 -167 57l-29 -94l-28 -90.5l-14 -46.5q-7 -24 -7 -41q0 -18 8 -30.5t16.5 -17.5t25.5 -12q21 -11 21 -20q0 -11 -15 -11q-10 0 -28 6t-44.5 16.5t-43.5 15.5q-51 14 -98 17q-23 3 -23 13q0 11 14 11q1 0 10.5 -0.5t17.5 -0.5q44 0 64 11.5t32 39.5q35 73 94 255
q78 244 78 282q0 23 -23 23q-14 0 -51 -4.5t-49 -4.5q-18 0 -18 13q0 11 17 13q71 5 124 29q28 13 52 29.5t36.5 26t17.5 9.5zM334 621l-67 -212q134 -47 162 -47q15 0 15 17q0 15 -61 228q-2 4 -7.5 22.5t-10 30.5t-7.5 12q-4 0 -12 -18t-12 -33zM377 1059q4 0 23 -25
q33 -46 76 -86q20 -19 40.5 -34.5t31 -22t17.5 -13.5t7 -14q0 -11 -15 -11q-41 0 -100 43q-25 19 -46 39.5l-30.5 30t-13.5 9.5q-3 0 -13.5 -11l-31 -33t-40.5 -40q-70 -63 -88 -63q-4 0 -4 4t19.5 23.5t54.5 58t63 79.5q41 66 50 66z" />
    <glyph glyph-name="Atilde" unicode="&#xc3;" 
d="M416 820q4 0 10 -12.5t12.5 -31.5l7.5 -22q204 -613 230 -681q22 -59 44 -78t66 -29q15 -3 15 -11q0 -9 -18 -9q-5 0 -27 0.5t-38 0.5q-36 0 -78 -3q-49 -4 -108 -19t-69 -15q-12 0 -12 10q0 12 17 17q36 7 63 20q25 13 25 41q0 13 -3 23q-45 177 -69 239q-19 47 -58 66
q-9 5 -167 57l-29 -94l-28 -90.5l-14 -46.5q-7 -24 -7 -41q0 -18 8 -30.5t16.5 -17.5t25.5 -12q21 -11 21 -20q0 -11 -15 -11q-10 0 -28 6t-44.5 16.5t-43.5 15.5q-51 14 -98 17q-23 3 -23 13q0 11 14 11q1 0 10.5 -0.5t17.5 -0.5q44 0 64 11.5t32 39.5q35 73 94 255
q78 244 78 282q0 23 -23 23q-14 0 -51 -4.5t-49 -4.5q-18 0 -18 13q0 11 17 13q71 5 124 29q28 13 52 29.5t36.5 26t17.5 9.5zM334 621l-67 -212q134 -47 162 -47q15 0 15 17q0 15 -61 228q-2 4 -7.5 22.5t-10 30.5t-7.5 12q-4 0 -12 -18t-12 -33zM280 1017q30 0 88 -40.5
t88 -40.5q15 0 27 8t19 16.5t10 8.5q8 0 8 -18q0 -39 -21.5 -68.5t-64.5 -29.5q-38 0 -74 28t-63.5 56t-45.5 28q-17 0 -28 -18.5t-17 -37t-11 -18.5t-5 15q0 18 7.5 42t29.5 46.5t53 22.5z" />
    <glyph glyph-name="Adieresis" unicode="&#xc4;" 
d="M416 820q4 0 10 -12.5t12.5 -31.5l7.5 -22q204 -613 230 -681q22 -59 44 -78t66 -29q15 -3 15 -11q0 -9 -18 -9q-5 0 -27 0.5t-38 0.5q-36 0 -78 -3q-49 -4 -108 -19t-69 -15q-12 0 -12 10q0 12 17 17q36 7 63 20q25 13 25 41q0 13 -3 23q-45 177 -69 239q-19 47 -58 66
q-9 5 -167 57l-29 -94l-28 -90.5l-14 -46.5q-7 -24 -7 -41q0 -18 8 -30.5t16.5 -17.5t25.5 -12q21 -11 21 -20q0 -11 -15 -11q-10 0 -28 6t-44.5 16.5t-43.5 15.5q-51 14 -98 17q-23 3 -23 13q0 11 14 11q1 0 10.5 -0.5t17.5 -0.5q44 0 64 11.5t32 39.5q35 73 94 255
q78 244 78 282q0 23 -23 23q-14 0 -51 -4.5t-49 -4.5q-18 0 -18 13q0 11 17 13q71 5 124 29q28 13 52 29.5t36.5 26t17.5 9.5zM334 621l-67 -212q134 -47 162 -47q15 0 15 17q0 15 -61 228q-2 4 -7.5 22.5t-10 30.5t-7.5 12q-4 0 -12 -18t-12 -33zM295 1018q28 0 46 -16.5
t18 -47.5q0 -37 -19 -57.5t-49 -20.5q-29 0 -47 18.5t-18 52.5q0 33 19.5 52t49.5 19zM466 994q27 0 40 -16t13 -36q0 -28 -15 -45.5t-44 -17.5q-50 0 -50 57q0 25 15 41.5t41 16.5z" />
    <glyph glyph-name="Aring" unicode="&#xc5;" 
d="M416 820q4 0 10 -12.5t12.5 -31.5l7.5 -22q204 -613 230 -681q22 -59 44 -78t66 -29q15 -3 15 -11q0 -9 -18 -9q-5 0 -27 0.5t-38 0.5q-36 0 -78 -3q-49 -4 -108 -19t-69 -15q-12 0 -12 10q0 12 17 17q36 7 63 20q25 13 25 41q0 13 -3 23q-45 177 -69 239q-19 47 -58 66
q-9 5 -167 57l-29 -94l-28 -90.5l-14 -46.5q-7 -24 -7 -41q0 -18 8 -30.5t16.5 -17.5t25.5 -12q21 -11 21 -20q0 -11 -15 -11q-10 0 -28 6t-44.5 16.5t-43.5 15.5q-51 14 -98 17q-23 3 -23 13q0 11 14 11q1 0 10.5 -0.5t17.5 -0.5q44 0 64 11.5t32 39.5q35 73 94 255
q78 244 78 282q0 23 -23 23q-14 0 -51 -4.5t-49 -4.5q-18 0 -18 13q0 11 17 13q71 5 124 29q28 13 52 29.5t36.5 26t17.5 9.5zM334 621l-67 -212q134 -47 162 -47q15 0 15 17q0 15 -61 228q-2 4 -7.5 22.5t-10 30.5t-7.5 12q-4 0 -12 -18t-12 -33zM374 1101q55 0 85.5 -33.5
t30.5 -90.5q0 -56 -32 -94.5t-80 -38.5q-55 0 -86.5 33t-31.5 93t34.5 95.5t79.5 35.5zM376 1082q-30 0 -51.5 -24.5t-21.5 -66.5t22.5 -63t52.5 -21q37 0 56 26.5t19 62.5q0 37 -21 61.5t-56 24.5z" />
    <glyph glyph-name="AE" unicode="&#xc6;" horiz-adv-x="1173" 
d="M974 847q14 0 14 -25q0 -50 -15 -138t-24 -88q-4 0 -4 15q0 11 1 31t1 41q0 65 -20 86q-9 9 -32 9q-21 0 -87 -14q-48 -11 -79 -24q-24 -11 -24 -36q0 -41 14 -139q6 -55 23 -145q3 -9 15 -9q26 0 63.5 8t54.5 25q15 14 25 42t16 48.5t12 20.5q8 0 8 -19q0 -6 -2.5 -34
t-2.5 -50q0 -46 11 -106t11 -76q0 -12 -9 -12q-8 0 -14 16t-12.5 43.5t-13.5 41.5q-12 26 -45 26q-54 0 -97 -15q-9 -4 -9 -15q0 -19 16 -118q31 -181 57 -191q4 -2 16 -2q42 0 114.5 30t102.5 66q40 47 51 169q0 32 14 32q12 0 13 -21q1 -7 3.5 -46.5t4.5 -61.5
q3 -31 9.5 -63t12 -51t5.5 -22q0 -5 -11.5 -7.5t-38.5 -5.5t-42 -6q-170 -29 -324 -93q-20 -9 -70.5 -36.5t-92 -48t-56.5 -20.5q-10 0 -10 9t16.5 18t42.5 26t42 42q18 29 18 100q0 87 -14 169q-5 22 -32 22q-37 0 -87 -5q-57 -7 -74.5 -10.5t-26.5 -13.5q-15 -16 -77 -147
q-20 -38 -41.5 -91.5t-21.5 -77.5q0 -16 15.5 -22t53.5 -8q26 0 26 -13q0 -14 -24 -14q-4 0 -59.5 5.5t-96.5 5.5q-36 0 -97.5 -7t-68.5 -7q-21 0 -21 11q0 10 20 14q1 0 19.5 3t36 7t41 11t46 19.5t39.5 29.5q16 16 32.5 38t35.5 55.5l32 56.5t35.5 71l32 68.5l35 78.5
l32.5 73q100 224 100 293q0 21 -24 27l-105 14q-27 2 -27 12q0 9 32 9q125 0 245 24q77 15 151.5 38t115.5 38.5t49 15.5zM592 672q-3 0 -12 -24.5t-32.5 -84l-49.5 -119.5q-10 -20 -37.5 -89t-27.5 -76q0 -6 11 -6q52 0 75 2q56 2 75 6q19 5 24 15.5t5 35.5q0 27 -8 151
q-14 189 -23 189z" />
    <glyph glyph-name="Ccedilla" unicode="&#xc7;" horiz-adv-x="742" 
d="M649 845q10 0 10 -24q0 -1 -1 -23.5t-1 -43.5q0 -25 1 -47.5t3.5 -42t4.5 -32.5t6.5 -29.5l6 -22l5.5 -20.5l5 -14q12 -39 12 -47t-6 -8q-18 3 -57 61q-47 63 -101 93.5t-139 30.5q-107 0 -175.5 -83.5t-68.5 -242.5q0 -88 19 -158.5t49 -114.5t70 -73t78 -41t76 -12
q64 0 114 23.5t78 62t43 76t21 77.5q2 12 4 37t4.5 36t7.5 11q14 0 14 -50q0 -21 -3.5 -46t-13.5 -63t-32 -72.5t-53 -66.5t-83.5 -52.5t-117.5 -24.5q-11 -55 -11 -67q0 -2 7 -3.5t21 -6t26 -11.5q62 -31 62 -103q0 -45 -31 -82t-90 -37q-53 0 -81 33.5t-28 65.5q0 14 6 14
q4 0 13 -16t27 -32t44 -16q27 0 42 16t15 41q0 33 -19.5 51t-38.5 23t-19 8t5 19.5l12 39.5t10 36l6 26h-4q-74 0 -142.5 23t-127 68t-93.5 123t-35 179q0 96 25.5 170.5t64.5 119t92 73t102 39t100 10.5q44 0 98 -7.5t68 -7.5q53 0 66 51q5 19 8 49t7 43.5t13 13.5z" />
    <glyph glyph-name="Egrave" unicode="&#xc8;" horiz-adv-x="557" 
d="M490 802q13 0 13 -14q0 -3 -4 -48t-4 -98q0 -16 -9 -16q-8 0 -11 16q-2 7 -9 65q-5 33 -19.5 42t-38.5 9q-37 0 -91 -5t-69 -10q-23 -5 -23 -34q0 -33 12 -303q28 -4 52 -4q52 0 65 30q3 9 7 30q3 15 10 15t7 -12q0 -13 -4 -59t-4 -67q0 -20 1 -50.5t1 -33.5
q0 -19 -12 -19q-11 0 -13 20q-5 64 -6 68q-8 22 -29 29q-12 4 -73 9q22 -355 26 -376q4 -37 37 -41q20 -3 47 -3q77 0 116.5 18t58.5 67q5 14 10.5 33t9 29t6.5 10q7 0 7 -30q0 -34 -6.5 -80t-13.5 -66q-11 -28 -46 -28q-18 0 -109.5 10t-152.5 13q-87 5 -187 5
q-22 0 -22 13t19 13q1 0 18 -1t32 -1q17 0 27 1q22 1 33 11t12.5 18t1.5 21q-1 56 -6.5 128t-14 152.5t-9.5 88.5q-14 159 -38 284q-13 65 -43 87q-5 4 -16.5 10.5t-18.5 11.5t-7 10q0 8 13 8q1 0 49.5 -5.5t101.5 -5.5q44 0 118.5 8.5t133 17.5t64.5 9zM118 1043
q35 0 85 -80q59 -89 59 -113q0 -13 -10 -13q-11 0 -41.5 25t-60.5 57q-66 66 -66 92q0 16 10 24t24 8z" />
    <glyph glyph-name="Eacute" unicode="&#xc9;" horiz-adv-x="557" 
d="M490 802q13 0 13 -14q0 -3 -4 -48t-4 -98q0 -16 -9 -16q-8 0 -11 16q-2 7 -9 65q-5 33 -19.5 42t-38.5 9q-37 0 -91 -5t-69 -10q-23 -5 -23 -34q0 -33 12 -303q28 -4 52 -4q52 0 65 30q3 9 7 30q3 15 10 15t7 -12q0 -13 -4 -59t-4 -67q0 -20 1 -50.5t1 -33.5
q0 -19 -12 -19q-11 0 -13 20q-5 64 -6 68q-8 22 -29 29q-12 4 -73 9q22 -355 26 -376q4 -37 37 -41q20 -3 47 -3q77 0 116.5 18t58.5 67q5 14 10.5 33t9 29t6.5 10q7 0 7 -30q0 -34 -6.5 -80t-13.5 -66q-11 -28 -46 -28q-18 0 -109.5 10t-152.5 13q-87 5 -187 5
q-22 0 -22 13t19 13q1 0 18 -1t32 -1q17 0 27 1q22 1 33 11t12.5 18t1.5 21q-1 56 -6.5 128t-14 152.5t-9.5 88.5q-14 159 -38 284q-13 65 -43 87q-5 4 -16.5 10.5t-18.5 11.5t-7 10q0 8 13 8q1 0 49.5 -5.5t101.5 -5.5q44 0 118.5 8.5t133 17.5t64.5 9zM377 1050
q19 0 19 -22q0 -33 -62 -116q-47 -64 -65 -64q-7 0 -7 10q0 30 40.5 111t74.5 81z" />
    <glyph glyph-name="Ecircumflex" unicode="&#xca;" horiz-adv-x="557" 
d="M490 802q13 0 13 -14q0 -3 -4 -48t-4 -98q0 -16 -9 -16q-8 0 -11 16q-2 7 -9 65q-5 33 -19.5 42t-38.5 9q-37 0 -91 -5t-69 -10q-23 -5 -23 -34q0 -33 12 -303q28 -4 52 -4q52 0 65 30q3 9 7 30q3 15 10 15t7 -12q0 -13 -4 -59t-4 -67q0 -20 1 -50.5t1 -33.5
q0 -19 -12 -19q-11 0 -13 20q-5 64 -6 68q-8 22 -29 29q-12 4 -73 9q22 -355 26 -376q4 -37 37 -41q20 -3 47 -3q77 0 116.5 18t58.5 67q5 14 10.5 33t9 29t6.5 10q7 0 7 -30q0 -34 -6.5 -80t-13.5 -66q-11 -28 -46 -28q-18 0 -109.5 10t-152.5 13q-87 5 -187 5
q-22 0 -22 13t19 13q1 0 18 -1t32 -1q17 0 27 1q22 1 33 11t12.5 18t1.5 21q-1 56 -6.5 128t-14 152.5t-9.5 88.5q-14 159 -38 284q-13 65 -43 87q-5 4 -16.5 10.5t-18.5 11.5t-7 10q0 8 13 8q1 0 49.5 -5.5t101.5 -5.5q44 0 118.5 8.5t133 17.5t64.5 9zM280 1079
q4 0 23 -25q33 -46 76 -86q20 -19 40.5 -34.5t31 -22t17.5 -13.5t7 -14q0 -11 -15 -11q-41 0 -100 43q-25 19 -46 39.5l-30.5 30t-13.5 9.5q-3 0 -13.5 -11l-31 -33t-40.5 -40q-70 -63 -88 -63q-4 0 -4 4t19.5 23.5t54.5 58t63 79.5q41 66 50 66z" />
    <glyph glyph-name="Edieresis" unicode="&#xcb;" horiz-adv-x="557" 
d="M490 802q13 0 13 -14q0 -3 -4 -48t-4 -98q0 -16 -9 -16q-8 0 -11 16q-2 7 -9 65q-5 33 -19.5 42t-38.5 9q-37 0 -91 -5t-69 -10q-23 -5 -23 -34q0 -33 12 -303q28 -4 52 -4q52 0 65 30q3 9 7 30q3 15 10 15t7 -12q0 -13 -4 -59t-4 -67q0 -20 1 -50.5t1 -33.5
q0 -19 -12 -19q-11 0 -13 20q-5 64 -6 68q-8 22 -29 29q-12 4 -73 9q22 -355 26 -376q4 -37 37 -41q20 -3 47 -3q77 0 116.5 18t58.5 67q5 14 10.5 33t9 29t6.5 10q7 0 7 -30q0 -34 -6.5 -80t-13.5 -66q-11 -28 -46 -28q-18 0 -109.5 10t-152.5 13q-87 5 -187 5
q-22 0 -22 13t19 13q1 0 18 -1t32 -1q17 0 27 1q22 1 33 11t12.5 18t1.5 21q-1 56 -6.5 128t-14 152.5t-9.5 88.5q-14 159 -38 284q-13 65 -43 87q-5 4 -16.5 10.5t-18.5 11.5t-7 10q0 8 13 8q1 0 49.5 -5.5t101.5 -5.5q44 0 118.5 8.5t133 17.5t64.5 9zM194 990
q28 0 46 -16.5t18 -47.5q0 -37 -19 -57.5t-49 -20.5q-29 0 -47 18.5t-18 52.5q0 33 19.5 52t49.5 19zM365 966q27 0 40 -16t13 -36q0 -28 -15 -45.5t-44 -17.5q-50 0 -50 57q0 25 15 41.5t41 16.5z" />
    <glyph glyph-name="Igrave" unicode="&#xcc;" horiz-adv-x="439" 
d="M448 846q49 0 49 -18t-45 -18q-56 0 -85 -8q-34 -9 -55.5 -37t-32.5 -83q-20 -95 -39.5 -318t-19.5 -364q0 -33 9 -52.5t16.5 -23.5t19.5 -7q18 -5 61 -5q24 0 24 -13q0 -16 -30 -16q-6 0 -22.5 0.5t-27.5 0.5q-49 0 -106 -8q-46 -7 -116.5 -32.5t-84.5 -25.5
q-13 0 -13 11q0 9 12 13q1 0 29 10l56 20.5t39 17.5q27 16 38 39t14 61q5 87 5 352q0 212 -3 311q-1 66 -13 92.5t-34 40.5q-29 19 -89 19q-21 0 -21 14q0 16 30 16q13 0 81 -4.5t110 -4.5q41 0 125.5 10t118.5 10zM121 1091q35 0 85 -80q59 -89 59 -113q0 -13 -10 -13
q-11 0 -41.5 25t-60.5 57q-66 66 -66 92q0 16 10 24t24 8z" />
    <glyph glyph-name="Iacute" unicode="&#xcd;" horiz-adv-x="439" 
d="M448 846q49 0 49 -18t-45 -18q-56 0 -85 -8q-34 -9 -55.5 -37t-32.5 -83q-20 -95 -39.5 -318t-19.5 -364q0 -33 9 -52.5t16.5 -23.5t19.5 -7q18 -5 61 -5q24 0 24 -13q0 -16 -30 -16q-6 0 -22.5 0.5t-27.5 0.5q-49 0 -106 -8q-46 -7 -116.5 -32.5t-84.5 -25.5
q-13 0 -13 11q0 9 12 13q1 0 29 10l56 20.5t39 17.5q27 16 38 39t14 61q5 87 5 352q0 212 -3 311q-1 66 -13 92.5t-34 40.5q-29 19 -89 19q-21 0 -21 14q0 16 30 16q13 0 81 -4.5t110 -4.5q41 0 125.5 10t118.5 10zM363 1088q19 0 19 -22q0 -33 -62 -116q-47 -64 -65 -64
q-7 0 -7 10q0 30 40.5 111t74.5 81z" />
    <glyph glyph-name="Icircumflex" unicode="&#xce;" horiz-adv-x="439" 
d="M448 846q49 0 49 -18t-45 -18q-56 0 -85 -8q-34 -9 -55.5 -37t-32.5 -83q-20 -95 -39.5 -318t-19.5 -364q0 -33 9 -52.5t16.5 -23.5t19.5 -7q18 -5 61 -5q24 0 24 -13q0 -16 -30 -16q-6 0 -22.5 0.5t-27.5 0.5q-49 0 -106 -8q-46 -7 -116.5 -32.5t-84.5 -25.5
q-13 0 -13 11q0 9 12 13q1 0 29 10l56 20.5t39 17.5q27 16 38 39t14 61q5 87 5 352q0 212 -3 311q-1 66 -13 92.5t-34 40.5q-29 19 -89 19q-21 0 -21 14q0 16 30 16q13 0 81 -4.5t110 -4.5q41 0 125.5 10t118.5 10zM248 1111q4 0 23 -25q33 -46 76 -86q20 -19 40.5 -34.5
t31 -22t17.5 -13.5t7 -14q0 -11 -15 -11q-41 0 -100 43q-25 19 -46 39.5l-30.5 30t-13.5 9.5q-3 0 -13.5 -11l-31 -33t-40.5 -40q-70 -63 -88 -63q-4 0 -4 4t19.5 23.5t54.5 58t63 79.5q41 66 50 66z" />
    <glyph glyph-name="Idieresis" unicode="&#xcf;" horiz-adv-x="439" 
d="M448 846q49 0 49 -18t-45 -18q-56 0 -85 -8q-34 -9 -55.5 -37t-32.5 -83q-20 -95 -39.5 -318t-19.5 -364q0 -33 9 -52.5t16.5 -23.5t19.5 -7q18 -5 61 -5q24 0 24 -13q0 -16 -30 -16q-6 0 -22.5 0.5t-27.5 0.5q-49 0 -106 -8q-46 -7 -116.5 -32.5t-84.5 -25.5
q-13 0 -13 11q0 9 12 13q1 0 29 10l56 20.5t39 17.5q27 16 38 39t14 61q5 87 5 352q0 212 -3 311q-1 66 -13 92.5t-34 40.5q-29 19 -89 19q-21 0 -21 14q0 16 30 16q13 0 81 -4.5t110 -4.5q41 0 125.5 10t118.5 10zM153 1043q28 0 46 -16.5t18 -47.5q0 -37 -19 -57.5
t-49 -20.5q-29 0 -47 18.5t-18 52.5q0 33 19.5 52t49.5 19zM324 1019q27 0 40 -16t13 -36q0 -28 -15 -45.5t-44 -17.5q-50 0 -50 57q0 25 15 41.5t41 16.5z" />
    <glyph glyph-name="Eth" unicode="&#xd0;" horiz-adv-x="731" 
d="M202 576q28 2 90 11t99 9q52 0 99.5 -10t94 -33.5t80.5 -59.5t55 -92t21 -127q0 -110 -54.5 -187.5t-145.5 -121.5q-83 -39 -209.5 -60t-145.5 -27q-43 -13 -84 -35.5t-64.5 -38t-29.5 -15.5q-8 0 -8 7t21 22.5t52 40.5t48 50q36 53 36 293q-88 -15 -125 -15
q-16 0 -16 15q0 16 19 18q53 4 123 15q3 55 3 140q0 81 -4 114q-1 21 -11 32t-20 13t-31.5 2.5t-31.5 1.5q-21 3 -21 19q0 18 30 18q2 0 22.5 -1t38.5 -1q29 0 69 3zM351 263q19 0 19 -11q0 -13 -32 -21q-26 -6 -71 -12q0 -106 10 -206q4 -38 19.5 -52.5t46.5 -14.5
q27 0 67 18t69 45q85 82 85 268q0 121 -63.5 201t-173.5 80q-39 0 -50 -11t-11 -70v-226q74 12 85 12z" />
    <glyph glyph-name="Ntilde" unicode="&#xd1;" horiz-adv-x="800" 
d="M232 717q8 -3 20.5 -13.5t30 -29.5l34.5 -37.5l43 -47.5l46 -51l52.5 -58.5l51.5 -58.5l42 -47t35.5 -35t21.5 -12q10 0 15 54t5 105q0 105 -14 136q-11 23 -30 32t-64 14q-25 3 -25 15q0 11 17 11q3 0 39 -2t62 -2q41 0 102.5 12.5t68.5 12.5q15 0 15 -12t-19 -16
q-47 -10 -61 -15q-37 -12 -47 -69q-10 -55 -18 -412q-3 -152 -15 -152q-14 0 -106.5 114.5t-134.5 174.5l-86.5 119l-58 77.5t-46 56.5t-19.5 14q-7 0 -7 -183q0 -75 0.5 -197t0.5 -133q0 -161 20 -200q28 -53 91 -72q22 -7 22 -15q0 -9 -15 -9q-11 0 -29 4.5t-43 12
t-42 11.5q-37 9 -73 9q-18 0 -47 -2t-30 -2q-27 0 -27 11q0 10 23 10q39 0 65 17q39 26 46 94q7 63 7 188q0 10 -0.5 33.5t-0.5 37.5q0 391 -23 438q-7 14 -23 20.5t-30 7.5t-46 2q-28 0 -28 17q0 15 19 15h42q30 0 75 3l38.5 4t39.5 3q12 0 18 -3zM409 960q30 0 88 -40.5
t88 -40.5q15 0 27 8t19 16.5t10 8.5q8 0 8 -18q0 -39 -21.5 -68.5t-64.5 -29.5q-38 0 -74 28t-63.5 56t-45.5 28q-17 0 -28 -18.5t-17 -37t-11 -18.5t-5 15q0 18 7.5 42t29.5 46.5t53 22.5z" />
    <glyph glyph-name="Ograve" unicode="&#xd2;" horiz-adv-x="747" 
d="M357 762q172 0 278 -103t106 -266q0 -71 -22.5 -136t-65.5 -118t-114 -84.5t-161 -31.5q-179 0 -276 103.5t-97 272.5q0 159 98.5 261t253.5 102zM337 737q-95 0 -151.5 -83t-56.5 -223q0 -66 13.5 -129t41.5 -121.5t81 -94.5t123 -36q56 0 98 23t65.5 63t35 87t11.5 100
q0 56 -6.5 109t-25 110t-46.5 99t-75 69t-108 27zM209 1060q35 0 85 -80q59 -89 59 -113q0 -13 -10 -13q-11 0 -41.5 25t-60.5 57q-66 66 -66 92q0 16 10 24t24 8z" />
    <glyph glyph-name="Oacute" unicode="&#xd3;" horiz-adv-x="747" 
d="M357 762q172 0 278 -103t106 -266q0 -71 -22.5 -136t-65.5 -118t-114 -84.5t-161 -31.5q-179 0 -276 103.5t-97 272.5q0 159 98.5 261t253.5 102zM337 737q-95 0 -151.5 -83t-56.5 -223q0 -66 13.5 -129t41.5 -121.5t81 -94.5t123 -36q56 0 98 23t65.5 63t35 87t11.5 100
q0 56 -6.5 109t-25 110t-46.5 99t-75 69t-108 27zM432 1046q19 0 19 -22q0 -33 -62 -116q-47 -64 -65 -64q-7 0 -7 10q0 30 40.5 111t74.5 81z" />
    <glyph glyph-name="Ocircumflex" unicode="&#xd4;" horiz-adv-x="747" 
d="M357 762q172 0 278 -103t106 -266q0 -71 -22.5 -136t-65.5 -118t-114 -84.5t-161 -31.5q-179 0 -276 103.5t-97 272.5q0 159 98.5 261t253.5 102zM337 737q-95 0 -151.5 -83t-56.5 -223q0 -66 13.5 -129t41.5 -121.5t81 -94.5t123 -36q56 0 98 23t65.5 63t35 87t11.5 100
q0 56 -6.5 109t-25 110t-46.5 99t-75 69t-108 27zM345 1043q4 0 23 -25q33 -46 76 -86q20 -19 40.5 -34.5t31 -22t17.5 -13.5t7 -14q0 -11 -15 -11q-41 0 -100 43q-25 19 -46 39.5l-30.5 30t-13.5 9.5q-3 0 -13.5 -11l-31 -33t-40.5 -40q-70 -63 -88 -63q-4 0 -4 4
t19.5 23.5t54.5 58t63 79.5q41 66 50 66z" />
    <glyph glyph-name="Otilde" unicode="&#xd5;" horiz-adv-x="747" 
d="M357 762q172 0 278 -103t106 -266q0 -71 -22.5 -136t-65.5 -118t-114 -84.5t-161 -31.5q-179 0 -276 103.5t-97 272.5q0 159 98.5 261t253.5 102zM337 737q-95 0 -151.5 -83t-56.5 -223q0 -66 13.5 -129t41.5 -121.5t81 -94.5t123 -36q56 0 98 23t65.5 63t35 87t11.5 100
q0 56 -6.5 109t-25 110t-46.5 99t-75 69t-108 27zM299 999q31 0 88 -40.5t88 -40.5q15 0 27 8t19 16.5t10 8.5q8 0 8 -18q0 -39 -21.5 -68.5t-64.5 -29.5q-38 0 -74 28t-63.5 56t-45.5 28q-17 0 -28 -18.5t-17 -37t-11 -18.5t-5 15q0 18 7.5 42t29.5 46.5t53 22.5z" />
    <glyph glyph-name="Odieresis" unicode="&#xd6;" horiz-adv-x="747" 
d="M357 762q172 0 278 -103t106 -266q0 -71 -22.5 -136t-65.5 -118t-114 -84.5t-161 -31.5q-179 0 -276 103.5t-97 272.5q0 159 98.5 261t253.5 102zM337 737q-95 0 -151.5 -83t-56.5 -223q0 -66 13.5 -129t41.5 -121.5t81 -94.5t123 -36q56 0 98 23t65.5 63t35 87t11.5 100
q0 56 -6.5 109t-25 110t-46.5 99t-75 69t-108 27zM286 1012q28 0 46 -16.5t18 -47.5q0 -37 -19 -57.5t-49 -20.5q-29 0 -47 18.5t-18 52.5q0 33 19.5 52t49.5 19zM457 988q27 0 40 -16t13 -36q0 -28 -15 -45.5t-44 -17.5q-50 0 -50 57q0 25 15 41.5t41 16.5z" />
    <glyph glyph-name="multiply" unicode="&#xd7;" horiz-adv-x="541" 
d="M105 467q3 0 6 -1t7 -3t7.5 -4t8.5 -6l8.5 -7l9.5 -8l10 -8.5l11 -9.5t11 -10q29 -28 62 -52q12 -12 21 -12q6 0 48 54.5l68 90.5q22 31 52 65t42 34q13 0 13 -14q0 -20 -90 -125q-101 -118 -101 -131q0 -3 5 -8q7 -7 28.5 -23.5l48.5 -36.5t38 -29q20 -15 20 -27
q0 -11 -13 -11q-21 0 -82.5 49t-68.5 49q-4 0 -16.5 -14.5t-30 -39l-32 -45l-31.5 -45.5t-18 -27q-3 -4 -12.5 -19l-17 -26.5t-17.5 -24.5t-19 -20t-16 -7q-15 0 -15 17q0 5 2 11t5.5 13.5t7.5 14.5t11 17l12 17l13 18l13 17.5l14 18l13 16.5q2 2 26 34.5t42 60t18 36.5
q0 4 -11 15.5l-28 28t-21 21.5l-13.5 13.5l-19.5 20l-18.5 20t-15 19t-5.5 13.5q0 10 10 10z" />
    <glyph glyph-name="Oslash" unicode="&#xd8;" horiz-adv-x="747" 
d="M711 879q8 0 8 -10q0 -19 -112 -187q134 -104 134 -289q0 -71 -22.5 -136t-65.5 -118t-114 -84.5t-161 -31.5q-123 0 -211 51l-59 -83q-4 -5 -9 -12l-8 -11l-7 -9t-6.5 -7.5t-6 -5.5t-6 -4t-5.5 -1q-11 0 -11 12q0 20 55 98l32 45q-131 100 -131 303q0 159 98.5 261
t253.5 102q125 0 217 -57l65 91q50 70 61 78q6 5 11 5zM337 737q-95 0 -151.5 -83t-56.5 -223q0 -154 60 -260l43 61l291 403q-67 102 -186 102zM598 323q0 161 -52 272l-334 -458q65 -87 176 -87q56 0 98 23t65.5 63t35 87t11.5 100z" />
    <glyph glyph-name="Ugrave" unicode="&#xd9;" horiz-adv-x="691" 
d="M414 788q13 0 13 -10q0 -13 -30 -27q-56 -26 -83 -60q-51 -62 -51 -240q0 -351 158 -351q74 0 114 71t40 161q0 177 -30 219q-15 21 -41.5 33.5t-76.5 20.5q-42 6 -42 22t32 16q16 0 67 -6t86 -6q31 0 84 7.5t68 7.5q29 0 29 -11q0 -9 -25 -11q-58 -4 -77 -17
q-11 -7 -18 -19q-12 -20 -16.5 -57t-5 -101t-1.5 -87q-2 -32 -6 -62.5t-18 -76.5t-36 -79.5t-62.5 -58t-94.5 -24.5q-88 0 -148.5 50.5t-88.5 136.5q-27 81 -29 263q-2 68 -10 103.5t-31 48.5q-25 15 -65 15q-19 0 -19 14q0 11 16 14q16 2 54 7.5t69.5 10.5t62.5 13
q54 13 103 31t74.5 28.5t34.5 10.5zM302 1080q35 0 85 -80q59 -89 59 -113q0 -13 -10 -13q-11 0 -41.5 25t-60.5 57q-66 66 -66 92q0 16 10 24t24 8z" />
    <glyph glyph-name="Uacute" unicode="&#xda;" horiz-adv-x="691" 
d="M414 788q13 0 13 -10q0 -13 -30 -27q-56 -26 -83 -60q-51 -62 -51 -240q0 -351 158 -351q74 0 114 71t40 161q0 177 -30 219q-15 21 -41.5 33.5t-76.5 20.5q-42 6 -42 22t32 16q16 0 67 -6t86 -6q31 0 84 7.5t68 7.5q29 0 29 -11q0 -9 -25 -11q-58 -4 -77 -17
q-11 -7 -18 -19q-12 -20 -16.5 -57t-5 -101t-1.5 -87q-2 -32 -6 -62.5t-18 -76.5t-36 -79.5t-62.5 -58t-94.5 -24.5q-88 0 -148.5 50.5t-88.5 136.5q-27 81 -29 263q-2 68 -10 103.5t-31 48.5q-25 15 -65 15q-19 0 -19 14q0 11 16 14q16 2 54 7.5t69.5 10.5t62.5 13
q54 13 103 31t74.5 28.5t34.5 10.5zM623 963q19 0 19 -22q0 -33 -62 -116q-47 -64 -65 -64q-7 0 -7 10q0 30 40.5 111t74.5 81z" />
    <glyph glyph-name="Ucircumflex" unicode="&#xdb;" horiz-adv-x="691" 
d="M414 788q13 0 13 -10q0 -13 -30 -27q-56 -26 -83 -60q-51 -62 -51 -240q0 -351 158 -351q74 0 114 71t40 161q0 177 -30 219q-15 21 -41.5 33.5t-76.5 20.5q-42 6 -42 22t32 16q16 0 67 -6t86 -6q31 0 84 7.5t68 7.5q29 0 29 -11q0 -9 -25 -11q-58 -4 -77 -17
q-11 -7 -18 -19q-12 -20 -16.5 -57t-5 -101t-1.5 -87q-2 -32 -6 -62.5t-18 -76.5t-36 -79.5t-62.5 -58t-94.5 -24.5q-88 0 -148.5 50.5t-88.5 136.5q-27 81 -29 263q-2 68 -10 103.5t-31 48.5q-25 15 -65 15q-19 0 -19 14q0 11 16 14q16 2 54 7.5t69.5 10.5t62.5 13
q54 13 103 31t74.5 28.5t34.5 10.5zM418 1020q4 0 23 -25q33 -46 76 -86q20 -19 40.5 -34.5t31 -22t17.5 -13.5t7 -14q0 -11 -15 -11q-41 0 -100 43q-25 19 -46 39.5l-30.5 30t-13.5 9.5q-3 0 -13.5 -11l-31 -33t-40.5 -40q-70 -63 -88 -63q-4 0 -4 4t19.5 23.5t54.5 58
t63 79.5q41 66 50 66z" />
    <glyph glyph-name="Udieresis" unicode="&#xdc;" horiz-adv-x="691" 
d="M414 788q13 0 13 -10q0 -13 -30 -27q-56 -26 -83 -60q-51 -62 -51 -240q0 -351 158 -351q74 0 114 71t40 161q0 177 -30 219q-15 21 -41.5 33.5t-76.5 20.5q-42 6 -42 22t32 16q16 0 67 -6t86 -6q31 0 84 7.5t68 7.5q29 0 29 -11q0 -9 -25 -11q-58 -4 -77 -17
q-11 -7 -18 -19q-12 -20 -16.5 -57t-5 -101t-1.5 -87q-2 -32 -6 -62.5t-18 -76.5t-36 -79.5t-62.5 -58t-94.5 -24.5q-88 0 -148.5 50.5t-88.5 136.5q-27 81 -29 263q-2 68 -10 103.5t-31 48.5q-25 15 -65 15q-19 0 -19 14q0 11 16 14q16 2 54 7.5t69.5 10.5t62.5 13
q54 13 103 31t74.5 28.5t34.5 10.5zM341 1008q28 0 46 -16.5t18 -47.5q0 -37 -19 -57.5t-49 -20.5q-29 0 -47 18.5t-18 52.5q0 33 19.5 52t49.5 19zM512 984q27 0 40 -16t13 -36q0 -28 -15 -45.5t-44 -17.5q-50 0 -50 57q0 25 15 41.5t41 16.5z" />
    <glyph glyph-name="Yacute" unicode="&#xdd;" horiz-adv-x="797" 
d="M358 849q0 -6 -9.5 -11.5t-31.5 -14t-36 -15.5q-22 -10 -22 -31q0 -7 3.5 -16t11 -20.5l14 -21t19 -24.5l18.5 -22.5l19 -23t16 -18.5q32 -40 74.5 -81t58.5 -42q18 -2 110 116q76 96 76 123q0 18 -48 35q-21 7 -21 17q0 9 12 9q7 0 44.5 -12.5t77.5 -18.5q59 -8 120 -8
q23 0 23 -10q0 -12 -26 -12q-2 0 -16 0.5t-25 0.5q-65 0 -91 -17q-9 -5 -18.5 -14t-22.5 -25l-19.5 -24t-24 -31.5t-21.5 -28.5q-59 -78 -86 -122q-21 -33 -28.5 -58.5t-7.5 -64.5q0 -187 16 -331q8 -73 40 -99q7 -6 21.5 -13.5t23.5 -14t9 -13.5q0 -9 -13 -9
q-12 0 -72 16.5t-106 21.5t-97 5q-18 0 -39 -0.5t-24 -0.5q-29 0 -29 13q0 10 13 14t41.5 8t46.5 9q23 8 33.5 24.5t16.5 45.5q21 92 21 242q0 60 -8 94q-13 54 -120 193t-151 174q-35 27 -91 37q-23 3 -23 14q0 12 25 12q77 0 145 10q46 7 84 17.5t57 17.5t27 7q10 0 10 -8
zM621 1069q19 0 19 -22q0 -33 -62 -116q-47 -64 -65 -64q-7 0 -7 10q0 30 40.5 111t74.5 81z" />
    <glyph glyph-name="Thorn" unicode="&#xde;" horiz-adv-x="480" 
d="M213 736q3 -5 9 -8t15.5 -4.5t16.5 -2.5t22.5 -2t23.5 -2q29 -4 46.5 -7t50.5 -15.5t52 -30.5t35 -53t16 -82q0 -87 -53 -136.5t-135 -49.5q-61 0 -112 19q0 -260 1 -282q2 -46 9 -73t30 -42q8 -5 24.5 -9.5t17.5 -5.5q19 -3 19 -15q0 -8 -15 -8q-9 0 -54 8t-74 8
q-24 0 -52 -2.5t-47 -5t-22 -2.5q-9 0 -9 7q0 5 4 9.5t13.5 10t12.5 8.5q34 26 41 74q9 60 16 322q9 330 9 419q0 82 -24 99q-10 6 -27.5 9t-28.5 6t-11 12q0 12 15 12q10 0 46 -1.5t68 -1.5q36 0 77 6.5t47 6.5q24 0 24 -15t-24 -15q-49 0 -64 -34q-15 -32 -15 -96
q0 -26 6 -35zM261 379q58 0 84.5 41.5t26.5 100.5q0 75 -26 124.5t-80 49.5q-21 0 -35 -7t-21.5 -17t-11.5 -29.5t-4.5 -34.5t-0.5 -42q0 -67 3 -119l3 -58q3 -1 9 -2.5t9 -2.5q24 -4 44 -4z" />
    <glyph glyph-name="germandbls" unicode="&#xdf;" horiz-adv-x="592" 
d="M170 970q79 0 129 -48.5t50 -144.5q0 -46 -17 -87.5t-38.5 -67t-50 -47t-43.5 -29t-26 -12.5q24 4 64 4q38 0 75.5 -5.5t87.5 -26t86.5 -53.5t62.5 -95.5t26 -144.5q0 -125 -55.5 -188.5t-148.5 -63.5q-51 0 -79.5 24t-28.5 59q0 27 13.5 45.5t37.5 18.5t38.5 -16
t20.5 -36t19.5 -36t35.5 -16q28 0 44 28t16 79q0 75 -35 165t-94 149q-87 85 -210 85q-23 0 -23 7q0 4 8 11t21.5 17.5t22.5 19.5q88 82 88 223q0 70 -26 115.5t-81 45.5q-100 0 -100 -149q0 -182 132 -625l19.5 -63l14.5 -48l9.5 -31.5t6.5 -21.5t2 -10t-14 -5t-48 -11
t-71 -25q-26 -11 -55 -29l-48 -29t-29 -11q-8 0 -8 7t13 17q63 51 91 87q21 28 21 62q0 31 -23 150t-45.5 267.5t-22.5 251.5q0 107 41.5 172t123.5 65z" />
    <glyph glyph-name="agrave" unicode="&#xe0;" horiz-adv-x="528" 
d="M151 352q-38 0 -62.5 28.5t-24.5 81.5q0 67 37.5 114t111.5 47q38 0 68 -13t48 -30.5t32.5 -45.5t21 -48.5t13.5 -49.5q7 -31 33 -191t29 -175q4 -20 7 -31.5t9 -27t14.5 -23t20.5 -7.5q27 0 27 41q0 6 -0.5 18.5t-0.5 16.5q0 18 10 18q16 0 16 -48q0 -46 -15 -80
q-20 -47 -77 -47q-69 0 -102 68q-20 38 -32 118q-22 -37 -67 -71t-107 -34q-73 0 -109.5 38.5t-36.5 99.5q0 70 53 121.5t163 51.5q39 0 79 -9q-4 56 -7 84q-17 134 -21 151q-8 38 -30.5 60t-57.5 22q-36 0 -57 -23t-21 -52q0 -19 14 -33t31.5 -21.5t31.5 -24.5t14 -41
t-16 -38.5t-40 -14.5zM314 253q-29 13 -84 13q-54 0 -87.5 -30t-33.5 -85q0 -47 27.5 -67t64.5 -20q43 0 79.5 22t48.5 37l-6 60q-2 13 -4 29l-3.5 27t-1.5 14zM63 854q35 0 85 -80q59 -89 59 -113q0 -13 -10 -13q-11 0 -41.5 25t-60.5 57q-66 66 -66 92q0 16 10 24t24 8z
" />
    <glyph glyph-name="aacute" unicode="&#xe1;" horiz-adv-x="528" 
d="M151 352q-38 0 -62.5 28.5t-24.5 81.5q0 67 37.5 114t111.5 47q38 0 68 -13t48 -30.5t32.5 -45.5t21 -48.5t13.5 -49.5q7 -31 33 -191t29 -175q4 -20 7 -31.5t9 -27t14.5 -23t20.5 -7.5q27 0 27 41q0 6 -0.5 18.5t-0.5 16.5q0 18 10 18q16 0 16 -48q0 -46 -15 -80
q-20 -47 -77 -47q-69 0 -102 68q-20 38 -32 118q-22 -37 -67 -71t-107 -34q-73 0 -109.5 38.5t-36.5 99.5q0 70 53 121.5t163 51.5q39 0 79 -9q-4 56 -7 84q-17 134 -21 151q-8 38 -30.5 60t-57.5 22q-36 0 -57 -23t-21 -52q0 -19 14 -33t31.5 -21.5t31.5 -24.5t14 -41
t-16 -38.5t-40 -14.5zM314 253q-29 13 -84 13q-54 0 -87.5 -30t-33.5 -85q0 -47 27.5 -67t64.5 -20q43 0 79.5 22t48.5 37l-6 60q-2 13 -4 29l-3.5 27t-1.5 14zM338 862q19 0 19 -22q0 -33 -62 -116q-47 -64 -65 -64q-7 0 -7 10q0 30 40.5 111t74.5 81z" />
    <glyph glyph-name="acircumflex" unicode="&#xe2;" horiz-adv-x="528" 
d="M151 352q-38 0 -62.5 28.5t-24.5 81.5q0 67 37.5 114t111.5 47q38 0 68 -13t48 -30.5t32.5 -45.5t21 -48.5t13.5 -49.5q7 -31 33 -191t29 -175q4 -20 7 -31.5t9 -27t14.5 -23t20.5 -7.5q27 0 27 41q0 6 -0.5 18.5t-0.5 16.5q0 18 10 18q16 0 16 -48q0 -46 -15 -80
q-20 -47 -77 -47q-69 0 -102 68q-20 38 -32 118q-22 -37 -67 -71t-107 -34q-73 0 -109.5 38.5t-36.5 99.5q0 70 53 121.5t163 51.5q39 0 79 -9q-4 56 -7 84q-17 134 -21 151q-8 38 -30.5 60t-57.5 22q-36 0 -57 -23t-21 -52q0 -19 14 -33t31.5 -21.5t31.5 -24.5t14 -41
t-16 -38.5t-40 -14.5zM314 253q-29 13 -84 13q-54 0 -87.5 -30t-33.5 -85q0 -47 27.5 -67t64.5 -20q43 0 79.5 22t48.5 37l-6 60q-2 13 -4 29l-3.5 27t-1.5 14zM238 850q4 0 23 -25q33 -46 76 -86q20 -19 40.5 -34.5t31 -22t17.5 -13.5t7 -14q0 -11 -15 -11q-41 0 -100 43
q-25 19 -46 39.5l-30.5 30t-13.5 9.5q-3 0 -13.5 -11l-31 -33t-40.5 -40q-70 -63 -88 -63q-4 0 -4 4t19.5 23.5t54.5 58t63 79.5q41 66 50 66z" />
    <glyph glyph-name="atilde" unicode="&#xe3;" horiz-adv-x="528" 
d="M151 352q-38 0 -62.5 28.5t-24.5 81.5q0 67 37.5 114t111.5 47q38 0 68 -13t48 -30.5t32.5 -45.5t21 -48.5t13.5 -49.5q7 -31 33 -191t29 -175q4 -20 7 -31.5t9 -27t14.5 -23t20.5 -7.5q27 0 27 41q0 6 -0.5 18.5t-0.5 16.5q0 18 10 18q16 0 16 -48q0 -46 -15 -80
q-20 -47 -77 -47q-69 0 -102 68q-20 38 -32 118q-22 -37 -67 -71t-107 -34q-73 0 -109.5 38.5t-36.5 99.5q0 70 53 121.5t163 51.5q39 0 79 -9q-4 56 -7 84q-17 134 -21 151q-8 38 -30.5 60t-57.5 22q-36 0 -57 -23t-21 -52q0 -19 14 -33t31.5 -21.5t31.5 -24.5t14 -41
t-16 -38.5t-40 -14.5zM314 253q-29 13 -84 13q-54 0 -87.5 -30t-33.5 -85q0 -47 27.5 -67t64.5 -20q43 0 79.5 22t48.5 37l-6 60q-2 13 -4 29l-3.5 27t-1.5 14zM189 798q31 0 88 -40.5t88 -40.5q15 0 27 8.5t19 16.5t10 8q8 0 8 -18q0 -39 -21.5 -68.5t-64.5 -29.5
q-38 0 -74 28t-63.5 56t-45.5 28q-17 0 -28 -18.5t-17 -37t-11 -18.5t-5 15q0 18 7.5 42t29.5 46.5t53 22.5z" />
    <glyph glyph-name="adieresis" unicode="&#xe4;" horiz-adv-x="528" 
d="M158 755q22 0 35.5 -15t13.5 -37q0 -31 -18 -47.5t-41 -16.5q-20 0 -35 14.5t-15 39.5q0 26 18 44t42 18zM284 744q18 0 31 -12t13 -34q0 -24 -14 -40t-34 -16q-19 0 -32.5 12t-13.5 38q0 23 15 37.5t35 14.5zM151 352q-38 0 -62.5 28.5t-24.5 81.5q0 67 37.5 114
t111.5 47q38 0 68 -13t48 -30.5t32.5 -45.5t21 -48.5t13.5 -49.5q7 -31 33 -191t29 -175q4 -20 7 -31.5t9 -27t14.5 -23t20.5 -7.5q27 0 27 41q0 6 -0.5 18.5t-0.5 16.5q0 18 10 18q16 0 16 -48q0 -46 -15 -80q-20 -47 -77 -47q-69 0 -102 68q-20 38 -32 118
q-22 -37 -67 -71t-107 -34q-73 0 -109.5 38.5t-36.5 99.5q0 70 53 121.5t163 51.5q39 0 79 -9q-4 56 -7 84q-17 134 -21 151q-8 38 -30.5 60t-57.5 22q-36 0 -57 -23t-21 -52q0 -19 14 -33t31.5 -21.5t31.5 -24.5t14 -41t-16 -38.5t-40 -14.5zM314 253q-29 13 -84 13
q-54 0 -87.5 -30t-33.5 -85q0 -47 27.5 -67t64.5 -20q43 0 79.5 22t48.5 37l-6 60q-2 13 -4 29l-3.5 27t-1.5 14z" />
    <glyph glyph-name="aring" unicode="&#xe5;" horiz-adv-x="528" 
d="M151 352q-38 0 -62.5 28.5t-24.5 81.5q0 67 37.5 114t111.5 47q38 0 68 -13t48 -30.5t32.5 -45.5t21 -48.5t13.5 -49.5q7 -31 33 -191t29 -175q4 -20 7 -31.5t9 -27t14.5 -23t20.5 -7.5q27 0 27 41q0 6 -0.5 18.5t-0.5 16.5q0 18 10 18q16 0 16 -48q0 -46 -15 -80
q-20 -47 -77 -47q-69 0 -102 68q-20 38 -32 118q-22 -37 -67 -71t-107 -34q-73 0 -109.5 38.5t-36.5 99.5q0 70 53 121.5t163 51.5q39 0 79 -9q-4 56 -7 84q-17 134 -21 151q-8 38 -30.5 60t-57.5 22q-36 0 -57 -23t-21 -52q0 -19 14 -33t31.5 -21.5t31.5 -24.5t14 -41
t-16 -38.5t-40 -14.5zM314 253q-29 13 -84 13q-54 0 -87.5 -30t-33.5 -85q0 -47 27.5 -67t64.5 -20q43 0 79.5 22t48.5 37l-6 60q-2 13 -4 29l-3.5 27t-1.5 14zM242 915q55 0 85.5 -33.5t30.5 -90.5q0 -56 -32 -94.5t-80 -38.5q-55 0 -86.5 33t-31.5 93t34.5 95.5t79.5 35.5
zM244 896q-30 0 -51.5 -24.5t-21.5 -66.5t22.5 -63t52.5 -21q37 0 56 26.5t19 62.5q0 37 -21 61.5t-56 24.5z" />
    <glyph glyph-name="ae" unicode="&#xe6;" horiz-adv-x="700" 
d="M154 516q55 0 88.5 -40t45.5 -99q19 56 52 105q75 105 175 105q61 0 102 -36.5t41 -102.5q0 -107 -72 -161t-180 -54q-38 0 -82 7q12 -101 70 -164.5t136 -63.5q59 0 90 38.5t31 93.5q0 18 -5 37t-5 23q0 8 8 8q7 0 15 -11t14.5 -34.5t6.5 -52.5q0 -32 -10.5 -65.5
t-31.5 -65t-60.5 -51.5t-90.5 -20q-47 0 -86 16t-61.5 36t-41 47.5t-23.5 40t-9 24.5q-8 -66 -41.5 -110t-92.5 -44q-49 0 -85.5 39t-36.5 109q0 158 195 224q24 8 24 38q0 27 -3.5 52t-11.5 52.5t-26 44t-43 16.5q-26 0 -40 -15.5t-14 -35.5q0 -23 23 -48t23 -47
q0 -21 -13.5 -34t-35.5 -13q-25 0 -41 19t-16 54q0 63 34.5 101t83.5 38zM322 284v-12q30 -3 41 -3q107 0 155.5 50.5t48.5 114.5q0 14 -2.5 27.5t-10.5 32.5t-28.5 31t-50.5 12q-67 0 -110 -69t-43 -184zM161 13q42 0 66 38t24 90q0 131 -34 131q-24 0 -53 -21.5t-49 -55.5
q-23 -43 -23 -97q0 -35 18.5 -60t50.5 -25z" />
    <glyph glyph-name="ccedilla" unicode="&#xe7;" horiz-adv-x="438" 
d="M330 430q-32 0 -52.5 20.5t-20.5 60.5q0 77 -51 77q-43 0 -76.5 -53t-33.5 -145q0 -118 46.5 -185t129.5 -67q52 0 82.5 33.5t30.5 82.5q0 29 -9.5 51.5t-19.5 35.5t-10 18q0 7 8 7q19 0 43.5 -33.5t24.5 -81.5q0 -81 -48 -128.5t-126 -53.5q-8 -38 -8 -49q0 -2 7 -3.5
t21 -6t26 -11.5q62 -30 62 -103q0 -45 -31 -82t-90 -37q-53 0 -81 33.5t-28 65.5q0 14 6 14q4 0 13.5 -16t27.5 -32t43 -16q26 0 41.5 16t15.5 41q0 33 -19.5 51t-38.5 23t-19 8t5 19.5l12 39.5t10 36q2 3 2 9q-94 2 -152 72.5t-58 189.5q0 57 19 111.5t49 89.5
q73 90 184 90q57 0 95 -30t38 -78q0 -43 -21 -63.5t-49 -20.5z" />
    <glyph glyph-name="egrave" unicode="&#xe8;" horiz-adv-x="434" 
d="M400 259q18 -30 18 -69q0 -71 -45 -111t-123 -40q-110 0 -172 70t-62 184q0 58 15.5 107t40.5 82.5t57.5 57t66 34t65.5 10.5q62 0 110 -34t48 -108q0 -41 -15 -73t-37.5 -50.5t-51 -31t-53 -16.5t-47.5 -4q-51 0 -82 11q4 -83 42.5 -139t108.5 -56q49 0 74.5 31t25.5 77
q0 31 -8 52q-7 18 -7 24q0 10 9 10q12 0 22 -18zM131 310q31 -9 69 -9q57 0 93.5 41t36.5 107q0 56 -22 80.5t-55 24.5q-47 0 -84.5 -57.5t-37.5 -186.5zM97 842q35 0 85 -80q59 -89 59 -113q0 -13 -10 -13q-11 0 -41.5 25t-60.5 57q-66 66 -66 92q0 16 10 24t24 8z" />
    <glyph glyph-name="eacute" unicode="&#xe9;" horiz-adv-x="434" 
d="M400 259q18 -30 18 -69q0 -71 -45 -111t-123 -40q-110 0 -172 70t-62 184q0 58 15.5 107t40.5 82.5t57.5 57t66 34t65.5 10.5q62 0 110 -34t48 -108q0 -41 -15 -73t-37.5 -50.5t-51 -31t-53 -16.5t-47.5 -4q-51 0 -82 11q4 -83 42.5 -139t108.5 -56q49 0 74.5 31t25.5 77
q0 31 -8 52q-7 18 -7 24q0 10 9 10q12 0 22 -18zM131 310q31 -9 69 -9q57 0 93.5 41t36.5 107q0 56 -22 80.5t-55 24.5q-47 0 -84.5 -57.5t-37.5 -186.5zM333 824q19 0 19 -22q0 -33 -62 -116q-47 -64 -65 -64q-7 0 -7 10q0 30 40.5 111t74.5 81z" />
    <glyph glyph-name="ecircumflex" unicode="&#xea;" horiz-adv-x="434" 
d="M400 259q18 -30 18 -69q0 -71 -45 -111t-123 -40q-110 0 -172 70t-62 184q0 58 15.5 107t40.5 82.5t57.5 57t66 34t65.5 10.5q62 0 110 -34t48 -108q0 -41 -15 -73t-37.5 -50.5t-51 -31t-53 -16.5t-47.5 -4q-51 0 -82 11q4 -83 42.5 -139t108.5 -56q49 0 74.5 31t25.5 77
q0 31 -8 52q-7 18 -7 24q0 10 9 10q12 0 22 -18zM131 310q31 -9 69 -9q57 0 93.5 41t36.5 107q0 56 -22 80.5t-55 24.5q-47 0 -84.5 -57.5t-37.5 -186.5zM231 879q4 0 23 -25q33 -46 76 -86q20 -19 40.5 -34.5t31 -22t17.5 -13.5t7 -14q0 -11 -15 -11q-41 0 -100 43
q-25 19 -46 39.5l-30.5 30t-13.5 9.5q-3 0 -13.5 -11l-31 -33t-40.5 -40q-70 -63 -88 -63q-4 0 -4 4t19.5 23.5t54.5 58t63 79.5q41 66 50 66z" />
    <glyph glyph-name="edieresis" unicode="&#xeb;" horiz-adv-x="434" 
d="M400 259q18 -30 18 -69q0 -71 -45 -111t-123 -40q-110 0 -172 70t-62 184q0 58 15.5 107t40.5 82.5t57.5 57t66 34t65.5 10.5q62 0 110 -34t48 -108q0 -41 -15 -73t-37.5 -50.5t-51 -31t-53 -16.5t-47.5 -4q-51 0 -82 11q4 -83 42.5 -139t108.5 -56q49 0 74.5 31t25.5 77
q0 31 -8 52q-7 18 -7 24q0 10 9 10q12 0 22 -18zM131 310q31 -9 69 -9q57 0 93.5 41t36.5 107q0 56 -22 80.5t-55 24.5q-47 0 -84.5 -57.5t-37.5 -186.5zM186 768q22 0 35.5 -15t13.5 -37q0 -31 -18 -47.5t-41 -16.5q-20 0 -35 14t-15 40t18 44t42 18zM312 757q18 0 31 -12
t13 -34q0 -24 -14 -40t-34 -16q-19 0 -32.5 12t-13.5 38q0 23 15 37.5t35 14.5z" />
    <glyph glyph-name="igrave" unicode="&#xec;" horiz-adv-x="302" 
d="M224 623q5 0 5 -11q0 -22 -6 -60q-11 -88 -22 -218t-11 -166q0 -41 21 -58q19 -12 53 -16q23 -3 23 -9q0 -10 -21 -10q-18 0 -59.5 7.5t-67.5 7.5t-57.5 -3.5t-42.5 -3.5q-22 0 -22 11q0 9 23 14q17 3 26 6.5t18 14t11 27.5q5 60 5 210q0 76 -1 87q-1 25 -4.5 39
t-14.5 21t-20.5 9t-32.5 4q-12 2 -12 11t15 11q64 4 114 25q25 10 43 23t26 20t11 7zM-5 896q35 0 85 -80q59 -89 59 -113q0 -13 -10 -13q-11 0 -41.5 25t-60.5 57q-66 66 -66 92q0 16 10 24t24 8z" />
    <glyph glyph-name="iacute" unicode="&#xed;" horiz-adv-x="302" 
d="M224 623q5 0 5 -11q0 -22 -6 -60q-11 -88 -22 -218t-11 -166q0 -41 21 -58q19 -12 53 -16q23 -3 23 -9q0 -10 -21 -10q-18 0 -59.5 7.5t-67.5 7.5t-57.5 -3.5t-42.5 -3.5q-22 0 -22 11q0 9 23 14q17 3 26 6.5t18 14t11 27.5q5 60 5 210q0 76 -1 87q-1 25 -4.5 39
t-14.5 21t-20.5 9t-32.5 4q-12 2 -12 11t15 11q64 4 114 25q25 10 43 23t26 20t11 7zM231 873q19 0 19 -22q0 -33 -62 -116q-47 -64 -65 -64q-7 0 -7 10q0 30 40.5 111t74.5 81z" />
    <glyph glyph-name="icircumflex" unicode="&#xee;" horiz-adv-x="302" 
d="M224 623q5 0 5 -11q0 -22 -6 -60q-11 -88 -22 -218t-11 -166q0 -41 21 -58q19 -12 53 -16q23 -3 23 -9q0 -10 -21 -10q-18 0 -59.5 7.5t-67.5 7.5t-57.5 -3.5t-42.5 -3.5q-22 0 -22 11q0 9 23 14q17 3 26 6.5t18 14t11 27.5q5 60 5 210q0 76 -1 87q-1 25 -4.5 39
t-14.5 21t-20.5 9t-32.5 4q-12 2 -12 11t15 11q64 4 114 25q25 10 43 23t26 20t11 7zM148 873q4 0 23 -25q33 -46 76 -86q20 -19 40.5 -34.5t31 -22t17.5 -13.5t7 -14q0 -11 -15 -11q-41 0 -100 43q-25 19 -46 39.5l-30.5 30t-13.5 9.5q-3 0 -13.5 -11l-31 -33t-40.5 -40
q-70 -63 -88 -63q-4 0 -4 4t19.5 23.5t54.5 58t63 79.5q41 66 50 66z" />
    <glyph glyph-name="idieresis" unicode="&#xef;" horiz-adv-x="302" 
d="M224 623q5 0 5 -11q0 -22 -6 -60q-11 -88 -22 -218t-11 -166q0 -41 21 -58q19 -12 53 -16q23 -3 23 -9q0 -10 -21 -10q-18 0 -59.5 7.5t-67.5 7.5t-57.5 -3.5t-42.5 -3.5q-22 0 -22 11q0 9 23 14q17 3 26 6.5t18 14t11 27.5q5 60 5 210q0 76 -1 87q-1 25 -4.5 39
t-14.5 21t-20.5 9t-32.5 4q-12 2 -12 11t15 11q64 4 114 25q25 10 43 23t26 20t11 7zM103 792q22 0 35.5 -15t13.5 -37q0 -31 -18 -47.5t-41 -16.5q-20 0 -35 14t-15 40t18 44t42 18zM229 781q18 0 31 -12t13 -34q0 -24 -14 -40t-34 -16q-19 0 -32.5 12t-13.5 38
q0 23 15 37.5t35 14.5z" />
    <glyph glyph-name="eth" unicode="&#xf0;" horiz-adv-x="476" 
d="M323 791q4 0 4 -5q0 -20 -65 -115q100 -52 149 -181t49 -302q0 -57 -10 -106.5t-30.5 -92t-57.5 -67.5t-87 -25q-105 0 -165 68t-60 171q0 91 52.5 150.5t131.5 59.5q60 0 111 -34l2 14q0 3 0.5 12t0.5 14q0 77 -26.5 156t-88.5 121l-57 -89l-10 -15.5l-9 -14t-6.5 -9
t-6 -6.5t-4.5 -2q-6 0 -6 7q0 16 82 140q-38 20 -83 20q-61 0 -119 -39q-19 -12 -38 -29l-30 -26.5t-17 -9.5q-9 0 -9 9q0 17 30 48.5t84.5 59.5t107.5 28q50 0 100 -21l56 84q19 27 25 27zM243 317q-44 0 -68 -41.5t-24 -100.5q0 -95 40.5 -164t99.5 -69q45 0 68 37t23 92
q0 62 -12 114.5t-44.5 92t-82.5 39.5z" />
    <glyph glyph-name="ntilde" unicode="&#xf1;" horiz-adv-x="585" 
d="M168 629q9 0 31 -144l18 -123q4 28 16 59t33 64.5t55.5 55.5t76.5 22q71 0 106.5 -50.5t35.5 -135.5q0 -51 -13 -146t-13 -131q0 -32 12 -53q8 -12 33 -30t25 -29t-11 -11q-9 0 -25 10.5t-45 27.5t-64 28q-48 15 -100 18q-17 2 -17 10q0 9 11 9q27 0 44 1q21 2 33 13
t18 38q11 55 11 145v32.5t-2 37t-5.5 41t-10.5 36.5t-17 32.5t-25.5 21t-35.5 8.5q-39 0 -67 -38t-37 -99q-9 -45 -9 -126q0 -121 27 -159q13 -18 38 -28q18 -6 18 -11q0 -8 -20 -8q-12 0 -47.5 5.5t-55.5 5.5t-55 -3t-41 -3q-19 0 -19 12q0 9 15 12q33 2 49 4q27 4 27 36
q0 96 -59 355q-6 29 -13.5 42t-21.5 13q-11 0 -31 -8.5t-27 -8.5q-9 0 -9 8t16 14q34 13 64 36q21 16 40 39.5t29.5 38t13.5 14.5zM300 815q30 0 88 -40.5t88 -40.5q15 0 27 8t19 16.5t10 8.5q8 0 8 -18q0 -39 -21.5 -68.5t-64.5 -29.5q-38 0 -74 28t-63.5 56t-45.5 28
q-17 0 -28 -18.5t-17 -37t-11 -18.5t-5 15q0 18 7.5 42t29.5 46.5t53 22.5z" />
    <glyph glyph-name="ograve" unicode="&#xf2;" horiz-adv-x="401" 
d="M69 827q35 0 85 -80q59 -89 59 -113q0 -13 -10 -13q-11 0 -41.5 25t-60.5 57q-66 66 -66 92q0 15 10 23.5t24 8.5zM177 539q18 0 18 -10q0 -6 -15 -21q-70 -68 -70 -179q0 -32 6 -59t24 -49t47 -22q46 0 66.5 47.5t20.5 111.5q0 83 -42 131q-2 3 -9 9t-10.5 11.5
t-3.5 11.5q0 16 17 16q6 0 24 -1.5t32 -1.5q71 0 138.5 27t109.5 68q40 38 63 84.5t23 83.5q0 24 -12.5 40t-28 23.5t-28 23t-12.5 37.5q0 25 17 41t44 16q31 0 53 -23t22 -73q0 -57 -34 -130.5t-94 -134.5q-38 -38 -91 -64t-86 -33.5t-62 -10.5q14 -8 29.5 -21t35.5 -49.5
t20 -79.5q0 -83 -57 -135t-140 -52q-77 0 -128.5 45.5t-51.5 130.5q0 47 18.5 85.5t45.5 60.5t53.5 33.5t47.5 11.5z" />
    <glyph glyph-name="oacute" unicode="&#xf3;" horiz-adv-x="401" 
d="M332 824q19 0 19 -22q0 -33 -62 -116q-47 -64 -65 -64q-7 0 -7 10q0 30 40.5 111t74.5 81zM177 539q18 0 18 -10q0 -6 -15 -21q-70 -68 -70 -179q0 -32 6 -59t24 -49t47 -22q46 0 66.5 47.5t20.5 111.5q0 83 -42 131q-2 3 -9 9t-10.5 11.5t-3.5 11.5q0 16 17 16
q6 0 24 -1.5t32 -1.5q71 0 138.5 27t109.5 68q40 38 63 84.5t23 83.5q0 24 -12.5 40t-28 23.5t-28 23t-12.5 37.5q0 25 17 41t44 16q31 0 53 -23t22 -73q0 -57 -34 -130.5t-94 -134.5q-38 -38 -91 -64t-86 -33.5t-62 -10.5q14 -8 29.5 -21t35.5 -49.5t20 -79.5
q0 -83 -57 -135t-140 -52q-77 0 -128.5 45.5t-51.5 130.5q0 47 18.5 85.5t45.5 60.5t53.5 33.5t47.5 11.5z" />
    <glyph glyph-name="ocircumflex" unicode="&#xf4;" horiz-adv-x="401" 
d="M220 830q4 0 23 -25q33 -46 76 -86q20 -19 40.5 -34.5t31 -22t17.5 -13.5t7 -14q0 -11 -15 -11q-41 0 -100 43q-25 19 -46 39.5l-30.5 30t-13.5 9.5q-3 0 -13.5 -11l-31 -33t-40.5 -40q-70 -63 -88 -63q-4 0 -4 4t19.5 23.5t54.5 58t63 79.5q41 66 50 66zM177 539
q18 0 18 -10q0 -6 -15 -21q-70 -68 -70 -179q0 -32 6 -59t24 -49t47 -22q46 0 66.5 47.5t20.5 111.5q0 83 -42 131q-2 3 -9 9t-10.5 11.5t-3.5 11.5q0 16 17 16q6 0 24 -1.5t32 -1.5q71 0 138.5 27t109.5 68q40 38 63 84.5t23 83.5q0 24 -12.5 40t-28 23.5t-28 23
t-12.5 37.5q0 25 17 41t44 16q31 0 53 -23t22 -73q0 -57 -34 -130.5t-94 -134.5q-38 -38 -91 -64t-86 -33.5t-62 -10.5q14 -8 29.5 -21t35.5 -49.5t20 -79.5q0 -83 -57 -135t-140 -52q-77 0 -128.5 45.5t-51.5 130.5q0 47 18.5 85.5t45.5 60.5t53.5 33.5t47.5 11.5z" />
    <glyph glyph-name="otilde" unicode="&#xf5;" horiz-adv-x="401" 
d="M184 736q30 0 88 -40.5t88 -40.5q15 0 27 8.5t19 16.5t10 8q8 0 8 -18q0 -39 -21.5 -68.5t-64.5 -29.5q-38 0 -74 28t-63.5 56t-45.5 28q-17 0 -28 -18.5t-17 -37t-11 -18.5t-5 15q0 18 7.5 42t29.5 46.5t53 22.5zM177 539q18 0 18 -10q0 -6 -15 -21q-70 -68 -70 -179
q0 -32 6 -59t24 -49t47 -22q46 0 66.5 47.5t20.5 111.5q0 83 -42 131q-2 3 -9 9t-10.5 11.5t-3.5 11.5q0 16 17 16q6 0 24 -1.5t32 -1.5q71 0 138.5 27t109.5 68q40 38 63 84.5t23 83.5q0 24 -12.5 40t-28 23.5t-28 23t-12.5 37.5q0 25 17 41t44 16q31 0 53 -23t22 -73
q0 -57 -34 -130.5t-94 -134.5q-38 -38 -91 -64t-86 -33.5t-62 -10.5q14 -8 29.5 -21t35.5 -49.5t20 -79.5q0 -83 -57 -135t-140 -52q-77 0 -128.5 45.5t-51.5 130.5q0 47 18.5 85.5t45.5 60.5t53.5 33.5t47.5 11.5z" />
    <glyph glyph-name="odieresis" unicode="&#xf6;" horiz-adv-x="401" 
d="M177 539q18 0 18 -10q0 -6 -15 -21q-70 -68 -70 -179q0 -32 6 -59t24 -49t47 -22q46 0 66.5 47.5t20.5 111.5q0 83 -42 131q-2 3 -9 9t-10.5 11.5t-3.5 11.5q0 16 17 16q6 0 24 -1.5t32 -1.5q71 0 138.5 27t109.5 68q40 38 63 84.5t23 83.5q0 24 -12.5 40t-28 23.5
t-28 23t-12.5 37.5q0 25 17 41t44 16q31 0 53 -23t22 -73q0 -57 -34 -130.5t-94 -134.5q-38 -38 -91 -64t-86 -33.5t-62 -10.5q14 -8 29.5 -21t35.5 -49.5t20 -79.5q0 -83 -57 -135t-140 -52q-77 0 -128.5 45.5t-51.5 130.5q0 47 18.5 85.5t45.5 60.5t53.5 33.5t47.5 11.5z
M173 722q22 0 35.5 -15t13.5 -37q0 -31 -18 -47.5t-41 -16.5q-20 0 -35 14t-15 40t18 44t42 18zM299 711q18 0 31 -12t13 -34q0 -24 -14 -40t-34 -16q-19 0 -32.5 12t-13.5 38q0 23 15 37.5t35 14.5z" />
    <glyph glyph-name="divide" unicode="&#xf7;" horiz-adv-x="593" 
d="M95 303q21 0 82 -0.5t89 -0.5q27 0 115 3t111 3q53 0 53 -19q0 -18 -38 -18q-15 0 -54 0.5t-62 0.5q-56 0 -151 -3.5t-150 -3.5q-41 0 -41 18q0 20 46 20zM280 493q24 0 37.5 -14t13.5 -38q0 -22 -16 -36.5t-41 -14.5q-22 0 -38 13t-16 38q0 24 17 38t43 14zM282 213
q24 0 38.5 -13.5t14.5 -37.5t-18 -40.5t-43 -16.5q-21 0 -36.5 13.5t-15.5 37.5q0 26 17 41.5t43 15.5z" />
    <glyph glyph-name="oslash" unicode="&#xf8;" horiz-adv-x="397" 
d="M248 626q11 0 11 -17q0 -19 -14 -75q62 -11 98.5 -57t36.5 -109q0 -86 -53 -140t-144 -54q-22 0 -32 2l-24 -88q-9 -34 -17 -48t-20 -14q-13 0 -13 16q0 21 36 145q-46 18 -73.5 59.5t-27.5 100.5q0 95 57 143t136 48h6l17 62q8 26 20 26zM278 370q0 95 -41 130l-81 -302
q13 -5 25 -5q35 0 58 29.5t31 67t8 80.5zM196 515q-46 0 -72 -45.5t-26 -125.5q0 -74 27 -118l54 183l27 105q-1 1 -10 1z" />
    <glyph glyph-name="ugrave" unicode="&#xf9;" horiz-adv-x="744" 
d="M201 543q7 0 11 -27l7.5 -49t8 -49.5t6.5 -36.5q9 -50 15.5 -80t15.5 -65t19 -54.5t24 -37.5t31.5 -25.5t40.5 -7.5q35 0 60 24t36.5 63.5t16 76t4.5 76.5q0 28 -1 42.5t-6.5 34.5t-19 29t-35.5 9q-10 0 -29 -2.5t-28 -2.5q-16 0 -16 12q0 11 19 14q63 3 108 21
q15 6 32.5 17.5l29 19.5t16.5 8q7 0 10 -32q1 -7 9 -118.5t18 -178.5q6 -42 19.5 -56.5t37.5 -14.5q17 0 40.5 3.5t27.5 3.5q15 0 15 -11t-15 -15q-8 -2 -21 -3.5t-35 -4.5t-38 -5t-42 -7.5t-33 -5.5q-20 0 -25 24q-5 22 -12.5 71t-9.5 60q-34 -243 -182 -243
q-106 0 -147 108q-13 34 -21.5 76.5t-13.5 89t-7 56.5q-10 61 -46 61q-11 0 -34.5 -7t-32.5 -7q-14 0 -14 13q0 2 0.5 4t1.5 3.5t3 2.5t3 2t4 2l4.5 1.5t5.5 1.5t6 2q43 13 80 38q22 15 39.5 34t25.5 30.5t13 11.5zM245 774q35 0 85 -80q59 -89 59 -113q0 -13 -10 -13
q-11 0 -41.5 25t-60.5 57q-66 66 -66 92q0 16 10 24t24 8z" />
    <glyph glyph-name="uacute" unicode="&#xfa;" horiz-adv-x="744" 
d="M201 543q7 0 11 -27l7.5 -49t8 -49.5t6.5 -36.5q9 -50 15.5 -80t15.5 -65t19 -54.5t24 -37.5t31.5 -25.5t40.5 -7.5q35 0 60 24t36.5 63.5t16 76t4.5 76.5q0 28 -1 42.5t-6.5 34.5t-19 29t-35.5 9q-10 0 -29 -2.5t-28 -2.5q-16 0 -16 12q0 11 19 14q63 3 108 21
q15 6 32.5 17.5l29 19.5t16.5 8q7 0 10 -32q1 -7 9 -118.5t18 -178.5q6 -42 19.5 -56.5t37.5 -14.5q17 0 40.5 3.5t27.5 3.5q15 0 15 -11t-15 -15q-8 -2 -21 -3.5t-35 -4.5t-38 -5t-42 -7.5t-33 -5.5q-20 0 -25 24q-5 22 -12.5 71t-9.5 60q-34 -243 -182 -243
q-106 0 -147 108q-13 34 -21.5 76.5t-13.5 89t-7 56.5q-10 61 -46 61q-11 0 -34.5 -7t-32.5 -7q-14 0 -14 13q0 2 0.5 4t1.5 3.5t3 2.5t3 2t4 2l4.5 1.5t5.5 1.5t6 2q43 13 80 38q22 15 39.5 34t25.5 30.5t13 11.5zM427 778q19 0 19 -22q0 -33 -62 -116q-47 -64 -65 -64
q-7 0 -7 10q0 30 40.5 111t74.5 81z" />
    <glyph glyph-name="ucircumflex" unicode="&#xfb;" horiz-adv-x="744" 
d="M201 543q7 0 11 -27l7.5 -49t8 -49.5t6.5 -36.5q9 -50 15.5 -80t15.5 -65t19 -54.5t24 -37.5t31.5 -25.5t40.5 -7.5q35 0 60 24t36.5 63.5t16 76t4.5 76.5q0 28 -1 42.5t-6.5 34.5t-19 29t-35.5 9q-10 0 -29 -2.5t-28 -2.5q-16 0 -16 12q0 11 19 14q63 3 108 21
q15 6 32.5 17.5l29 19.5t16.5 8q7 0 10 -32q1 -7 9 -118.5t18 -178.5q6 -42 19.5 -56.5t37.5 -14.5q17 0 40.5 3.5t27.5 3.5q15 0 15 -11t-15 -15q-8 -2 -21 -3.5t-35 -4.5t-38 -5t-42 -7.5t-33 -5.5q-20 0 -25 24q-5 22 -12.5 71t-9.5 60q-34 -243 -182 -243
q-106 0 -147 108q-13 34 -21.5 76.5t-13.5 89t-7 56.5q-10 61 -46 61q-11 0 -34.5 -7t-32.5 -7q-14 0 -14 13q0 2 0.5 4t1.5 3.5t3 2.5t3 2t4 2l4.5 1.5t5.5 1.5t6 2q43 13 80 38q22 15 39.5 34t25.5 30.5t13 11.5zM316 803q4 0 23 -25q33 -46 76 -86q20 -19 40.5 -34.5
t31 -22t17.5 -13.5t7 -14q0 -11 -15 -11q-41 0 -100 43q-25 19 -46 39.5l-30.5 30t-13.5 9.5q-3 0 -13.5 -11l-31 -33t-40.5 -40q-70 -63 -88 -63q-4 0 -4 4t19.5 23.5t54.5 58t63 79.5q41 66 50 66z" />
    <glyph glyph-name="udieresis" unicode="&#xfc;" horiz-adv-x="744" 
d="M201 543q7 0 11 -27l7.5 -49t8 -49.5t6.5 -36.5q9 -50 15.5 -80t15.5 -65t19 -54.5t24 -37.5t31.5 -25.5t40.5 -7.5q35 0 60 24t36.5 63.5t16 76t4.5 76.5q0 28 -1 42.5t-6.5 34.5t-19 29t-35.5 9q-10 0 -29 -2.5t-28 -2.5q-16 0 -16 12q0 11 19 14q63 3 108 21
q15 6 32.5 17.5l29 19.5t16.5 8q7 0 10 -32q1 -7 9 -118.5t18 -178.5q6 -42 19.5 -56.5t37.5 -14.5q17 0 40.5 3.5t27.5 3.5q15 0 15 -11t-15 -15q-8 -2 -21 -3.5t-35 -4.5t-38 -5t-42 -7.5t-33 -5.5q-20 0 -25 24q-5 22 -12.5 71t-9.5 60q-34 -243 -182 -243
q-106 0 -147 108q-13 34 -21.5 76.5t-13.5 89t-7 56.5q-10 61 -46 61q-11 0 -34.5 -7t-32.5 -7q-14 0 -14 13q0 2 0.5 4t1.5 3.5t3 2.5t3 2t4 2l4.5 1.5t5.5 1.5t6 2q43 13 80 38q22 15 39.5 34t25.5 30.5t13 11.5zM302 722q22 0 35.5 -15t13.5 -37q0 -31 -18 -47.5
t-41 -16.5q-20 0 -35 14t-15 40t18 44t42 18zM428 711q18 0 31 -12t13 -34q0 -24 -14 -40t-34 -16q-19 0 -32.5 12t-13.5 38q0 23 15 37.5t35 14.5z" />
    <glyph glyph-name="yacute" unicode="&#xfd;" horiz-adv-x="659" 
d="M289 536q10 0 10 -9q0 -5 -7 -12q-2 -1 -19 -12t-33 -23q-23 -17 -29 -41t-6 -67q1 -69 15.5 -133.5t32.5 -100.5q38 -77 104 -77q35 0 60.5 25t37 65t16.5 75t5 68q0 90 -31 109q-7 5 -59 19q-19 4 -19 17q0 15 17 15q6 0 38 -2.5t56 -2.5q33 0 78 7t64 14q9 4 18 4
q14 0 14 -11q0 -9 -9 -15q-2 -2 -10.5 -7t-12 -7.5t-8.5 -7.5t-7 -11q-3 -8 -5.5 -18.5t-4 -27.5t-2.5 -32.5l-3 -46t-4 -56.5q-18 -235 -82 -433q-40 -123 -106.5 -191.5t-150.5 -68.5q-60 0 -97.5 35.5t-37.5 92.5q0 61 34 100.5t85 39.5q40 0 62.5 -23.5t22.5 -56.5
q0 -27 -16.5 -45t-44.5 -18q-22 0 -36.5 11t-19.5 25t-12 25t-16 11q-15 0 -25 -20.5t-10 -46.5q0 -47 31.5 -76t80.5 -29q154 0 211 277q22 141 22 249q0 9 -0.5 21t-0.5 15l-1 13q-2 -7 -8 -21q-12 -29 -22 -46q-19 -34 -56 -57.5t-84 -23.5q-28 0 -52.5 7.5t-43.5 24.5
t-34 34t-27 45.5t-20.5 50.5t-16.5 57l-12.5 55.5t-11 56.5t-9.5 51q-5 25 -23 25q-7 0 -19 -2t-15 -2q-10 0 -10 9q0 8 10 11q71 19 124 45q33 16 65 36t48.5 29.5t26.5 9.5zM480 710q19 0 19 -22q0 -33 -62 -116q-47 -64 -65 -64q-7 0 -7 10q0 30 40.5 111t74.5 81z" />
    <glyph glyph-name="thorn" unicode="&#xfe;" horiz-adv-x="514" 
d="M360 203q0 115 -37 175t-91 60q-76 0 -76 -96q0 -150 17 -236q17 -88 81 -88q16 0 31.5 6.5t34 24t29.5 57.5t11 97zM131 703l14 -272q47 51 120 51q93 0 161 -77t68 -222q0 -58 -15 -102t-35 -66.5t-47 -36t-45 -16.5t-34 -3q-90 0 -141 61q0 -23 13.5 -246t17.5 -273
q2 -61 43 -77q16 -6 73 -19q16 -3 16 -14q0 -15 -18 -15q-10 0 -92.5 18.5t-144.5 18.5q-21 0 -48.5 -1.5t-34.5 -1.5q-21 0 -21 14q0 12 21 16q28 2 43 11q25 14 29 64q6 106 6 280q0 119 -3 317q-3 339 -33 577q-4 30 -13.5 39.5t-24.5 9.5q-6 0 -20 -3.5t-22 -3.5
q-14 0 -14 10q0 8 12 13q47 6 112 31q29 12 53 25t34.5 20t15.5 7q10 0 10 -10q0 -6 -19 -20q-22 -17 -29.5 -36t-7.5 -55v-13z" />
    <glyph glyph-name="ydieresis" unicode="&#xff;" horiz-adv-x="659" 
d="M289 536q10 0 10 -9q0 -5 -7 -12q-2 -1 -19 -12t-33 -23q-23 -17 -29 -41t-6 -67q1 -69 15.5 -133.5t32.5 -100.5q38 -77 104 -77q35 0 60.5 25t37 65t16.5 75t5 68q0 90 -31 109q-7 5 -59 19q-19 4 -19 17q0 15 17 15q6 0 38 -2.5t56 -2.5q33 0 78 7t64 14q9 4 18 4
q14 0 14 -11q0 -9 -9 -15q-2 -2 -10.5 -7t-12 -7.5t-8.5 -7.5t-7 -11q-3 -8 -5.5 -18.5t-4 -27.5t-2.5 -32.5l-3 -46t-4 -56.5q-18 -235 -82 -433q-40 -123 -106.5 -191.5t-150.5 -68.5q-60 0 -97.5 35.5t-37.5 92.5q0 61 34 100.5t85 39.5q40 0 62.5 -23.5t22.5 -56.5
q0 -27 -16.5 -45t-44.5 -18q-22 0 -36.5 11t-19.5 25t-12 25t-16 11q-15 0 -25 -20.5t-10 -46.5q0 -47 31.5 -76t80.5 -29q154 0 211 277q22 141 22 249q0 9 -0.5 21t-0.5 15l-1 13q-2 -7 -8 -21q-12 -29 -22 -46q-19 -34 -56 -57.5t-84 -23.5q-28 0 -52.5 7.5t-43.5 24.5
t-34 34t-27 45.5t-20.5 50.5t-16.5 57l-12.5 55.5t-11 56.5t-9.5 51q-5 25 -23 25q-7 0 -19 -2t-15 -2q-10 0 -10 9q0 8 10 11q71 19 124 45q33 16 65 36t48.5 29.5t26.5 9.5zM338 722q22 0 35.5 -15t13.5 -37q0 -31 -18 -47.5t-41 -16.5q-20 0 -35 14t-15 40t18 44t42 18z
M464 711q18 0 31 -12t13 -34q0 -24 -14 -40t-34 -16q-19 0 -32.5 12t-13.5 38q0 23 15 37.5t35 14.5z" />
    <glyph glyph-name="dotlessi" unicode="&#x131;" horiz-adv-x="302" 
d="M224 623q5 0 5 -11q0 -22 -6 -60q-11 -88 -22 -218t-11 -166q0 -41 21 -58q19 -12 53 -16q23 -3 23 -9q0 -10 -21 -10q-18 0 -59.5 7.5t-67.5 7.5t-57.5 -3.5t-42.5 -3.5q-22 0 -22 11q0 9 23 14q17 3 26 6.5t18 14t11 27.5q5 60 5 210q0 76 -1 87q-1 25 -4.5 39
t-14.5 21t-20.5 9t-32.5 4q-12 2 -12 11t15 11q64 4 114 25q25 10 43 23t26 20t11 7z" />
    <glyph glyph-name="OE" unicode="&#x152;" horiz-adv-x="1133" 
d="M201 704q77 36 165 36q166 0 278 -139q-2 60 -29 93q-9 10 -20 18l-16.5 12t-5.5 8q0 8 12 8q7 0 28 -0.5t35 -0.5q69 0 162 18q49 10 94.5 29t70.5 33t30 14q8 0 8 -15q0 -11 -1 -29t-1 -34q0 -29 7.5 -75.5t7.5 -56.5q0 -13 -6 -13q-12 0 -23 48q-11 39 -22.5 58.5
t-32.5 19.5q-50 0 -175 -40q-20 -6 -20 -29q0 -9 8 -140.5t10 -144.5q4 -21 20 -21q51 0 98 15q27 9 40.5 21.5t22.5 41.5q2 6 4 14.5l3.5 14.5l3 11.5t3.5 8.5t5 3q6 0 6 -11q0 -5 -6 -45.5t-6 -67.5q0 -33 4.5 -80t4.5 -55q0 -12 -5 -12q-6 0 -13 22t-17.5 49.5
t-21.5 36.5q-12 9 -38 9q-38 0 -83 -15q-20 -7 -20 -32q0 -16 12 -170.5t15 -172.5q2 -17 18 -17q57 0 123.5 12t96.5 34q15 11 28 29.5t21.5 39t13.5 37t9 32t4 16.5q11 36 16 36q6 0 6 -19q0 -9 -4.5 -49t-4.5 -74q0 -25 2 -65.5t2 -45.5q0 -25 -20 -25q-108 7 -207 7
q-92 0 -174 -15.5t-132.5 -31t-66.5 -15.5q-9 0 -9 8q0 7 10 12.5t31 14t33 14.5q51 28 56 81q2 18 2 68q0 106 -9 106q-2 0 -13.5 -13t-32.5 -31.5t-49.5 -37t-71.5 -31.5t-91 -13q-166 0 -272 103t-106 273q0 106 53 190.5t142 126.5zM358 698q-97 0 -156.5 -69.5
t-59.5 -173.5q0 -147 86.5 -261t204.5 -114q98 0 155.5 68.5t57.5 171.5q0 156 -78 267t-210 111z" />
    <glyph glyph-name="oe" unicode="&#x153;" horiz-adv-x="799" 
d="M603 545q53 0 90.5 -29.5t37.5 -86.5q0 -69 -45 -107.5t-123 -38.5q-40 0 -66 12q7 -74 47.5 -119.5t96.5 -45.5t84 33t28 75q0 29 -12 51.5t-12 27.5q0 11 12 11q14 0 28.5 -26t14.5 -60q0 -78 -51.5 -124t-122.5 -46q-70 0 -126 35t-78 105q-49 -113 -167 -113
q-101 0 -162.5 66.5t-61.5 162.5q0 91 56.5 152.5t140.5 61.5q70 0 126.5 -39.5t77.5 -96.5q29 66 82.5 102.5t104.5 36.5zM268 140q86 0 86 115q0 80 -47 166t-112 86q-82 0 -82 -116q0 -45 14.5 -99.5t52 -103t88.5 -48.5zM495 328v-9q25 -15 59 -15q40 1 66 23t35.5 49
t9.5 56q0 92 -67 92q-44 0 -73.5 -57t-29.5 -139z" />
    <glyph glyph-name="circumflex" unicode="&#x2c6;" horiz-adv-x="484" 
d="M239 879q4 0 23 -25q33 -46 76 -86q20 -19 40.5 -34.5t31 -22t17.5 -13.5t7 -14q0 -11 -15 -11q-41 0 -100 43q-25 19 -46 39.5l-30.5 30t-13.5 9.5q-3 0 -13.5 -11l-31 -33t-40.5 -40q-70 -63 -88 -63q-4 0 -4 4t19.5 23.5t54.5 58t63 79.5q41 66 50 66z" />
    <glyph glyph-name="caron" unicode="&#x2c7;" horiz-adv-x="428" 
d="M60 920q17 0 68 -46q61 -61 80 -61q4 0 8.5 1.5t10 6l10 8t11 10.5l10 11l11 12.5t10.5 11.5q73 82 92 82q6 0 6 -6q0 -5 -7.5 -13l-28 -31t-42.5 -51q-34 -45 -56 -88.5t-30 -61.5t-17 -18q-7 0 -12.5 11.5t-16 37.5t-23.5 47q-17 27 -41 55.5l-38.5 45.5t-14.5 25
q0 11 10 11z" />
    <glyph glyph-name="ring" unicode="&#x2da;" horiz-adv-x="330" 
d="M164 1088q55 0 85.5 -33.5t30.5 -90.5q0 -56 -32 -94.5t-80 -38.5q-55 0 -86.5 33t-31.5 93t34.5 95.5t79.5 35.5zM166 1069q-30 0 -51.5 -24.5t-21.5 -66.5t22.5 -63t52.5 -21q37 0 56 26.5t19 62.5q0 37 -21 61.5t-56 24.5z" />
    <glyph glyph-name="tilde" unicode="&#x2dc;" horiz-adv-x="433" 
d="M142 879q30 0 88 -40.5t88 -40.5q15 0 27 8t19 16.5t10 8.5q8 0 8 -18q0 -39 -21.5 -68.5t-64.5 -29.5q-38 0 -74 28t-63.5 56t-45.5 28q-17 0 -28 -18.5t-17 -37t-11 -18.5t-5 15q0 18 7.5 42t29.5 46.5t53 22.5z" />
    <glyph glyph-name="endash" unicode="&#x2013;" horiz-adv-x="436" 
d="M219 194q-35 0 -85 5t-70 13q-14 5 -14 17q0 14 15 14q12 0 60 -6t89 -6q43 0 92.5 4t57.5 4q22 0 22 -14q0 -15 -20 -21q-34 -10 -147 -10z" />
    <glyph glyph-name="emdash" unicode="&#x2014;" horiz-adv-x="652" 
d="M557 284q45 0 45 -21q0 -19 -39 -23q-14 -2 -51 -3.5t-88.5 -4t-83.5 -4.5q-244 -17 -265 -17q-25 0 -25 12t26 17.5t93 12.5q19 2 30 3q252 28 358 28z" />
    <glyph glyph-name="quoteleft" unicode="&#x2018;" horiz-adv-x="287" 
d="M138 515q-37 0 -62.5 26t-25.5 75q0 91 60.5 156.5t113.5 65.5q13 0 13 -6q0 -4 -7.5 -8t-20 -9.5t-20.5 -11.5q-31 -24 -31 -61q0 -28 30 -69t30 -76q0 -39 -22.5 -60.5t-57.5 -21.5z" />
    <glyph glyph-name="quoteright" unicode="&#x2019;" horiz-adv-x="292" 
d="M131 804q48 0 79.5 -35.5t31.5 -107.5q0 -90 -49.5 -146.5t-83.5 -56.5q-9 0 -9 7t18 22t36 35.5t18 39.5q0 21 -19 40.5t-42 33t-42 37.5t-19 53q0 36 21 57t60 21z" />
    <glyph glyph-name="quotesinglbase" unicode="&#x201a;" horiz-adv-x="273" 
d="M133 162q42 0 66 -25t24 -70q0 -48 -23.5 -105t-52.5 -92.5t-45 -35.5q-6 0 -6 6q0 3 26.5 47t26.5 75q0 18 -15 31t-33 21t-33 27t-15 47q0 33 22 53.5t58 20.5z" />
    <glyph glyph-name="quotedblleft" unicode="&#x201c;" horiz-adv-x="446" 
d="M50 559q0 50 25 99t58.5 81.5t65 52.5t47.5 20q7 0 7 -5q0 -4 -4.5 -9t-17.5 -15t-20 -16q-56 -48 -56 -103q0 -28 29 -68.5t29 -68.5q0 -37 -21 -57.5t-55 -20.5q-38 0 -62.5 26t-24.5 84zM253 586q0 74 44.5 131t70.5 57q7 0 7 -7q0 -4 -23 -32t-23 -58q0 -26 33.5 -58
t33.5 -58q0 -25 -17 -44.5t-47 -19.5q-36 0 -57.5 25t-21.5 64z" />
    <glyph glyph-name="quotedblright" unicode="&#x201d;" horiz-adv-x="445" 
d="M125 841q41 0 65 -31t24 -80q0 -43 -15.5 -86.5t-36 -71.5t-39 -46t-26.5 -18t-8 8q0 4 2.5 10t6 11t9.5 14.5l10 15.5q21 34 21 63q0 19 -13.5 35.5t-30 28t-30 32.5t-13.5 48q0 29 20 48t54 19zM316 811q34 0 56.5 -25t22.5 -68q0 -53 -25.5 -101t-59 -77t-63 -46
t-42.5 -17q-8 0 -8 6q0 7 26.5 24.5t52.5 44t26 56.5q0 22 -31 57.5t-31 69.5q0 35 21.5 55.5t54.5 20.5z" />
    <glyph glyph-name="quotedblbase" unicode="&#x201e;" horiz-adv-x="483" 
d="M140 121q44 0 70.5 -34.5t26.5 -90.5q0 -49 -13.5 -93t-32.5 -70.5t-36 -42t-26 -15.5q-7 0 -7 7q0 5 20 39t20 59q0 20 -17 38t-38 31t-38 37t-17 53q0 37 24 59.5t64 22.5zM352 84q37 0 59 -23t22 -66q0 -57 -32 -120t-68.5 -100t-55.5 -37q-8 0 -8 7q0 5 6 14t18 25
t18 25q28 42 28 71q0 15 -16.5 33t-33.5 41t-17 50q0 37 23.5 58.5t56.5 21.5z" />
    <glyph glyph-name="bullet" unicode="&#x2022;" horiz-adv-x="351" 
d="M182 532q51 0 85 -33t34 -88q0 -60 -36 -91t-98 -31q-47 0 -82 29t-35 87q0 66 41 96.5t91 30.5z" />
    <glyph glyph-name="guilsinglleft" unicode="&#x2039;" horiz-adv-x="466" 
d="M344 546q4 0 4 -7q0 -45 -82 -192l-24 -42l-20.5 -35.5t-6.5 -15.5q0 -12 72 -113q130 -186 130 -210q0 -7 -7 -7q-10 0 -34.5 22t-73 71t-76.5 75q-31 29 -76.5 60l-72.5 49t-27 25q0 6 20.5 19.5t61 44.5t77.5 70q35 38 66.5 86t47 74t21.5 26z" />
    <glyph glyph-name="guilsinglright" unicode="&#x203a;" horiz-adv-x="449" 
d="M92 535q8 0 18 -13t22 -32.5t40 -52t63 -63.5q38 -34 80 -58.5t63 -34.5t21 -15q0 -4 -22.5 -17.5t-68.5 -49t-90 -83.5q-46 -51 -82 -106.5t-51.5 -82t-23.5 -26.5q-9 0 -9 14q0 58 65 181q17 32 42.5 73.5l40 66.5t14.5 33q0 6 -9.5 22t-28.5 44t-30 47
q-26 42 -44.5 83.5t-18.5 56.5q0 13 9 13z" />
    <glyph glyph-name="fraction" unicode="&#x2044;" horiz-adv-x="406" 
d="M516 929q8 0 8 -10q0 -23 -133 -217l-409 -564l-35 -49t-34 -48q-19 -27 -29 -38.5t-19 -11.5q-11 0 -11 12q0 20 55 98l128 181l407 564l14.5 19.5t13 18.5t11 15l10.5 13t8.5 9t8 6t6.5 2z" />
    <glyph glyph-name="foursuperior" unicode="&#x2074;" horiz-adv-x="473" 
d="M246 931q7 0 10 -37q0 -3 8 -82t15.5 -139.5t13.5 -88.5q29 9 45 24q18 15 27 38t12 37.5t6 14.5q5 0 5 -27v-33q0 -25 4.5 -59.5t4.5 -37.5t-2 -9q-8 -12 -66 -12h-23q13 -79 47 -110q30 -26 83 -26q17 0 17 -8q0 -10 -36 -10q-9 0 -47 2t-60 2q-32 0 -83 -11t-73 -11
q-13 0 -13 9t14 12q41 9 53 23.5t12 54.5q0 33 -3 67q-7 0 -21 -2q-13 -2 -45 -4q-42 -5 -113 -5q-17 0 -17 8q0 6 8.5 22.5t29 51t25.5 44.5q94 165 138 264q19 38 24 38zM213 565l-6 54q-16 138 -23 138q-3 0 -15 -21l-31 -57t-30 -54q-33 -62 -33 -71q0 -5 6 -5
q21 0 70 6.5t62 9.5z" />
    <glyph glyph-name="Euro" unicode="&#x20ac;" horiz-adv-x="800" 
d="M508 496q11 0 11 -8q0 -9 -19 -19q-6 -4 -45.5 -18l-99 -35l-82.5 -29q-2 -19 -2 -57q38 12 89.5 30t76.5 26t35 8q7 0 7 -5q0 -8 -18 -19q-50 -28 -189 -83q14 -262 217 -262q43 0 76.5 16t52 39t30.5 53.5t15.5 52.5t4.5 44q0 27 12 27t12 -26q0 -14 -1 -28.5
t-6.5 -43.5t-15 -54t-29 -54t-45.5 -49.5t-68 -34t-93 -13.5q-123 0 -203.5 80.5t-102.5 198.5q-86 -33 -109 -33q-24 0 -24 22q0 14 10.5 22t34.5 14q45 11 81 22q-1 11 -1 33v23q-60 -19 -82 -19q-18 0 -18 14t23 21l81 23q20 165 127.5 271.5t258.5 106.5q57 0 101.5 -15
t72.5 -30t45 -15q23 0 43.5 27t35.5 54t25 27q9 0 9 -11t-9 -30.5l-24 -50.5t-25 -61q-25 -75 -36 -163q-3 -27 -12 -27q-10 0 -13 35q-2 25 -6.5 47.5t-17.5 57.5t-31.5 59.5t-52.5 43t-78 18.5q-103 0 -172.5 -83t-87.5 -215l15 4q59 18 110.5 36.5l73.5 26.5t32 8z" />
    <glyph glyph-name="minus" unicode="&#x2212;" horiz-adv-x="436" 
d="M219 194q-35 0 -85 5t-70 13q-14 5 -14 17q0 14 15 14q12 0 60 -6t89 -6q43 0 92.5 4t57.5 4q22 0 22 -14q0 -15 -20 -21q-34 -10 -147 -10z" />
    <glyph glyph-name="f_f" unicode="&#xfb00;" horiz-adv-x="468" 
d="M414 562q41 0 41 -15q0 -17 -42 -17q-45 0 -97 -7q14 -140 47 -275t63 -184q17 -29 46 -43q11 -5 27 -8.5t24 -6t8 -7.5q0 -11 -31 -15q-66 -10 -107 -28q-22 -10 -46 -25.5l-39 -25t-23 -9.5q-9 0 -9 10q0 6 24 32.5t24 46.5q0 19 -34.5 203t-43.5 326l-24 -3
q-23 -3 -61 -11q14 -202 57 -462l10 -68t12.5 -78t13 -64t19 -67t23.5 -46q19 -28 46.5 -41t44.5 -16.5t17 -9.5q0 -16 -50 -16q-25 0 -90 10.5t-98 10.5q-31 0 -68.5 -4t-39.5 -4q-31 0 -31 17q0 13 22 16q77 11 84 58q3 20 3 46q0 43 -21 277.5t-24 423.5q-36 -9 -51 -9
q-9 0 -9 7q0 12 60 30v46q0 351 86 490q54 88 138 88q43 0 71 -25.5t28 -67.5t-22 -63.5t-54 -21.5q-58 0 -58 61q0 54 -28 54q-30 0 -51.5 -38.5t-31 -100.5t-13 -116t-3.5 -110q0 -82 7 -180q14 2 44 9l40 7q-1 21 -1 65q0 63 10.5 122t34 113.5t66.5 87t102 32.5
q65 0 98.5 -38t33.5 -98q0 -62 -26.5 -99.5t-72.5 -37.5q-37 0 -58 19.5t-21 54.5q0 34 33.5 70.5t33.5 61.5q0 40 -42 40q-54 0 -90 -69.5t-36 -210.5q0 -56 4 -104q67 10 101 10z" />
    <glyph glyph-name="dieresis.case" horiz-adv-x="393" 
d="M119 895q28 0 46 -16.5t18 -47.5q0 -37 -19 -57.5t-49 -20.5q-29 0 -47 18.5t-18 52.5q0 33 19.5 52t49.5 19zM290 871q27 0 40 -16t13 -36q0 -28 -15 -45.5t-44 -17.5q-50 0 -50 57q0 25 15 41.5t41 16.5z" />
    <glyph glyph-name="o.cmp" horiz-adv-x="401" 
d="M177 539q18 0 18 -10q0 -6 -15 -21q-70 -68 -70 -179q0 -32 6 -59t24 -49t47 -22q46 0 66.5 47.5t20.5 111.5q0 83 -42 131q-2 3 -9 9t-10.5 11.5t-3.5 11.5q0 16 17 16q6 0 24 -1.5t32 -1.5q71 0 138.5 27t109.5 68q40 38 63 84.5t23 83.5q0 24 -12.5 40t-28 23.5
t-28 23t-12.5 37.5q0 25 17 41t44 16q31 0 53 -23t22 -73q0 -57 -34 -130.5t-94 -134.5q-38 -38 -91 -64t-86 -33.5t-62 -10.5q14 -8 29.5 -21t35.5 -49.5t20 -79.5q0 -83 -57 -135t-140 -52q-77 0 -128.5 45.5t-51.5 130.5q0 47 18.5 85.5t45.5 60.5t53.5 33.5t47.5 11.5z
" />
    <glyph glyph-name="n_n" horiz-adv-x="1025" 
d="M716 423q-1 -14 -2.5 -37.5t-3.5 -45.5q23 54 63.5 81t79.5 27q67 0 102 -51t35 -135q0 -36 -12.5 -106t-12.5 -80q0 -16 11 -24q6 -5 13 -8.5l13.5 -6.5t8.5 -4q4 -1 4 -7q0 -8 -9 -8q-12 0 -70 15t-103 15q-14 0 -33.5 -0.5t-23.5 -0.5q-14 0 -14 11q0 12 14 12
q6 0 15.5 -1t17.5 -1q34 0 50 43q9 21 16.5 72.5t7.5 93.5q0 117 -73 117q-47 0 -72 -58t-25 -129q0 -48 11 -72q8 -15 42 -20q16 -1 16 -11q0 -12 -22 -12q-40 0 -93 -8q-22 -3 -50 -11t-40 -8q-21 0 -21 13q0 9 10 12q25 8 35.5 19t13.5 43q7 91 7 225q0 32 -6 48.5
t-25 16.5q-29 0 -29 11q0 8 14 11q43 7 72.5 21t42 24t16.5 10q11 0 11 -47q0 -21 -2 -49zM168 629q9 0 31 -144l18 -123q4 28 16 59t33 64.5t55.5 55.5t76.5 22q71 0 106.5 -50.5t35.5 -135.5q0 -51 -13 -146t-13 -131q0 -32 12 -53q8 -12 33 -30t25 -29t-11 -11
q-9 0 -25 10.5t-45 27.5t-64 28q-48 15 -100 18q-17 2 -17 10q0 9 11 9q27 0 44 1q21 2 33 13t18 38q11 55 11 145v32.5t-2 37t-5.5 41t-10.5 36.5t-17 32.5t-25.5 21t-35.5 8.5q-113 0 -113 -263q0 -121 27 -159q13 -18 38 -28q18 -6 18 -11q0 -8 -20 -8q-12 0 -47.5 5.5
t-55.5 5.5t-55 -3t-41 -3q-19 0 -19 12q0 9 15 12q33 2 49 4q27 4 27 36q0 96 -59 355q-6 29 -13.5 42t-21.5 13q-11 0 -31 -8.5t-27 -8.5q-9 0 -9 8t16 14q33 13 66 38q21 16 39.5 39t28.5 37t13 14z" />
    <glyph glyph-name="a_a" horiz-adv-x="911" 
d="M506 401q-28 0 -46.5 20t-18.5 61q0 19 8.5 42t26.5 46.5t53 39.5t80 16q47 0 83 -18.5t57.5 -48.5t33 -62t15.5 -66q7 -68 11 -200t5 -149q3 -52 17.5 -76.5t44.5 -24.5q44 0 52 69q4 23 11 23q9 0 9 -16q0 -15 -3.5 -31.5t-12.5 -39t-31.5 -36.5t-54.5 -14
q-67 0 -106 48t-43 129q-62 -85 -161 -86q-37 -44 -101 -44q-127 0 -171 108q-4 -38 -37.5 -77t-89.5 -39q-53 0 -86 29t-33 90q0 51 29.5 87t71.5 54q53 21 111 21q21 0 23 15q3 17 3 44q0 156 -96 156q-31 0 -46.5 -16t-15.5 -39q0 -21 19.5 -44t19.5 -43q0 -21 -14 -35.5
t-35 -14.5q-28 0 -43.5 17.5t-15.5 48.5q0 59 40 104t104 45q39 0 66.5 -15.5t43 -38t24.5 -61t12 -70t4 -80.5q3 -113 33 -163t97 -50q26 0 49 14q-56 10 -94 52t-38 102q0 78 52 125.5t141 47.5q47 0 86 -14t59 -30q4 64 4 86q0 70 -11 111q-11 42 -37 67t-64 25
q-32 0 -51 -14t-19 -36q0 -14 19 -39.5t19 -53.5q0 -24 -15.5 -41t-46.5 -17zM557 144q0 16 -9.5 26t-20.5 13.5t-20.5 12.5t-9.5 25q0 14 9.5 24t28.5 10q53 0 53 -73q0 -44 -14 -86q33 1 63 13.5t42 22.5t18 18q1 17 4 62.5t4 68.5q-48 41 -127 41q-48 0 -80 -31.5
t-32 -90.5q0 -43 25 -70t60 -33q6 21 6 47zM124 111q0 -39 16.5 -57.5t42.5 -18.5q74 0 74 155q0 28 -3 46q-57 0 -93.5 -34.5t-36.5 -90.5z" />
    <glyph glyph-name="t_h" horiz-adv-x="855" 
d="M472 1074q15 0 15 -30q0 -68 -14 -270l-9 -133q9 0 21.5 0.5t16.5 0.5q36 0 36 -19q0 -18 -27 -21q-10 -1 -49 -1q-3 -51 -5.5 -106.5t-3.5 -82.5q22 48 66.5 80.5t107.5 32.5q102 0 153 -65t51 -183q0 -75 -24 -200.5t-24 -157.5q0 -48 30 -79q11 -12 22.5 -21
t15.5 -12.5t4 -8.5q0 -8 -12 -8q-16 0 -66 22.5t-82 27.5q-47 8 -127 8q-28 0 -28 13q0 7 9 10t28 6.5t31 8.5q27 11 45 29.5t29 54.5q38 141 38 311q0 104 -26 156.5t-91 52.5q-119 0 -147 -189q-12 -84 -12 -191q0 -38 1 -45q72 4 103.5 35t31.5 68q0 22 -22.5 49
t-22.5 50q0 29 17.5 45t41.5 16q28 0 45 -18t17 -51q0 -21 -4 -43t-17 -52.5t-34.5 -55t-61 -44.5t-91.5 -26q3 -32 28.5 -55.5t50.5 -32.5q4 -2 11 -4.5t10.5 -3.5t7.5 -3t5.5 -4t1.5 -5q0 -10 -22 -10q-14 0 -62.5 10t-85.5 10q-38 0 -101.5 -15t-70.5 -15q-8 0 -8 5
q-1 5 9 10.5t30 14t35 17.5q47 28 54 85q-121 25 -168 104.5t-47 212.5q0 43 8.5 119t8.5 91q0 19 -5.5 27.5t-21.5 8.5q-19 0 -57.5 -5t-54.5 -5q-24 0 -24 17q0 13 19 16q117 16 176 50q30 17 55 46.5t39.5 49.5t22.5 20q9 0 9 -10t-14.5 -48.5t-14.5 -59.5q0 -29 24 -34
q15 -3 87 -3q10 148 10 183q0 45 -6.5 72t-28.5 39q-16 9 -63 9q-11 0 -32.5 -0.5t-26.5 -0.5q-23 0 -23 11q0 9 29 12q77 10 127 35q26 13 48.5 32.5l35 31t19.5 11.5zM229 344q0 -49 4 -86t15.5 -76t36 -65.5t61.5 -37.5q10 118 30 447l5 78q-33 2 -85 2q-41 0 -50 -44
q-17 -74 -17 -218z" />
    <glyph glyph-name="s_s" horiz-adv-x="655" 
d="M500 659q13 0 31.5 -1.5t23.5 -1.5q19 0 30.5 18t17.5 36.5t12 18.5q7 0 7 -10q0 -8 -8 -50t-8 -67q0 -21 1 -46.5t1 -32.5q0 -17 -8 -17q-10 0 -16 29q-4 19 -6.5 27.5t-9 25t-14 24.5t-20.5 15t-30 7q-30 0 -50 -21.5t-20 -62.5q0 -39 21 -82t51 -84l60.5 -84.5
t51.5 -98t21 -110.5q0 -105 -66 -168t-176 -63q-168 0 -212 151q-33 9 -60.5 31t-45 38.5t-29.5 16.5q-13 0 -37.5 -23t-30.5 -23q-5 0 -5 5q0 4 7 14.5t20 32.5t23 46q9 23 15.5 56.5t11.5 50.5t14 17q11 0 11 -34q0 -49 6 -81q15 -85 92 -108q-4 18 -4 51q0 59 25 92.5
t61 33.5q22 0 36 -12.5t14 -34.5q0 -25 -16 -40t-35 -21t-35 -22.5t-16 -44.5v-8q3 -1 19 -1q54 0 86.5 33t32.5 94q0 42 -22 84t-53.5 78l-63 71.5t-53.5 77.5t-22 84q0 60 35.5 92t93.5 32q14 0 33.5 -4t25.5 -4q30 0 49.5 14t28.5 28t13 14t4 -4q0 -5 -9.5 -18
l-23.5 -31.5t-21 -33.5q-2 -3 -12 -28.5t-18.5 -41.5t-13.5 -16q-2 0 -2 3q0 1 4 17t4 28q0 24 -13 39t-38 15q-64 0 -64 -74q0 -32 17 -63.5t42.5 -56l55 -54.5t55 -58.5t42.5 -70t17 -86.5q0 -95 -58.5 -146.5t-140.5 -51.5q-19 0 -22 1q17 -47 61 -75.5t93 -28.5
q71 0 109 46.5t38 134.5q0 57 -25.5 120t-56 109.5t-56 105t-25.5 107.5q0 72 43.5 103t103.5 31z" />
    <glyph glyph-name="t_t" horiz-adv-x="570" 
d="M231 746q8 0 8 -17q0 -16 -8 -68t-9 -62q0 -16 15 -16q17 0 26 8t10 30q1 20 6.5 72t5.5 58q5 36 11.5 46t31.5 11q7 1 32 1q15 0 19.5 -5.5t4.5 -21.5q0 -14 -6 -69.5t-6 -70.5t13 -15q21 0 73.5 21.5t57.5 21.5q6 0 6 -6q0 -14 -125 -69q-34 -16 -41 -56
q-12 -54 -12 -151q0 -114 32 -186.5t99 -72.5q26 0 39.5 14t13.5 28q0 8 -2.5 14t-9 9.5t-10 5t-15 4t-13.5 3.5q-41 10 -41 49q0 22 13.5 36t39.5 14q37 0 58.5 -27t21.5 -58q0 -47 -29 -82.5t-89 -35.5q-63 0 -109 41t-62 103q-13 49 -17 121t-3.5 119.5t-2.5 48.5
q-1 1 -5 1q-28 0 -35 -12q-4 -8 -10 -30t-12.5 -83.5t-6.5 -140.5q0 -175 41 -250.5t102 -75.5q11 0 19.5 4.5t13.5 10.5t9.5 17t5.5 16.5t3.5 18t2.5 14.5q4 18 8 28.5t18.5 22t37.5 11.5q57 0 57 -57q0 -40 -38 -77.5t-111 -37.5q-92 0 -154.5 51.5t-89 130.5t-26.5 179
q0 51 6 125t6 100q0 22 -24 22q-76 0 -76 16q0 6 10 8.5t35 10t50 21.5q70 38 102 105q6 12 12.5 29.5t11 24.5t10.5 7z" />
    <glyph glyph-name="e_e" horiz-adv-x="782" 
d="M214 557q53 0 84.5 -30t31.5 -79q0 -45 -16 -82t-38.5 -58.5t-53.5 -37t-53.5 -22t-45.5 -10.5q25 -69 84.5 -107t137.5 -38q32 0 55 4q-67 81 -67 208q0 124 63 194t154 70q67 0 106 -41t39 -115q0 -90 -48.5 -174t-132.5 -132q49 -46 120 -46q51 0 75.5 32t24.5 72
q0 31 -15 60.5t-15 31.5q0 6 6 6q18 0 37.5 -30t19.5 -69q0 -69 -41 -113.5t-117 -44.5q-112 0 -183 64q-52 -15 -114 -15q-57 0 -110 15.5t-98.5 46.5t-72.5 83.5t-27 119.5q0 111 64 174t146 63zM434 332q0 -127 58 -201q53 32 87 91.5t44.5 107.5t10.5 88q0 63 -23.5 94
t-61.5 31q-48 0 -81.5 -53t-33.5 -158zM108 334q0 -42 9 -77q156 31 156 189q0 37 -14 61t-44 24q-50 0 -78.5 -56t-28.5 -141z" />
    <glyph glyph-name="o_o" horiz-adv-x="752" 
d="M513 493q13 0 13 -7t-15 -16q-52 -33 -73 -68q17 -49 17 -93q0 -56 -21 -106q11 -18 34 -31t53 -13q49 0 80 38.5t31 97.5q0 98 -49 151q-2 3 -9 9.5t-10.5 12t-3.5 10.5q0 16 17 16q6 0 26.5 -1.5t34.5 -1.5q68 0 134.5 27t108.5 68q40 38 63 84.5t23 83.5
q0 21 -13 37.5t-28 25.5t-28 25t-13 36q0 25 16.5 41t45.5 16q32 0 53.5 -22t21.5 -65q0 -62 -32 -140.5t-93 -136.5q-60 -57 -128.5 -80.5t-113.5 -24.5q7 -5 17 -14.5t25.5 -28.5t25.5 -47.5t10 -59.5q0 -85 -58.5 -134.5t-145.5 -49.5q-68 0 -117 28q-62 -93 -179 -93
q-42 0 -79.5 12.5t-69 37t-50 67.5t-18.5 98q0 119 67.5 186t168.5 67q50 0 92.5 -22.5t68.5 -60.5q56 41 100 41zM261 515q-64 0 -105 -63.5t-41 -181.5q0 -77 31 -122t83 -45q47 0 79.5 34.5t43.5 85.5q-19 38 -19 81q0 57 33 104q-8 52 -36 79.5t-69 27.5z" />
    <glyph glyph-name="l_l" horiz-adv-x="573" 
d="M168 856q12 0 12 -23q0 -7 -1 -57.5t-1 -80.5q0 -96 5 -310t9 -281q2 -64 10 -104q8 -42 32 -66q9 -9 25 -20l25.5 -18t9.5 -14q0 -12 -15 -12q-11 0 -34.5 9l-60 23.5t-68.5 23.5q-58 16 -144 26q-22 5 -22 17q0 13 16 13q4 0 27.5 -2t40.5 -2q22 0 28.5 14.5t9.5 47.5
q7 154 7 349q0 188 -6 305q-1 28 -14 28q-10 0 -42.5 -18t-38.5 -18q-7 0 -7 6q0 4 5 7q1 1 8 4.5t17.5 9.5t23 14t29.5 20.5t33 27.5q18 16 36 38t28 32.5t17 10.5zM339 521q-9 159 -19 188q-10 31 -36 31q-8 0 -22.5 -2t-18.5 -2q-12 0 -12 10q0 7 13 11q67 14 111 37
q23 12 43 27t30.5 23.5t14.5 8.5q7 0 7 -26q0 -41 -0.5 -144t-0.5 -155q0 -120 12.5 -266.5t28.5 -176.5q13 -26 64 -33q24 -3 24 -16q0 -15 -28 -15q-10 0 -58.5 3.5t-78.5 3.5q-35 0 -83 -5.5t-55 -5.5q-15 0 -15 11q0 7 5 10q3 2 26.5 7t34.5 13q23 15 23 70
q0 240 -10 393z" />
    <glyph glyph-name="z_z" horiz-adv-x="875" 
d="M264 472q48 0 94.5 9t48.5 9q8 0 8 -6q0 -8 -24 -40q-16 -21 -151 -218l-63.5 -97t-66.5 -99q66 22 150 22q85 0 214.5 -46.5t207.5 -46.5q99 0 99 63q0 25 -17.5 58t-17.5 53q0 34 18.5 53.5t50.5 19.5q31 0 50.5 -20.5t19.5 -59.5q0 -92 -66.5 -141t-177.5 -49
q-56 0 -217.5 36t-232.5 36q-57 0 -129.5 -16.5t-75.5 -16.5q-6 0 -6 4q0 6 12.5 27l28.5 46.5t20 33.5l100.5 177.5t81.5 150.5q5 9 5 19q0 14 -24.5 20.5t-52.5 6.5q-51 0 -64 -28q-8 -23 -8 -56q0 -22 -6 -22q-5 0 -5 15q0 2 -1.5 50t-1.5 54q0 22 13 22q9 0 74.5 -11.5
t111.5 -11.5zM262 616q5 0 26 -7t57 -13.5t78 -6.5q45 0 84 6.5t61 12.5t28 6q10 0 10 -10q0 -12 -18 -61l-47.5 -124.5t-45.5 -121.5q-54 -156 -56 -163q26 -3 81 -3q50 0 76.5 10.5t37.5 45.5q4 12 7 25t4.5 21t3 15t4 10t5.5 3q9 0 9 -23q0 -6 -0.5 -26t-0.5 -28
q0 -16 2 -42t2 -29q0 -18 -15 -18q-10 0 -63.5 8t-94.5 8q-38 0 -97.5 -9t-72.5 -9q-22 0 -22 15q0 7 5 22.5t19 45.5l23.5 50l33 68l33.5 69q75 160 75 188q0 12 -98 18q-6 0 -35.5 1.5t-42.5 1.5q-30 0 -40 -26q-3 -6 -6 -18.5t-5.5 -20t-6.5 -7.5t-4 13q0 6 0.5 21
t0.5 22t-0.5 23.5t-0.5 22.5q0 14 6 14z" />
    <glyph glyph-name="j_j" horiz-adv-x="577" 
d="M208 641q25 0 42 -16.5t17 -44.5q0 -24 -16.5 -42.5t-44.5 -18.5q-24 0 -41 15.5t-17 42.5q0 32 17.5 48t42.5 16zM280 459q12 0 20 -19t17 -74q29 -165 29 -338q0 -116 -15 -207.5t-41 -151t-62.5 -99t-76 -56t-84.5 -16.5q-88 0 -133.5 53.5t-45.5 129.5q0 79 40 124.5
t94 45.5q41 0 61 -21.5t20 -52.5q0 -63 -69 -78q-49 -10 -70.5 -27t-21.5 -53q0 -40 34 -68.5t87 -28.5q197 0 197 365q0 141 -21 253.5t-48 170.5q-28 62 -81 88q-26 13 -73 26q-14 4 -14 11q0 8 11 8q1 0 38 -3.5t67 -3.5q47 0 91.5 11t49.5 11zM557 -126q0 -90 -11 -171
t-37 -162t-79 -129.5t-128 -48.5q-50 0 -83 28.5t-33 77.5q0 36 18.5 55t45.5 19q29 0 46 -19.5t23 -43.5t21 -43.5t41 -19.5q102 0 102 383q0 69 -10 165t-29.5 203t-56 193t-82.5 113q-12 7 -27 10t-23.5 5t-8.5 7q0 8 31 15q84 19 111 28q34 10 40 10q17 0 33 -41
q44 -111 70 -277t26 -357zM350 727q29 0 48.5 -18t19.5 -51q0 -38 -20 -60t-51 -22q-30 0 -50 18.5t-20 57.5q0 34 19.5 54.5t53.5 20.5z" />
    <glyph glyph-name="f_b" horiz-adv-x="732" 
d="M331 1125q60 0 100.5 -38.5t40.5 -116.5q0 -74 -35 -119t-90 -45q-35 0 -55.5 20.5t-20.5 50.5q0 53 61 77q70 28 70 84q0 26 -18.5 48t-61.5 22t-72 -32.5t-42 -86.5t-17.5 -100t-4.5 -95q0 -26 1 -39t5.5 -31.5t15.5 -26.5t29 -8q23 0 61 9t47 9q15 0 15 -10
q0 -12 -29 -18q-3 -1 -35 -5t-62 -11q-24 -6 -32 -18q-7 -12 -7 -45q0 -23 8.5 -289t11.5 -297q5 -63 43 -74q10 -3 62 -10q27 -3 27 -16q0 -19 -42 -19q-6 0 -30.5 0.5t-40.5 0.5q-53 0 -100.5 -14t-78 -27.5t-43.5 -13.5q-11 0 -11 9q0 10 22 19q45 18 61.5 42t17.5 78
q1 30 1 131q0 339 -5 477q-1 25 -9 32.5t-31 7.5q-15 0 -48 -3t-40 -3q-19 0 -19 11t23 14q71 9 77 10q19 4 31.5 13t19.5 27.5t9 30.5t6 40q46 348 214 348zM295 757q46 9 81.5 24t51.5 27l27.5 21t16.5 9q11 0 11 -151q0 -79 -3 -311l1 -62q48 33 107 33t101.5 -38
t42.5 -114q0 -175 -187 -175q-13 0 -44.5 3.5t-49.5 3.5q-34 0 -79 -17t-57 -17q-11 0 -11 10q0 8 9.5 13.5t28 13.5t29.5 15q31 20 31 69v309q0 235 -25 278q-4 7 -10 12t-13 8t-14 5t-15.5 3.5t-13.5 1.5t-13 0.5t-9 0.5q-14 0 -14 11q0 10 20 14zM548 311q-39 0 -57 -38
t-18 -126q0 -52 12.5 -80t47.5 -28q42 0 61.5 42.5t19.5 103.5q0 126 -66 126z" />
    <glyph glyph-name="f_k" horiz-adv-x="709" 
d="M91 130q0 222 9 384q-40 -10 -61 -10q-9 0 -9 8t20 17.5t53 16.5q21 165 87 263q12 19 32 37q-17 21 -55 21q-12 0 -36.5 -2.5t-34.5 -2.5q-24 0 -24 13q0 10 15 14q103 23 151 53q19 12 35.5 29l25.5 26.5t15 9.5q11 0 11 -20q0 -7 -1.5 -39.5t-1.5 -50.5q26 6 54 6
q65 0 102.5 -36.5t37.5 -84.5q0 -53 -23.5 -84t-63.5 -31q-32 0 -52.5 19.5t-20.5 48.5q0 33 27 61.5t27 46.5q0 16 -13.5 25.5t-32.5 9.5q-20 0 -42 -5q0 -81 8.5 -309.5t12.5 -262.5q81 83 115 126q16 22 16 38q0 19 -21 30l-40 19q-10 6 -10 14q0 12 12 12q6 0 17.5 -6
t33.5 -15t50 -15q45 -9 97 -9q22 0 22 -12q0 -13 -24 -13q-61 0 -99 -29q-46 -35 -76 -80q3 -22 14.5 -60t31.5 -87.5t54 -84t73 -34.5q26 0 41.5 18.5t15.5 49.5q0 51 -40 87q-3 3 -8 7t-7.5 6.5t-2.5 4.5q0 4 5 4q12 0 36 -20q50 -40 50 -114q0 -18 -5 -36.5t-16 -38.5
t-34 -32.5t-55 -12.5q-157 0 -223 268l-20 -22q8 -182 24 -274q7 -35 21.5 -51.5t49.5 -16.5q5 0 17.5 0.5t18.5 0.5q35 0 35 -18q0 -22 -45 -22q-11 0 -57 4t-97 4q-38 0 -100.5 -6.5t-75.5 -6.5q-17 0 -17 12t17 12q32 0 60 10q21 8 34 23t18 39t6 40t1 44q0 127 -6 394
q-5 307 -12 353l-2 10q-56 -77 -64 -289q-4 -97 -4 -284q0 -130 6 -205q4 -53 35 -71q11 -6 11 -12q0 -9 -15 -9q-9 0 -48 8.5t-63 8.5q-8 0 -21 -1t-22 -1q-26 0 -26 9q0 4 4 5.5t12 3t13 3.5q22 9 29.5 39.5t7.5 109.5z" />
    <glyph glyph-name="f_h" horiz-adv-x="873" 
d="M331 1135q60 0 100.5 -38.5t40.5 -116.5q0 -74 -35 -119t-90 -45q-35 0 -55.5 20.5t-20.5 50.5q0 53 61 77q70 28 70 84q0 26 -18.5 48t-61.5 22t-72 -32.5t-42 -86.5t-17.5 -100t-4.5 -95q0 -26 1 -39t5.5 -31.5t15.5 -26.5t29 -8q23 0 61 9t47 9q14 0 14 -10
q0 -13 -28 -18q-3 -1 -35 -5t-62 -11q-24 -6 -32 -18q-7 -12 -7 -45q0 -23 8.5 -289t11.5 -297q5 -63 43 -74q10 -3 62 -10q27 -3 27 -16q0 -19 -42 -19q-6 0 -30.5 0.5t-40.5 0.5q-53 0 -100.5 -14t-78 -27.5t-43.5 -13.5q-11 0 -11 9q0 10 22 19q45 18 61.5 42t17.5 78
q1 30 1 131q0 339 -5 477q-1 25 -9 32.5t-31 7.5q-15 0 -48 -3t-40 -3q-19 0 -19 11t23 14q71 9 77 10q19 4 31.5 13t19.5 27.5t9 30.5t6 40q46 348 214 348zM522 892q11 0 11 -12q0 -7 -3 -24.5t-8.5 -55.5t-9.5 -84q-7 -78 -11.5 -152.5t-5.5 -116.5t-1.5 -93t-0.5 -65
q18 53 57.5 91t95.5 38q44 0 81.5 -24.5t53.5 -83.5q12 -46 12 -128q0 -16 -1 -58.5t-1 -65.5q0 -28 8 -42t18.5 -17.5t30.5 -4.5q29 -2 29 -15q0 -14 -25 -14q-11 0 -42.5 4.5t-52.5 4.5q-28 0 -78 -12.5t-59 -12.5q-11 0 -11 8q0 7 14 11q20 6 31 13q19 12 24 47
q6 49 6 140q0 77 -5 108q-13 89 -72 89q-47 0 -78 -66q-19 -41 -33 -123.5t-14 -151.5q0 -16 3.5 -26t12 -16t17 -9t24.5 -7q15 -3 15 -12q0 -11 -17 -11q-15 0 -72 10.5t-86 10.5q-20 0 -48 -2.5t-36 -2.5q-21 0 -21 13q0 12 15 12q3 0 10.5 -0.5t11.5 -0.5q36 0 52.5 19
t25.5 71q11 66 26 286.5t15 301.5q0 27 -5 45.5t-13.5 26.5t-16.5 10.5t-19 2.5q-12 0 -40 -5.5t-39 -5.5q-14 0 -14 12q0 10 16 16q3 1 24 7.5l32 10t31.5 13t40.5 20.5q27 16 47.5 36t30 31t17.5 11z" />
    </font>
</defs>
</svg>
